<?xml version="1.0" encoding="utf-8"?>
<!-- Generator: Adobe Illustrator 21.0.0, SVG Export Plug-In . SVG Version: 6.00 Build 0)  -->
<svg version="1.1" xmlns="http://www.w3.org/2000/svg" xmlns:xlink="http://www.w3.org/1999/xlink" x="0px" y="0px"
	 viewBox="0 0 4607.8 1452.6" style="enable-background:new 0 0 4607.8 1452.6;" xml:space="preserve">
<style type="text/css">
	.st0{display:none;}
	.st1{display:none;fill:#42FCE1;}
	.st2{fill:#42FCE1;}
	.st3{fill:#FFFFFF;}
	.st4{fill-rule:evenodd;clip-rule:evenodd;fill:none;}
	.st5{fill:none;}
</style>
<g id="Layer_2" class="st0">
</g>
<g id="Layer_1">
	<g>
		<circle class="st2" cx="2342.2" cy="735.9" r="622.4"/>
		<path class="st3" d="M2121,303.1c-6.5,0-16.8,6.3-30.8,19c-6.3,5.7-10.1,12.9-11.3,21.6c-1.5,7.7-1.8,23.2-0.7,46.5
			c0.3,0.7,0.6,1,0.9,1c0.5,0,1.1-0.9,1.8-2.6c0.7,7.6,2.2,13.4,4.6,17.4c8.5,17.3,14.4,26,17.6,26c0.3,0,0.5-0.1,0.8-0.2l2.9,12.4
			l-21.1,13.6c-2.2,1.7-3.9,4.8-5.1,9.3c-2.3,16.3-1.2,34.2,3.2,53.5l-2.9,28.6c-9.9-7.2-18.8-16.6-26.7-28.1l1.3-5.6
			c-0.9-1.4-2.9-2.8-6-4.3c-0.2-8.7-1.4-14.9-3.7-18.6c-1.8-3.2-6.3-5.1-13.6-5.5l-12.8-19.5l-20.8,1.7c-0.1,0-0.2,0-0.3,0
			c-1.1,0-1.6,0.6-1.5,1.9l7.4,13.9c-4.6,4.6-6.3,7.5-5.3,8.7c0.2,2.2,2.8,5.4,7.8,9.6l-2.4,8.5c1,2.1,2.5,3.3,4.6,3.6
			c-0.3,3.8,0.1,6.4,1.2,7.8l9.9,11.2l18.9,3.6l24.8,43.7c4.5,6.5,10.5,12.9,18.1,19.1c8,6.4,14.1,9.5,18.4,9.5
			c1.2,0,2.2-0.2,3.1-0.7c11.6-6.8,17.3-17.8,17.1-33.1h0l9.8,3c2,2.5,4.1,7.3,6.5,14.3c7.6,22.2,11.3,36.6,11,43.1
			c1.3,3.5,2.7,5.4,4.3,5.8l18.4,57.1c-5.5,18.9-9.8,56.3-12.7,112.2c-1.1,27.6-1.3,44.6-0.6,51.3l7.4,35.5l-3.7,31.6
			c1.3,32.4,1.4,53.2,0.4,62.4c-0.6,11.9-2.6,25.5-6,40.7c-0.6,0.9,0.1,2.1,1.9,3.5l-6,12.8c-1.4-0.2-2.5-0.4-3.4-0.4
			c-1.5,0-2.2,0.4-2,1.1c-11.1,14.5-19.6,24.3-25.4,29.4c-5.7,5.9-13.8,8.8-24.3,8.8c-1.2,0-2.4,0-3.7-0.1c-2.5,1.3-4,4.6-4.6,9.8
			c-0.4,7.3,1.1,12.6,4.5,15.9c18.8,2.3,31.8,3.5,38.8,3.5c0.1,0,0.2,0,0.3,0c0.5,0,0.9,0,1.3,0c7.2,0,12.7-0.8,16.4-2.3l20.6-12.5
			l1,14l1.4,0.7l37.5-0.7c0.2,0.1,0.5,0.1,0.7,0.1c0.9,0,1.4-0.5,1.6-1.6c-1.4-10.6-1.1-25.5,0.7-44.7c0.6-2.6-2.4-8-9-16.2
			c-1.1-2.2-1.6-5.8-1.4-11c1.2-30.1,8.3-65.3,21.3-105.7l-3.4-66c8.5,13.4,24.6,30.3,48.2,50.7l15.6,20.7l38,43.4l25.3,35.5
			l3.9,1.3l12.2,20c-2.4,3.7-2.9,5.6-1.3,5.6c0,0,0,0,0,0c15.5,15.4,24.1,25.7,25.8,30.9c2.3,2.9,0.8,10.5-4.5,22.7
			c-0.1,2.9,1.5,6.2,4.9,9.7c3.8,2.1,7.5,3.1,11,3.1c11.6,0,21.3-11.2,29.1-33.5c5.2-6.7,2-20.6-9.6-41.6l16.9,0.3l4.7-37.9
			l-39.4-10.4l-17.8,0.8l-5.8-5.3c-4.9-3.6-19.2-29-43.2-76.2c-35.3-34-52.1-53.5-50.4-58.5l-13.3-117c15.5-20.9,20.5-41.2,15-60.8
			l8,18.6c-1.6,8.4-1.4,14.7,0.4,18.8l11.3,16.6c1.3,3.3,1,8.5-1.1,15.5l1-0.4l-0.2,1.1c0.2,0,0.3,0,0.5,0c2.7,0,5.8,1.1,9.5,3.2
			l23.8,24.5c41.5,49,82.6,94.9,123.1,137.5l3.8,4.9c-2.9,6.3-3.3,11.9-1.2,16.8c1.5,4.4,4.5,9.2,9.1,14.4l108,104.1l36.7,46.1
			c0.1,0.7,0.5,1,1.2,1c0.6,0,1.5-0.3,2.5-0.8c0.4,4.4,2.4,8,5.8,10.8c2.6,2.4,6.1,3.6,10.8,3.6c0.7,0,1.4,0,2.1-0.1
			c4.3-0.3,8-2.8,11-7.7c6.5,0.8,11.2,1.3,14.2,1.3c2.4,0,3.6-0.3,3.7-0.8c3.2,9.8,8.7,14.7,16.4,14.7c2.3,0,4.8-0.4,7.4-1.3
			l51.6-50.6l4.1,0.1l16.4-18.6c0.2-1.3-0.4-1.9-1.6-1.9c-0.1,0-0.2,0-0.2,0l-15.9-3l-2.2-5.9c6.7-6,8.6-10.7,5.6-14.1
			c-7.6-12.2-15.5-22.4-23.6-30.6c-10.3-11.5-53.5-52.1-129.8-121.9c-9.9-6.2-20.5-9.3-31.9-9.3c-13.9,0-28.8,4.6-44.8,13.8
			c-12.2-9.2-20-13.8-23.4-13.8c-0.9,0-1.5,0.3-1.8,0.9c-4.8,1.3-8.6,5.2-11.5,11.9c-1.5,3.5-0.1,8.4,4.4,14.5
			c0.3,0.4-0.6,1.5-2.6,3.3L2346,743.5l0.3-4l-10.5-11.3c2.2-8.6,1.8-14.7-1-18.5c-14.9-13.2-22.5-21.5-22.8-24.8
			c-2.5-5.1-5.7-15.9-9.4-32.2c25.3-20.2,38.3-37.1,39-50.6c0.9-5.4-0.4-12.7-3.7-21.8l-23.3-47.7c-18.7-23.6-36.3-40-53-49
			c7.8-5.4,9.3-10.3,4.6-14.8c-2-1-3.6-1.5-4.9-1.5c-0.9,0-1.7,0.2-2.3,0.7l-18.1,14c-18.7-23.1-30.9-36.4-36.6-40l-48.3-20.5
			c-1.6-0.9-2-8.3-1.3-22.2c12.9-2.1,19-21.9,18.2-59.7c-1.7-7-5.9-13.5-12.6-19.5c-2.5-2.3-6-3.5-10.6-3.5c-0.7,0-1.4,0-2.2,0.1
			c-7.1-8.7-15.3-13.3-24.4-13.6l-0.6,0C2122,303.1,2121.5,303.1,2121,303.1L2121,303.1z M2687.3,1117.4
			C2687.3,1117.4,2687.3,1117.4,2687.3,1117.4C2687.3,1117.4,2687.4,1117.4,2687.3,1117.4
			C2687.4,1117.4,2687.3,1117.4,2687.3,1117.4C2687.3,1117.4,2687.3,1117.4,2687.3,1117.4L2687.3,1117.4z M2685.3,1117.4
			C2685.2,1117.4,2685.2,1117.4,2685.3,1117.4C2685.2,1117.4,2685.2,1117.4,2685.3,1117.4L2685.3,1117.4z M2664.8,1103.4
			C2664.8,1103.4,2664.7,1103.4,2664.8,1103.4C2664.7,1103.4,2664.7,1103.4,2664.8,1103.4L2664.8,1103.4z M2349.4,1020.7
			c0.2,0,0.4,0,0.6,0C2349.8,1020.7,2349.6,1020.7,2349.4,1020.7c-0.2,0-0.4,0-0.6,0C2349,1020.7,2349.2,1020.7,2349.4,1020.7z
			 M2331.8,744.7l144.2,157l-2.5,3l-6-6.1l-138.7-150.6l2.9-3.1L2331.8,744.7z M2491.4,889.8L2491.4,889.8L2491.4,889.8z
			 M2497.5,865.4c0.6,0,1.3,0.2,2.2,0.5h0C2498.8,865.6,2498.1,865.4,2497.5,865.4s-1,0.2-1.3,0.5
			C2496.5,865.6,2496.9,865.4,2497.5,865.4z M2565.7,865.1c2.3,0,4.5,0.1,6.7,0.3C2570.2,865.2,2567.9,865.1,2565.7,865.1
			c-2.3,0-4.6,0.1-6.9,0.3C2561.1,865.2,2563.4,865.1,2565.7,865.1z M2215.8,857.7l0.7,0l0.3,4.3l-0.3-4.3L2215.8,857.7
			L2215.8,857.7L2215.8,857.7z M2315.9,723.4l2.8,2.3l-2.3,1.5L2315.9,723.4L2315.9,723.4z"/>
		<rect x="1996.8" y="241.4" class="st4" width="892.4" height="940"/>
		<circle class="st5" cx="2342.2" cy="735.9" r="622.4"/>
	</g>
</g>
</svg>
