<?xml version="1.0" encoding="utf-8"?>
<!-- Generator: Adobe Illustrator 21.0.0, SVG Export Plug-In . SVG Version: 6.00 Build 0)  -->
<svg version="1.1" xmlns="http://www.w3.org/2000/svg" xmlns:xlink="http://www.w3.org/1999/xlink" x="0px" y="0px"
	 viewBox="0 0 4607.8 2639.5" style="enable-background:new 0 0 4607.8 2639.5;" xml:space="preserve">
<style type="text/css">
	.st0{display:none;}
	.st1{display:none;fill:#42FCE1;}
	.st2{fill:#42FCE1;}
	.st3{fill:#FFFFFF;}
	.st4{fill-rule:evenodd;clip-rule:evenodd;fill:none;}
	.st5{fill:none;}
</style>
<g id="Layer_2" class="st0">
</g>
<g id="Layer_1">
	<g>
		<circle class="st2" cx="2298.9" cy="889.7" r="622.4"/>
		<path class="st3" d="M2077.6,456.9c-6.5,0-16.8,6.3-30.8,19c-6.3,5.7-10.1,12.9-11.3,21.6c-1.5,7.7-1.8,23.2-0.7,46.5
			c0.3,0.7,0.6,1,0.9,1c0.5,0,1.1-0.9,1.8-2.6c0.7,7.6,2.2,13.4,4.6,17.4c8.5,17.3,14.4,26,17.6,26c0.3,0,0.5-0.1,0.8-0.2l2.9,12.4
			l-21.1,13.6c-2.2,1.7-3.9,4.8-5.1,9.3c-2.3,16.3-1.2,34.2,3.2,53.5l-2.9,28.6c-9.9-7.2-18.8-16.6-26.7-28.1l1.3-5.6
			c-0.9-1.4-2.9-2.8-6-4.3c-0.2-8.7-1.4-14.9-3.7-18.6c-1.8-3.2-6.3-5.1-13.6-5.5l-12.8-19.5l-20.8,1.7c-0.1,0-0.2,0-0.3,0
			c-1.1,0-1.6,0.6-1.5,1.9l7.4,13.9c-4.6,4.6-6.3,7.5-5.3,8.7c0.2,2.2,2.8,5.4,7.8,9.6l-2.4,8.5c1,2.1,2.5,3.3,4.6,3.6
			c-0.3,3.8,0.1,6.4,1.2,7.8l9.9,11.2l18.9,3.6l24.8,43.7c4.5,6.5,10.5,12.9,18.1,19.1c8,6.4,14.1,9.5,18.4,9.5
			c1.2,0,2.2-0.2,3.1-0.7c11.6-6.8,17.3-17.8,17.1-33.1h0l9.8,3c2,2.5,4.1,7.3,6.5,14.3c7.6,22.2,11.3,36.6,11,43.1
			c1.3,3.5,2.7,5.4,4.3,5.8l18.4,57.1c-5.5,18.9-9.8,56.3-12.7,112.2c-1.1,27.6-1.3,44.6-0.6,51.3l7.4,35.5l-3.7,31.6
			c1.3,32.4,1.4,53.2,0.4,62.4c-0.6,11.9-2.6,25.5-6,40.7c-0.6,0.9,0.1,2.1,1.9,3.5l-6,12.8c-1.4-0.2-2.5-0.4-3.4-0.4
			c-1.5,0-2.2,0.4-2,1.1c-11.1,14.5-19.6,24.3-25.4,29.4c-5.7,5.9-13.8,8.8-24.3,8.8c-1.2,0-2.4,0-3.7-0.1c-2.5,1.3-4,4.6-4.6,9.8
			c-0.4,7.3,1.1,12.6,4.5,15.9c18.8,2.3,31.8,3.5,38.8,3.5c0.1,0,0.2,0,0.3,0c0.5,0,0.9,0,1.3,0c7.2,0,12.7-0.8,16.4-2.3l20.6-12.5
			l1,14l1.4,0.7l37.5-0.7c0.2,0.1,0.5,0.1,0.7,0.1c0.9,0,1.4-0.5,1.6-1.6c-1.4-10.6-1.1-25.5,0.7-44.7c0.6-2.6-2.4-8-9-16.2
			c-1.1-2.2-1.6-5.8-1.4-11c1.2-30.1,8.3-65.3,21.3-105.7l-3.4-66c8.5,13.4,24.6,30.3,48.2,50.7l15.6,20.7l38,43.4l25.3,35.5
			l3.9,1.3l12.2,20c-2.4,3.7-2.9,5.6-1.3,5.6c0,0,0,0,0,0c15.5,15.4,24.1,25.7,25.8,30.9c2.3,2.9,0.8,10.5-4.5,22.7
			c-0.1,2.9,1.5,6.2,4.9,9.7c3.8,2.1,7.5,3.1,11,3.1c11.6,0,21.3-11.2,29.1-33.5c5.2-6.7,2-20.6-9.6-41.6l16.9,0.3l4.7-37.9
			l-39.4-10.4l-17.8,0.8l-5.8-5.3c-4.9-3.6-19.2-29-43.2-76.2c-35.3-34-52.1-53.5-50.4-58.5l-13.3-117c15.5-20.9,20.5-41.2,15-60.8
			l8,18.6c-1.6,8.4-1.4,14.7,0.4,18.8l11.3,16.6c1.3,3.3,1,8.5-1.1,15.5l1-0.4l-0.2,1.1c0.2,0,0.3,0,0.5,0c2.7,0,5.8,1.1,9.5,3.2
			l23.8,24.5c41.5,49,82.6,94.9,123.1,137.5l3.8,4.9c-2.9,6.3-3.3,11.9-1.2,16.8c1.5,4.4,4.5,9.2,9.1,14.4l108,104.1l36.7,46.1
			c0.1,0.7,0.5,1,1.2,1c0.6,0,1.5-0.3,2.5-0.8c0.4,4.4,2.4,8,5.8,10.8c2.6,2.4,6.1,3.6,10.8,3.6c0.7,0,1.4,0,2.1-0.1
			c4.3-0.3,8-2.8,11-7.7c6.5,0.8,11.2,1.3,14.2,1.3c2.4,0,3.6-0.3,3.7-0.8c3.2,9.8,8.7,14.7,16.4,14.7c2.3,0,4.8-0.4,7.4-1.3
			l51.6-50.6l4.1,0.1l16.4-18.6c0.2-1.3-0.4-1.9-1.6-1.9c-0.1,0-0.2,0-0.2,0l-15.9-3l-2.2-5.9c6.7-6,8.6-10.7,5.6-14.1
			c-7.6-12.2-15.5-22.4-23.6-30.6c-10.3-11.5-53.5-52.1-129.8-121.9c-9.9-6.2-20.5-9.3-31.9-9.3c-13.9,0-28.8,4.6-44.8,13.8
			c-12.2-9.2-20-13.8-23.4-13.8c-0.9,0-1.5,0.3-1.8,0.9c-4.8,1.3-8.6,5.2-11.5,11.9c-1.5,3.5-0.1,8.4,4.4,14.5
			c0.3,0.4-0.6,1.5-2.6,3.3l-139.7-149.7l0.3-4l-10.5-11.3c2.2-8.6,1.8-14.7-1-18.5c-14.9-13.2-22.5-21.5-22.8-24.8
			c-2.5-5.1-5.7-15.9-9.4-32.2c25.3-20.2,38.3-37.1,39-50.6c0.9-5.4-0.4-12.7-3.7-21.8l-23.3-47.7c-18.7-23.6-36.3-40-53-49
			c7.8-5.4,9.3-10.3,4.6-14.8c-2-1-3.6-1.5-4.9-1.5c-0.9,0-1.7,0.2-2.3,0.7l-18.1,14c-18.7-23.1-30.9-36.4-36.6-40l-48.3-20.5
			c-1.6-0.9-2-8.3-1.3-22.2c12.9-2.1,19-21.9,18.2-59.7c-1.7-7-5.9-13.5-12.6-19.5c-2.5-2.3-6-3.5-10.6-3.5c-0.7,0-1.4,0-2.2,0.1
			c-7.1-8.7-15.3-13.3-24.4-13.6l-0.6,0C2078.7,456.9,2078.2,456.9,2077.6,456.9L2077.6,456.9z M2644,1271.3
			C2644,1271.3,2644,1271.3,2644,1271.3C2644,1271.3,2644,1271.3,2644,1271.3C2644,1271.3,2644,1271.3,2644,1271.3
			C2644,1271.3,2644,1271.3,2644,1271.3L2644,1271.3z M2641.9,1271.2C2641.9,1271.2,2641.9,1271.2,2641.9,1271.2
			C2641.8,1271.2,2641.8,1271.2,2641.9,1271.2L2641.9,1271.2z M2621.4,1257.2C2621.4,1257.2,2621.4,1257.2,2621.4,1257.2
			C2621.4,1257.2,2621.4,1257.2,2621.4,1257.2L2621.4,1257.2z M2306.1,1174.5c0.2,0,0.4,0,0.6,0
			C2306.5,1174.5,2306.3,1174.5,2306.1,1174.5c-0.2,0-0.4,0-0.6,0C2305.7,1174.5,2305.9,1174.5,2306.1,1174.5z M2288.4,898.5
			l144.2,157l-2.5,3l-6-6.1l-138.7-150.6l2.9-3.1L2288.4,898.5z M2448.1,1043.6L2448.1,1043.6L2448.1,1043.6z M2454.2,1019.2
			c0.6,0,1.3,0.2,2.2,0.5h0C2455.5,1019.4,2454.8,1019.2,2454.2,1019.2c-0.6,0-1,0.2-1.3,0.5
			C2453.2,1019.4,2453.6,1019.2,2454.2,1019.2z M2522.4,1018.9c2.3,0,4.5,0.1,6.7,0.3C2526.8,1019,2524.6,1018.9,2522.4,1018.9
			c-2.3,0-4.6,0.1-6.9,0.3C2517.8,1019,2520.1,1018.9,2522.4,1018.9z M2172.5,1011.5l0.7,0l0.3,4.3l-0.3-4.3L2172.5,1011.5
			L2172.5,1011.5L2172.5,1011.5z M2272.5,877.2l2.8,2.3l-2.3,1.5L2272.5,877.2L2272.5,877.2z"/>
		<rect x="1953.5" y="395.2" class="st4" width="892.4" height="940"/>
		<circle class="st5" cx="2298.9" cy="889.7" r="622.4"/>
	</g>
	<g>
		<path class="st2" d="M1002.8,1527.4c2.7-5.2,7.4-8.8,14.2-11c6.8-2.1,15.8-3.2,27-3.2c11.2,0,20.2,1.1,27,3.2
			c6.8,2.1,11.5,5.9,14.2,11.2c2.7,5.4,4.3,10.1,4.8,14.2c0.5,4.1,0.8,10.3,0.8,18.5v319.4c0,8.2-0.3,14.4-0.8,18.5
			c-0.5,4.1-2.2,8.7-5.1,13.6c-5.3,9.6-20.4,14.4-45.2,14.4c-24.8,0-38.6-8.7-41.5-26.2c-15,17.1-35.8,25.7-62.6,25.7
			c-32.1,0-61.3-14-87.7-42c-26.4-28-39.6-60.6-39.6-97.9c0-37.3,13.3-70,39.9-98.2c26.6-28.2,55.7-42.3,87.5-42.3
			c26.4,0,46.9,8.9,61.5,26.8v-112.3c0-8.2,0.3-14.4,0.8-18.5C998.5,1537.2,1000.1,1532.5,1002.8,1527.4z M915.8,1818.1
			c9.3,9.6,20.5,14.4,33.7,14.4c13.2,0,24.2-4.8,32.9-14.4c8.7-9.6,13.1-20.2,13.1-31.8c0-11.6-4.2-22.4-12.6-32.4
			c-8.4-10-19.7-15-34-15c-14.3,0-25.7,4.9-34.2,14.7c-8.6,9.8-12.8,20.6-12.8,32.4C901.9,1797.8,906.6,1808.5,915.8,1818.1z"/>
		<path class="st2" d="M1153.6,1646.4c6.6-2.1,15.4-3.2,26.5-3.2c11.1,0,19.8,1.1,26.2,3.2c6.4,2.1,11,5.8,13.6,11
			c2.7,5.2,4.3,9.8,4.8,13.9c0.5,4.1,0.8,10.3,0.8,18.5v220.4c0,41.7-14.4,75.1-43.3,100c-28.9,25-60.6,37.5-95.2,37.5
			c-8.2,0-14.3-0.3-18.2-0.8c-3.9-0.5-8.4-2.1-13.4-4.5c-9.3-5-13.9-18-13.9-39.1c0-21,3.8-34.2,11.5-39.6c7.7-5.3,18-8,31-8
			c13,0,24.5-3.6,34.5-10.7c10-7.1,15-20,15-38.5V1686c0-12.5,1.7-21.7,5.1-27.6C1142.1,1652.6,1147,1648.5,1153.6,1646.4z
			 M1205.5,1602.8c-6.6,2-15.4,2.9-26.5,2.9c-11.1,0-19.8-1.1-26.2-3.2s-11-5.8-13.6-11c-2.7-5.2-4.3-9.8-4.8-13.9
			c-0.5-4.1-0.8-10.2-0.8-18.5c0-8.2,0.3-14.3,0.8-18.2c0.5-3.9,2-8.4,4.5-13.4c5-9.3,18.7-13.9,41.2-13.9
			c21.4,0,34.8,4.6,40.1,13.9c2.5,4.6,4,8.9,4.5,12.8c0.5,3.9,0.8,9.8,0.8,17.7v3.2c0,7.8-0.3,13.7-0.8,17.7
			c-0.5,3.9-2.2,8.4-5.1,13.4C1216.9,1597.4,1212.1,1600.9,1205.5,1602.8z"/>
		<path class="st2" d="M1451.4,1674.8c2.1-20,16.2-30,42.3-30c13.9,0,24.3,1.1,31,3.2c6.8,2.1,11.5,5.9,14.2,11.2s4.3,10.1,4.8,14.2
			c0.5,4.1,0.8,10.3,0.8,18.5v187.3c0,8.2-0.3,14.4-0.8,18.5c-0.5,4.1-2.1,8.8-4.5,14.2c-5,9.3-17.2,13.9-36.6,13.9
			c-19.4,0-32.5-2.4-39.1-7.2c-6.6-4.8-10.4-11.9-11.5-21.1c-13.2,18.9-35.2,28.4-66.1,28.4c-30.9,0-59.5-14.1-85.9-42.3
			c-26.4-28.2-39.6-60.9-39.6-98.2c0-37.3,13.3-69.9,39.9-97.9c26.6-28,55.7-42,87.5-42c12.1,0,23.2,2.1,33.2,6.4
			c10,4.3,16.9,8.3,20.9,12C1445.7,1667.5,1448.9,1671.2,1451.4,1674.8z M1354,1786c0,11.8,4.6,22.4,13.9,31.8
			c9.3,9.5,20.5,14.2,33.7,14.2c13.2,0,24.2-4.8,32.9-14.4c8.7-9.6,13.1-20.2,13.1-31.8c0-11.6-4.2-22.4-12.6-32.4
			c-8.4-10-19.6-15-33.7-15c-14.1,0-25.5,5-34.2,15C1358.4,1763.4,1354,1774.3,1354,1786z"/>
		<path class="st2" d="M1587.3,1559.2c0-8.2,0.3-14.4,0.8-18.5c0.5-4.1,2-8.8,4.5-14.2c5-9.6,18.9-14.4,41.7-14.4
			c21.8,0,35.3,4.8,40.7,14.4c2.9,5.3,4.5,10.2,5.1,14.4c0.5,4.3,0.8,10.5,0.8,18.7v247.7c0,12.8,1.1,21,3.2,24.3
			c2.1,3.4,6.9,5.1,14.2,5.1c7.3,0,12.2,0.3,14.7,0.8c2.5,0.5,5.5,2.1,9.1,4.5c7.1,4.6,10.7,17.3,10.7,38c0,22.5-3.6,36.2-10.7,41.2
			c-9.3,6.4-31.4,7.5-66.3,3.2c-27.5-3.6-45.3-12.7-53.5-27.3c-10-17.5-15-45.3-15-83.5V1559.2z"/>
		<path class="st2" d="M1945.2,1674.8c2.1-20,16.2-30,42.3-30c13.9,0,24.3,1.1,31,3.2c6.8,2.1,11.5,5.9,14.2,11.2s4.3,10.1,4.8,14.2
			c0.5,4.1,0.8,10.3,0.8,18.5v187.3c0,8.2-0.3,14.4-0.8,18.5c-0.5,4.1-2.1,8.8-4.5,14.2c-5,9.3-17.2,13.9-36.6,13.9
			c-19.4,0-32.5-2.4-39.1-7.2c-6.6-4.8-10.4-11.9-11.5-21.1c-13.2,18.9-35.2,28.4-66.1,28.4c-30.9,0-59.5-14.1-85.9-42.3
			c-26.4-28.2-39.6-60.9-39.6-98.2c0-37.3,13.3-69.9,39.9-97.9c26.6-28,55.7-42,87.5-42c12.1,0,23.2,2.1,33.2,6.4
			c10,4.3,16.9,8.3,20.9,12C1939.5,1667.5,1942.7,1671.2,1945.2,1674.8z M1847.8,1786c0,11.8,4.6,22.4,13.9,31.8
			c9.3,9.5,20.5,14.2,33.7,14.2c13.2,0,24.2-4.8,32.9-14.4c8.7-9.6,13.1-20.2,13.1-31.8c0-11.6-4.2-22.4-12.6-32.4
			c-8.4-10-19.6-15-33.7-15c-14.1,0-25.5,5-34.2,15C1852.2,1763.4,1847.8,1774.3,1847.8,1786z"/>
		<path class="st2" d="M2237.8,1644.8c35.7,0,65.4,13.6,89.1,40.9c23.7,27.3,35.6,60.5,35.6,99.8v94.2c0,8.2-0.3,14.4-0.8,18.5
			c-0.5,4.1-2.1,8.7-4.5,13.6c-5,9.6-18.9,14.4-41.7,14.4c-25.3,0-40-6.6-43.9-19.8c-2.1-6.1-3.2-15.2-3.2-27.3V1785
			c0-14.6-4.2-26-12.6-34.2c-8.4-8.2-19.6-12.3-33.7-12.3c-14.1,0-25.5,4.3-34.2,12.8c-8.7,8.6-13.1,19.8-13.1,33.7v94.7
			c0,8.2-0.3,14.4-0.8,18.5c-0.5,4.1-2.2,8.7-5.1,13.6c-4.6,9.6-18.4,14.4-41.2,14.4c-22.5,0-36.2-4.8-41.2-14.4
			c-2.5-5.3-4-10.1-4.5-14.2c-0.5-4.1-0.8-10.2-0.8-18.5v-189.4c0-7.8,0.3-13.8,0.8-17.9c0.5-4.1,2.2-8.6,5.1-13.6
			c5-8.9,18.7-13.4,41.2-13.4c21.8,0,35.1,4.1,40.1,12.3c3.6,6.1,5.3,13.4,5.3,21.9c1.4-2.5,4.6-6.1,9.6-10.7
			c5-4.6,9.8-8.4,14.4-11.2C2209.8,1648.9,2223.2,1644.8,2237.8,1644.8z"/>
		<path class="st2" d="M2594.4,1527.4c2.7-5.2,7.4-8.8,14.2-11c6.8-2.1,15.8-3.2,27-3.2c11.2,0,20.2,1.1,27,3.2
			c6.8,2.1,11.5,5.9,14.2,11.2c2.7,5.4,4.3,10.1,4.8,14.2c0.5,4.1,0.8,10.3,0.8,18.5v319.4c0,8.2-0.3,14.4-0.8,18.5
			c-0.5,4.1-2.2,8.7-5.1,13.6c-5.3,9.6-20.4,14.4-45.2,14.4c-24.8,0-38.6-8.7-41.5-26.2c-15,17.1-35.8,25.7-62.6,25.7
			c-32.1,0-61.3-14-87.7-42c-26.4-28-39.6-60.6-39.6-97.9c0-37.3,13.3-70,39.9-98.2c26.6-28.2,55.7-42.3,87.5-42.3
			c26.4,0,46.9,8.9,61.5,26.8v-112.3c0-8.2,0.3-14.4,0.8-18.5C2590.1,1537.2,2591.7,1532.5,2594.4,1527.4z M2507.4,1818.1
			c9.3,9.6,20.5,14.4,33.7,14.4c13.2,0,24.2-4.8,32.9-14.4c8.7-9.6,13.1-20.2,13.1-31.8c0-11.6-4.2-22.4-12.6-32.4
			c-8.4-10-19.7-15-34-15c-14.3,0-25.7,4.9-34.2,14.7c-8.6,9.8-12.8,20.6-12.8,32.4C2493.5,1797.8,2498.2,1808.5,2507.4,1818.1z"/>
		<path class="st2" d="M2745.3,1646.4c6.6-2.1,15.4-3.2,26.5-3.2c11.1,0,19.8,1.1,26.2,3.2c6.4,2.1,11,5.8,13.6,11
			c2.7,5.2,4.3,9.8,4.8,13.9c0.5,4.1,0.8,10.3,0.8,18.5v220.4c0,41.7-14.4,75.1-43.3,100c-28.9,25-60.6,37.5-95.2,37.5
			c-8.2,0-14.3-0.3-18.2-0.8c-3.9-0.5-8.4-2.1-13.4-4.5c-9.3-5-13.9-18-13.9-39.1c0-21,3.8-34.2,11.5-39.6c7.7-5.3,18-8,31-8
			c13,0,24.5-3.6,34.5-10.7c10-7.1,15-20,15-38.5V1686c0-12.5,1.7-21.7,5.1-27.6C2733.7,1652.6,2738.6,1648.5,2745.3,1646.4z
			 M2797.1,1602.8c-6.6,2-15.4,2.9-26.5,2.9c-11.1,0-19.8-1.1-26.2-3.2s-11-5.8-13.6-11c-2.7-5.2-4.3-9.8-4.8-13.9
			c-0.5-4.1-0.8-10.2-0.8-18.5c0-8.2,0.3-14.3,0.8-18.2c0.5-3.9,2-8.4,4.5-13.4c5-9.3,18.7-13.9,41.2-13.9
			c21.4,0,34.8,4.6,40.1,13.9c2.5,4.6,4,8.9,4.5,12.8c0.5,3.9,0.8,9.8,0.8,17.7v3.2c0,7.8-0.3,13.7-0.8,17.7
			c-0.5,3.9-2.2,8.4-5.1,13.4C2808.5,1597.4,2803.7,1600.9,2797.1,1602.8z"/>
		<path class="st2" d="M3043,1674.8c2.1-20,16.2-30,42.3-30c13.9,0,24.3,1.1,31,3.2c6.8,2.1,11.5,5.9,14.2,11.2s4.3,10.1,4.8,14.2
			c0.5,4.1,0.8,10.3,0.8,18.5v187.3c0,8.2-0.3,14.4-0.8,18.5c-0.5,4.1-2.1,8.8-4.5,14.2c-5,9.3-17.2,13.9-36.6,13.9
			c-19.4,0-32.5-2.4-39.1-7.2c-6.6-4.8-10.4-11.9-11.5-21.1c-13.2,18.9-35.2,28.4-66.1,28.4c-30.9,0-59.5-14.1-85.9-42.3
			c-26.4-28.2-39.6-60.9-39.6-98.2c0-37.3,13.3-69.9,39.9-97.9c26.6-28,55.7-42,87.5-42c12.1,0,23.2,2.1,33.2,6.4
			c10,4.3,16.9,8.3,20.9,12C3037.3,1667.5,3040.5,1671.2,3043,1674.8z M2945.6,1786c0,11.8,4.6,22.4,13.9,31.8
			c9.3,9.5,20.5,14.2,33.7,14.2c13.2,0,24.2-4.8,32.9-14.4c8.7-9.6,13.1-20.2,13.1-31.8c0-11.6-4.2-22.4-12.6-32.4
			c-8.4-10-19.6-15-33.7-15c-14.1,0-25.5,5-34.2,15C2950,1763.4,2945.6,1774.3,2945.6,1786z"/>
		<path class="st2" d="M3178.9,1559.2c0-8.2,0.3-14.4,0.8-18.5c0.5-4.1,2-8.8,4.5-14.2c5-9.6,18.9-14.4,41.7-14.4
			c21.8,0,35.3,4.8,40.7,14.4c2.9,5.3,4.5,10.2,5.1,14.4c0.5,4.3,0.8,10.5,0.8,18.7v247.7c0,12.8,1.1,21,3.2,24.3
			c2.1,3.4,6.9,5.1,14.2,5.1c7.3,0,12.2,0.3,14.7,0.8c2.5,0.5,5.5,2.1,9.1,4.5c7.1,4.6,10.7,17.3,10.7,38c0,22.5-3.6,36.2-10.7,41.2
			c-9.3,6.4-31.4,7.5-66.3,3.2c-27.5-3.6-45.3-12.7-53.5-27.3c-10-17.5-15-45.3-15-83.5V1559.2z"/>
		<path class="st2" d="M3536.8,1674.8c2.1-20,16.2-30,42.3-30c13.9,0,24.3,1.1,31,3.2c6.8,2.1,11.5,5.9,14.2,11.2s4.3,10.1,4.8,14.2
			c0.5,4.1,0.8,10.3,0.8,18.5v187.3c0,8.2-0.3,14.4-0.8,18.5c-0.5,4.1-2.1,8.8-4.5,14.2c-5,9.3-17.2,13.9-36.6,13.9
			c-19.4,0-32.5-2.4-39.1-7.2c-6.6-4.8-10.4-11.9-11.5-21.1c-13.2,18.9-35.2,28.4-66.1,28.4c-30.9,0-59.5-14.1-85.9-42.3
			c-26.4-28.2-39.6-60.9-39.6-98.2c0-37.3,13.3-69.9,39.9-97.9c26.6-28,55.7-42,87.5-42c12.1,0,23.2,2.1,33.2,6.4
			c10,4.3,16.9,8.3,20.9,12C3531.1,1667.5,3534.3,1671.2,3536.8,1674.8z M3439.4,1786c0,11.8,4.6,22.4,13.9,31.8
			c9.3,9.5,20.5,14.2,33.7,14.2c13.2,0,24.2-4.8,32.9-14.4c8.7-9.6,13.1-20.2,13.1-31.8c0-11.6-4.2-22.4-12.6-32.4
			c-8.4-10-19.6-15-33.7-15c-14.1,0-25.5,5-34.2,15C3443.8,1763.4,3439.4,1774.3,3439.4,1786z"/>
		<path class="st2" d="M3829.4,1644.8c35.7,0,65.4,13.6,89.1,40.9c23.7,27.3,35.6,60.5,35.6,99.8v94.2c0,8.2-0.3,14.4-0.8,18.5
			c-0.5,4.1-2.1,8.7-4.5,13.6c-5,9.6-18.9,14.4-41.7,14.4c-25.3,0-40-6.6-43.9-19.8c-2.1-6.1-3.2-15.2-3.2-27.3V1785
			c0-14.6-4.2-26-12.6-34.2c-8.4-8.2-19.6-12.3-33.7-12.3c-14.1,0-25.5,4.3-34.2,12.8c-8.7,8.6-13.1,19.8-13.1,33.7v94.7
			c0,8.2-0.3,14.4-0.8,18.5c-0.5,4.1-2.2,8.7-5.1,13.6c-4.6,9.6-18.4,14.4-41.2,14.4c-22.5,0-36.2-4.8-41.2-14.4
			c-2.5-5.3-4-10.1-4.5-14.2c-0.5-4.1-0.8-10.2-0.8-18.5v-189.4c0-7.8,0.3-13.8,0.8-17.9c0.5-4.1,2.2-8.6,5.1-13.6
			c5-8.9,18.7-13.4,41.2-13.4c21.8,0,35.1,4.1,40.1,12.3c3.6,6.1,5.3,13.4,5.3,21.9c1.4-2.5,4.6-6.1,9.6-10.7
			c5-4.6,9.8-8.4,14.4-11.2C3801.4,1648.9,3814.8,1644.8,3829.4,1644.8z"/>
	</g>
	<g>
		<path class="st2" d="M820.6,2112.5h77.8c3,0,5.2,0.3,6.6,1c1.4,0.7,2.3,1.8,2.8,3.3c0.5,1.5,0.7,3.5,0.7,5.9
			c0,2.4-0.2,4.4-0.7,5.8c-0.5,1.4-1.3,2.5-2.4,3c-1.7,0.8-4.1,1.3-7.1,1.3h-26.7v70.4c0,2.1-0.1,3.7-0.2,4.8
			c-0.1,1-0.6,2.2-1.3,3.6c-0.7,1.4-1.9,2.3-3.7,2.9c-1.8,0.6-4.1,0.8-7,0.8c-2.9,0-5.2-0.3-6.9-0.8c-1.7-0.6-2.9-1.5-3.6-2.9
			c-0.7-1.4-1.1-2.6-1.3-3.6c-0.1-1.1-0.2-2.7-0.2-4.8v-70.3h-26.9c-3,0-5.2-0.3-6.6-1c-1.4-0.7-2.3-1.8-2.8-3.3
			c-0.5-1.5-0.7-3.5-0.7-5.9c0-2.4,0.2-4.4,0.7-5.8c0.5-1.4,1.3-2.5,2.4-3C815.2,2112.9,817.5,2112.5,820.6,2112.5z"/>
		<path class="st2" d="M949.6,2142.3c1.8,0.6,3.2,1.5,4.4,2.9c1.2,1.4,1.8,3.5,1.8,6.5c0,3-0.9,6.3-2.7,9.8
			c-1.8,3.5-4.3,5.3-7.7,5.3c-1.7,0-3.3-0.4-4.8-1.1c-1.5-0.7-3.6-1.1-6.1-1.1c-2.5,0-4.9,0.9-7.1,2.7c-2.2,1.8-3.3,3.9-3.3,6.4
			v29.4c0,2.1-0.1,3.8-0.2,4.8c-0.1,1.1-0.6,2.3-1.3,3.7c-1.4,2.4-5,3.6-10.9,3.6c-4.5,0-7.7-0.8-9.7-2.4c-1.5-1.3-2.3-3.3-2.5-6
			c0-0.9,0-2.3,0-4.1v-49.1c0-2.1,0.1-3.8,0.2-4.8c0.1-1.1,0.5-2.3,1.2-3.6c1.3-2.5,4.9-3.8,10.9-3.8c5.6,0,9.1,1.1,10.5,3.2
			c1,1.5,1.5,3,1.5,4.6c0.5-0.7,1.1-1.4,2-2.4c0.9-0.9,2.8-2.2,5.7-3.8c2.9-1.6,5.4-2.4,7.6-2.4c2.2,0,4,0.1,5.5,0.4
			C946.2,2141.3,947.8,2141.7,949.6,2142.3z"/>
		<path class="st2" d="M1007.1,2149.3c0.6-5.2,4.2-7.8,11.1-7.8c3.6,0,6.3,0.3,8.1,0.8c1.8,0.6,3,1.5,3.7,2.9s1.1,2.6,1.3,3.7
			c0.1,1.1,0.2,2.7,0.2,4.8v49c0,2.1-0.1,3.8-0.2,4.8c-0.1,1.1-0.5,2.3-1.2,3.7c-1.3,2.4-4.5,3.6-9.6,3.6c-5.1,0-8.5-0.6-10.2-1.9
			c-1.7-1.3-2.7-3.1-3-5.5c-3.5,4.9-9.2,7.4-17.3,7.4c-8.1,0-15.6-3.7-22.5-11.1c-6.9-7.4-10.4-15.9-10.4-25.7
			c0-9.8,3.5-18.3,10.4-25.6c7-7.3,14.6-11,22.9-11c3.2,0,6.1,0.6,8.7,1.7c2.6,1.1,4.4,2.2,5.5,3.2
			C1005.6,2147.4,1006.5,2148.3,1007.1,2149.3z M981.6,2178.4c0,3.1,1.2,5.9,3.6,8.3c2.4,2.5,5.4,3.7,8.8,3.7c3.5,0,6.3-1.3,8.6-3.8
			c2.3-2.5,3.4-5.3,3.4-8.3c0-3-1.1-5.9-3.3-8.5c-2.2-2.6-5.1-3.9-8.8-3.9c-3.7,0-6.7,1.3-9,3.9
			C982.8,2172.5,981.6,2175.3,981.6,2178.4z"/>
		<path class="st2" d="M1114.9,2143.1c4.9,2.9,7.3,6,7.3,9.2c0,1.9-0.9,4.4-2.8,7.7l-29,49.7c-0.9,1.6-2.4,3-4.5,4.3
			c-2.1,1.3-4.1,1.9-6.1,1.9c-2,0-3.9-0.5-5.7-1.5c-1.8-1-3.1-2-3.8-3l-1.3-1.5l-29.1-49.8c-1.9-3.1-2.8-5.6-2.8-7.6
			c0-3.4,2.4-6.5,7.3-9.4c3.5-2.1,6.3-3.1,8.4-3.1c2.1,0,3.7,0.6,4.8,1.9c1.2,1.3,2.4,3.2,3.7,5.7l18.3,35.3l18.3-35.3
			c1-1.8,1.8-3.1,2.3-3.8c0.5-0.8,1.3-1.6,2.5-2.4c1.1-0.8,2.6-1.2,4.5-1.2C1109.1,2140.2,1111.6,2141.2,1114.9,2143.1z"/>
		<path class="st2" d="M1196.8,2169.5c0,5.7-1.4,10-4.3,12.7c-2.8,2.8-6,4.1-9.5,4.1h-33.2c0,2.6,1.5,4.8,4.6,6.6
			c3.1,1.8,6.2,2.7,9.2,2.7c5.4,0,9.7-0.6,12.7-1.7l1.5-0.6c2.2-1,4.1-1.5,5.6-1.5c3,0,5.6,2.1,7.7,6.3c1.2,2.5,1.8,4.7,1.8,6.4
			c0,8.3-9.9,12.5-29.8,12.5c-6.9,0-13-1.2-18.4-3.6c-5.4-2.4-9.5-5.5-12.5-9.5c-5.9-7.6-8.8-16-8.8-25.3c0-11.8,3.8-21.2,11.4-28.2
			c7.6-7,17.1-10.6,28.5-10.6c13,0,22.5,4.6,28.6,13.7C1195.2,2158.5,1196.8,2163.8,1196.8,2169.5z M1167.3,2173.6
			c3.5,0,5.3-1.5,5.3-4.5c0-2.1-0.8-3.9-2.5-5.2c-1.6-1.3-4-2-7-2c-3,0-6,1.2-9,3.7c-3,2.5-4.5,5.1-4.5,7.9H1167.3z"/>
		<path class="st2" d="M1231.7,2190.4c3.1,0,5.4,0.8,6.9,2.4c1.5,1.6,2.2,4.9,2.2,9.8c0,4.9-0.8,8.2-2.4,9.9
			c-1.6,1.6-3.9,2.5-6.9,2.5c-9.4,0-16.1-2.3-19.9-6.8c-3.8-4.5-5.7-12.1-5.7-22.6v-66.8c0-2.1,0.1-3.8,0.2-4.8
			c0.1-1.1,0.5-2.3,1.2-3.7c1.3-2.4,4.9-3.6,10.9-3.6c5.7,0,9.2,1.3,10.6,3.9c0.7,1.3,1.2,2.5,1.3,3.6c0.1,1.1,0.2,2.7,0.2,4.8v67.2
			C1230.4,2189,1230.8,2190.4,1231.7,2190.4z M1269.3,2189.6c0.7,0.6,2.7,0.8,5.7,0.8s5.6,0.8,7.7,2.4c2.1,1.6,3.1,4.9,3.1,9.8
			c0,4.9-1.1,8.2-3.3,9.9c-2.2,1.6-5.3,2.5-9.2,2.5c-19.8,0-29.7-9.8-29.7-29.4l-0.1-66.8c0-2.1,0.1-3.8,0.2-4.8
			c0.1-1.1,0.6-2.3,1.3-3.7c1.4-2.4,5-3.6,10.9-3.6c5.7,0,9.2,1.3,10.6,3.9c1,2.1,1.5,4.9,1.5,8.4v67.2
			C1268.2,2187.9,1268.6,2189,1269.3,2189.6z"/>
		<path class="st2" d="M1316.6,2127.8c-0.7,1.4-1.9,2.3-3.7,2.9c-1.8,0.6-4.1,0.8-7.1,0.8c-2.9,0-5.3-0.3-7.1-0.8
			c-1.8-0.6-3-1.5-3.7-2.9c-0.7-1.4-1.1-2.6-1.3-3.7c-0.1-1.1-0.2-2.7-0.2-4.8c0-2.1,0.1-3.8,0.2-4.8c0.1-1.1,0.5-2.3,1.2-3.6
			c1.3-2.5,4.9-3.8,10.9-3.8c5.9,0,9.4,1.3,10.6,3.8c0.7,1.4,1.2,2.6,1.3,3.7c0.1,1.1,0.2,2.7,0.2,4.8c0,2.1-0.1,3.8-0.2,4.8
			C1317.7,2125.2,1317.3,2126.4,1316.6,2127.8z M1293.5,2153.8c0-2.1,0.1-3.8,0.2-4.8c0.1-1.1,0.5-2.3,1.2-3.7
			c1.3-2.4,4.9-3.6,10.9-3.6c4.5,0,7.7,0.8,9.5,2.4c1.6,1.3,2.4,3.3,2.5,6c0.1,0.9,0.1,2.3,0.1,4.1v49c0,2.1-0.1,3.8-0.2,4.8
			c-0.1,1.1-0.6,2.3-1.3,3.7c-1.2,2.4-4.8,3.6-10.8,3.6c-5.9,0-9.5-1.3-10.8-3.8c-0.7-1.4-1-2.6-1.2-3.6c-0.1-1-0.2-2.7-0.2-4.9
			V2153.8z"/>
		<path class="st2" d="M1370.3,2141.4c9.3,0,17.1,3.6,23.3,10.7c6.2,7.1,9.3,15.8,9.3,26.1v24.6c0,2.1-0.1,3.8-0.2,4.8
			c-0.1,1.1-0.5,2.3-1.2,3.6c-1.3,2.5-4.9,3.8-10.9,3.8c-6.6,0-10.5-1.7-11.5-5.2c-0.6-1.6-0.8-4-0.8-7.1v-24.6c0-3.8-1.1-6.8-3.3-9
			c-2.2-2.1-5.1-3.2-8.8-3.2c-3.7,0-6.7,1.1-9,3.4c-2.3,2.2-3.4,5.2-3.4,8.8v24.8c0,2.1-0.1,3.8-0.2,4.8c-0.1,1.1-0.6,2.3-1.3,3.6
			c-1.2,2.5-4.8,3.8-10.8,3.8c-5.9,0-9.5-1.3-10.8-3.8c-0.7-1.4-1-2.6-1.2-3.7c-0.1-1.1-0.2-2.7-0.2-4.8v-49.6
			c0-2.1,0.1-3.6,0.2-4.7c0.1-1.1,0.6-2.3,1.3-3.6c1.3-2.3,4.9-3.5,10.8-3.5c5.7,0,9.2,1.1,10.5,3.2c0.9,1.6,1.4,3.5,1.4,5.7
			c0.4-0.7,1.2-1.6,2.5-2.8c1.3-1.2,2.6-2.2,3.8-2.9C1362.9,2142.5,1366.4,2141.4,1370.3,2141.4z"/>
		<path class="st2" d="M1460.8,2206c-3.5,4.7-9.2,7-16.9,7c-7.7,0-15-3.6-21.8-10.7c-6.8-7.1-10.2-15.5-10.2-25
			c0-9.5,3.4-17.9,10.2-25.1c6.8-7.2,14.3-10.8,22.4-10.8c3.2,0,6.1,0.6,8.7,1.8c2.6,1.2,4.4,2.2,5.4,3.2c1,1,1.8,1.9,2.3,2.7
			c0.3-2.6,1.2-4.6,2.9-6c1.6-1.4,4.3-2,7.9-2c3.6,0,6.3,0.3,8,0.8c1.7,0.6,2.9,1.5,3.6,2.9c0.7,1.4,1.1,2.5,1.3,3.6
			c0.1,1,0.2,2.6,0.2,4.8v58c0,10.7-3.7,19.4-11.2,26c-7.5,6.6-15.9,9.9-25.2,9.9c-7.1,0-13.9-1.7-20.3-5.2
			c-6.4-3.5-9.7-6.6-9.7-9.4c0-3.6,1.4-6.9,4.2-9.7c1.8-2,3.2-3.3,4.1-4.1c1-0.7,2.1-1.1,3.4-1.1c1.3,0,2.7,0.6,4.1,1.7
			c4.5,3.5,9.3,5.2,14.6,5.2c3.5,0,6.4-1.4,8.7-4.2s3.4-6.2,3.4-10.1V2206z M1435.9,2177.3c0,3,1.2,5.8,3.6,8.2
			c2.4,2.4,5.3,3.6,8.7,3.6c3.4,0,6.2-1.2,8.5-3.7c2.2-2.5,3.4-5.2,3.4-8.1c0-2.9-1.1-5.7-3.2-8.3c-2.1-2.6-5-3.9-8.7-3.9
			s-6.6,1.3-8.8,3.8C1437,2171.5,1435.9,2174.3,1435.9,2177.3z"/>
		<path class="st2" d="M1580.9,2110.7c0.7-1.4,1.9-2.3,3.7-2.9c1.8-0.6,4.1-0.8,7.1-0.8c2.9,0,5.3,0.3,7.1,0.8
			c1.8,0.6,3,1.5,3.7,2.9c0.7,1.4,1.1,2.6,1.3,3.7c0.1,1.1,0.2,2.7,0.2,4.8v83.6c0,2.1-0.1,3.8-0.2,4.8c-0.1,1.1-0.6,2.3-1.3,3.6
			c-1.4,2.5-5.3,3.8-11.8,3.8c-6.5,0-10.1-2.3-10.8-6.9c-3.9,4.5-9.4,6.7-16.4,6.7c-8.4,0-16.1-3.7-23-11
			c-6.9-7.3-10.4-15.9-10.4-25.6c0-9.8,3.5-18.3,10.4-25.7c7-7.4,14.6-11.1,22.9-11.1c6.9,0,12.3,2.3,16.1,7v-29.4
			c0-2.1,0.1-3.8,0.2-4.8C1579.8,2113.3,1580.2,2112.1,1580.9,2110.7z M1558.1,2186.8c2.4,2.5,5.4,3.8,8.8,3.8
			c3.5,0,6.3-1.3,8.6-3.8c2.3-2.5,3.4-5.3,3.4-8.3c0-3-1.1-5.9-3.3-8.5c-2.2-2.6-5.2-3.9-8.9-3.9c-3.7,0-6.7,1.3-9,3.8
			c-2.2,2.6-3.4,5.4-3.4,8.5S1555.7,2184.3,1558.1,2186.8z"/>
		<path class="st2" d="M1686.2,2169.5c0,5.7-1.4,10-4.3,12.7c-2.8,2.8-6,4.1-9.5,4.1h-33.2c0,2.6,1.5,4.8,4.6,6.6
			c3.1,1.8,6.2,2.7,9.2,2.7c5.4,0,9.7-0.6,12.7-1.7l1.5-0.6c2.2-1,4.1-1.5,5.6-1.5c3,0,5.6,2.1,7.7,6.3c1.2,2.5,1.8,4.7,1.8,6.4
			c0,8.3-9.9,12.5-29.8,12.5c-6.9,0-13-1.2-18.4-3.6c-5.4-2.4-9.5-5.5-12.5-9.5c-5.9-7.6-8.8-16-8.8-25.3c0-11.8,3.8-21.2,11.4-28.2
			c7.6-7,17.1-10.6,28.5-10.6c13,0,22.5,4.6,28.6,13.7C1684.6,2158.5,1686.2,2163.8,1686.2,2169.5z M1656.7,2173.6
			c3.5,0,5.3-1.5,5.3-4.5c0-2.1-0.8-3.9-2.5-5.2c-1.6-1.3-4-2-7-2c-3,0-6,1.2-9,3.7c-3,2.5-4.5,5.1-4.5,7.9H1656.7z"/>
		<path class="st2" d="M1736.4,2141.4c9.3,0,17.1,3.6,23.3,10.7c6.2,7.1,9.3,15.8,9.3,26.1v24.6c0,2.1-0.1,3.8-0.2,4.8
			c-0.1,1.1-0.5,2.3-1.2,3.6c-1.3,2.5-4.9,3.8-10.9,3.8c-6.6,0-10.5-1.7-11.5-5.2c-0.6-1.6-0.8-4-0.8-7.1v-24.6c0-3.8-1.1-6.8-3.3-9
			c-2.2-2.1-5.1-3.2-8.8-3.2c-3.7,0-6.7,1.1-9,3.4c-2.3,2.2-3.4,5.2-3.4,8.8v24.8c0,2.1-0.1,3.8-0.2,4.8c-0.1,1.1-0.6,2.3-1.3,3.6
			c-1.2,2.5-4.8,3.8-10.8,3.8c-5.9,0-9.5-1.3-10.8-3.8c-0.7-1.4-1-2.6-1.2-3.7c-0.1-1.1-0.2-2.7-0.2-4.8v-49.6
			c0-2.1,0.1-3.6,0.2-4.7c0.1-1.1,0.6-2.3,1.3-3.6c1.3-2.3,4.9-3.5,10.8-3.5c5.7,0,9.2,1.1,10.5,3.2c0.9,1.6,1.4,3.5,1.4,5.7
			c0.4-0.7,1.2-1.6,2.5-2.8c1.3-1.2,2.6-2.2,3.8-2.9C1729,2142.5,1732.5,2141.4,1736.4,2141.4z"/>
		<path class="st2" d="M1826.9,2206c-3.5,4.7-9.2,7-16.9,7c-7.7,0-15-3.6-21.8-10.7c-6.8-7.1-10.2-15.5-10.2-25
			c0-9.5,3.4-17.9,10.2-25.1c6.8-7.2,14.3-10.8,22.4-10.8c3.2,0,6.1,0.6,8.7,1.8c2.6,1.2,4.4,2.2,5.4,3.2c1,1,1.8,1.9,2.3,2.7
			c0.3-2.6,1.2-4.6,2.9-6c1.6-1.4,4.3-2,7.9-2c3.6,0,6.3,0.3,8,0.8c1.7,0.6,2.9,1.5,3.6,2.9c0.7,1.4,1.1,2.5,1.3,3.6
			c0.1,1,0.2,2.6,0.2,4.8v58c0,10.7-3.7,19.4-11.2,26c-7.5,6.6-15.9,9.9-25.2,9.9c-7.1,0-13.9-1.7-20.3-5.2
			c-6.4-3.5-9.7-6.6-9.7-9.4c0-3.6,1.4-6.9,4.2-9.7c1.8-2,3.2-3.3,4.1-4.1c1-0.7,2.1-1.1,3.4-1.1c1.3,0,2.7,0.6,4.1,1.7
			c4.5,3.5,9.3,5.2,14.6,5.2c3.5,0,6.4-1.4,8.7-4.2s3.4-6.2,3.4-10.1V2206z M1802,2177.3c0,3,1.2,5.8,3.6,8.2
			c2.4,2.4,5.3,3.6,8.7,3.6c3.4,0,6.2-1.2,8.5-3.7c2.2-2.5,3.4-5.2,3.4-8.1c0-2.9-1.1-5.7-3.2-8.3c-2.1-2.6-5-3.9-8.7-3.9
			s-6.6,1.3-8.8,3.8C1803.1,2171.5,1802,2174.3,1802,2177.3z"/>
		<path class="st2" d="M1910,2149.3c0.6-5.2,4.2-7.8,11.1-7.8c3.6,0,6.3,0.3,8.1,0.8c1.8,0.6,3,1.5,3.7,2.9s1.1,2.6,1.3,3.7
			c0.1,1.1,0.2,2.7,0.2,4.8v49c0,2.1-0.1,3.8-0.2,4.8c-0.1,1.1-0.5,2.3-1.2,3.7c-1.3,2.4-4.5,3.6-9.6,3.6c-5.1,0-8.5-0.6-10.2-1.9
			c-1.7-1.3-2.7-3.1-3-5.5c-3.5,4.9-9.2,7.4-17.3,7.4c-8.1,0-15.6-3.7-22.5-11.1c-6.9-7.4-10.4-15.9-10.4-25.7
			c0-9.8,3.5-18.3,10.4-25.6c7-7.3,14.6-11,22.9-11c3.2,0,6.1,0.6,8.7,1.7c2.6,1.1,4.4,2.2,5.5,3.2
			C1908.5,2147.4,1909.3,2148.3,1910,2149.3z M1884.5,2178.4c0,3.1,1.2,5.9,3.6,8.3c2.4,2.5,5.4,3.7,8.8,3.7c3.5,0,6.3-1.3,8.6-3.8
			c2.3-2.5,3.4-5.3,3.4-8.3c0-3-1.1-5.9-3.3-8.5c-2.2-2.6-5.1-3.9-8.8-3.9c-3.7,0-6.7,1.3-9,3.9
			C1885.6,2172.5,1884.5,2175.3,1884.5,2178.4z"/>
		<path class="st2" d="M1986.5,2141.4c9.3,0,17.1,3.6,23.3,10.7c6.2,7.1,9.3,15.8,9.3,26.1v24.6c0,2.1-0.1,3.8-0.2,4.8
			c-0.1,1.1-0.5,2.3-1.2,3.6c-1.3,2.5-4.9,3.8-10.9,3.8c-6.6,0-10.5-1.7-11.5-5.2c-0.6-1.6-0.8-4-0.8-7.1v-24.6c0-3.8-1.1-6.8-3.3-9
			c-2.2-2.1-5.1-3.2-8.8-3.2c-3.7,0-6.7,1.1-9,3.4c-2.3,2.2-3.4,5.2-3.4,8.8v24.8c0,2.1-0.1,3.8-0.2,4.8c-0.1,1.1-0.6,2.3-1.3,3.6
			c-1.2,2.5-4.8,3.8-10.8,3.8c-5.9,0-9.5-1.3-10.8-3.8c-0.7-1.4-1-2.6-1.2-3.7c-0.1-1.1-0.2-2.7-0.2-4.8v-49.6
			c0-2.1,0.1-3.6,0.2-4.7c0.1-1.1,0.6-2.3,1.3-3.6c1.3-2.3,4.9-3.5,10.8-3.5c5.7,0,9.2,1.1,10.5,3.2c0.9,1.6,1.4,3.5,1.4,5.7
			c0.4-0.7,1.2-1.6,2.5-2.8c1.3-1.2,2.6-2.2,3.8-2.9C1979.2,2142.5,1982.7,2141.4,1986.5,2141.4z"/>
		<path class="st2" d="M2075.4,2150.7c7.8-7.3,16.8-10.9,26.9-10.9s19,3.6,26.7,10.8c7.7,7.2,11.6,16.5,11.6,27.7
			c0,7.7-2,14.6-6,20.7c-4,6-8.9,10.5-14.6,13.3c-5.7,2.8-11.7,4.3-17.8,4.3s-12.1-1.5-17.9-4.5c-5.8-3-10.7-7.5-14.6-13.4
			c-4-5.9-6-12.6-6-20.1C2063.7,2167.2,2067.6,2158,2075.4,2150.7z M2092.9,2188.4c3,2.3,6,3.4,9.1,3.4s6.2-1.2,9.2-3.5
			c3.1-2.3,4.6-5.8,4.6-10.4c0-4.6-1.4-8-4.3-10.2c-2.9-2.2-6-3.4-9.4-3.4s-6.5,1.2-9.4,3.5c-2.9,2.3-4.3,5.8-4.3,10.3
			C2088.4,2182.7,2089.9,2186.1,2092.9,2188.4z"/>
		<path class="st2" d="M2199.9,2142.3c1.8,0.6,3.2,1.5,4.4,2.9c1.2,1.4,1.8,3.5,1.8,6.5c0,3-0.9,6.3-2.7,9.8
			c-1.8,3.5-4.3,5.3-7.7,5.3c-1.7,0-3.3-0.4-4.8-1.1c-1.5-0.7-3.6-1.1-6.1-1.1c-2.5,0-4.9,0.9-7.1,2.7c-2.2,1.8-3.3,3.9-3.3,6.4
			v29.4c0,2.1-0.1,3.8-0.2,4.8c-0.1,1.1-0.6,2.3-1.3,3.7c-1.4,2.4-5,3.6-10.9,3.6c-4.5,0-7.7-0.8-9.7-2.4c-1.5-1.3-2.3-3.3-2.5-6
			c0-0.9,0-2.3,0-4.1v-49.1c0-2.1,0.1-3.8,0.2-4.8c0.1-1.1,0.5-2.3,1.2-3.6c1.3-2.5,4.9-3.8,10.9-3.8c5.6,0,9.1,1.1,10.5,3.2
			c1,1.5,1.5,3,1.5,4.6c0.5-0.7,1.1-1.4,2-2.4c0.9-0.9,2.8-2.2,5.7-3.8c2.9-1.6,5.4-2.4,7.6-2.4c2.2,0,4,0.1,5.5,0.4
			C2196.5,2141.3,2198.1,2141.7,2199.9,2142.3z"/>
		<path class="st2" d="M2257.4,2149.3c0.6-5.2,4.2-7.8,11.1-7.8c3.6,0,6.3,0.3,8.1,0.8c1.8,0.6,3,1.5,3.7,2.9s1.1,2.6,1.3,3.7
			c0.1,1.1,0.2,2.7,0.2,4.8v49c0,2.1-0.1,3.8-0.2,4.8c-0.1,1.1-0.5,2.3-1.2,3.7c-1.3,2.4-4.5,3.6-9.6,3.6c-5.1,0-8.5-0.6-10.2-1.9
			c-1.7-1.3-2.7-3.1-3-5.5c-3.5,4.9-9.2,7.4-17.3,7.4c-8.1,0-15.6-3.7-22.5-11.1c-6.9-7.4-10.4-15.9-10.4-25.7
			c0-9.8,3.5-18.3,10.4-25.6c7-7.3,14.6-11,22.9-11c3.2,0,6.1,0.6,8.7,1.7c2.6,1.1,4.4,2.2,5.5,3.2
			C2255.9,2147.4,2256.8,2148.3,2257.4,2149.3z M2231.9,2178.4c0,3.1,1.2,5.9,3.6,8.3c2.4,2.5,5.4,3.7,8.8,3.7
			c3.5,0,6.3-1.3,8.6-3.8c2.3-2.5,3.4-5.3,3.4-8.3c0-3-1.1-5.9-3.3-8.5c-2.2-2.6-5.1-3.9-8.8-3.9c-3.7,0-6.7,1.3-9,3.9
			C2233.1,2172.5,2231.9,2175.3,2231.9,2178.4z"/>
		<path class="st2" d="M2334,2141.4c9.3,0,17.1,3.6,23.3,10.7c6.2,7.1,9.3,15.8,9.3,26.1v24.6c0,2.1-0.1,3.8-0.2,4.8
			c-0.1,1.1-0.5,2.3-1.2,3.6c-1.3,2.5-4.9,3.8-10.9,3.8c-6.6,0-10.5-1.7-11.5-5.2c-0.6-1.6-0.8-4-0.8-7.1v-24.6c0-3.8-1.1-6.8-3.3-9
			c-2.2-2.1-5.1-3.2-8.8-3.2c-3.7,0-6.7,1.1-9,3.4c-2.3,2.2-3.4,5.2-3.4,8.8v24.8c0,2.1-0.1,3.8-0.2,4.8c-0.1,1.1-0.6,2.3-1.3,3.6
			c-1.2,2.5-4.8,3.8-10.8,3.8c-5.9,0-9.5-1.3-10.8-3.8c-0.7-1.4-1-2.6-1.2-3.7c-0.1-1.1-0.2-2.7-0.2-4.8v-49.6
			c0-2.1,0.1-3.6,0.2-4.7c0.1-1.1,0.6-2.3,1.3-3.6c1.3-2.3,4.9-3.5,10.8-3.5c5.7,0,9.2,1.1,10.5,3.2c0.9,1.6,1.4,3.5,1.4,5.7
			c0.4-0.7,1.2-1.6,2.5-2.8c1.3-1.2,2.6-2.2,3.8-2.9C2326.7,2142.5,2330.2,2141.4,2334,2141.4z"/>
		<path class="st2" d="M2424.6,2206c-3.5,4.7-9.2,7-16.9,7c-7.7,0-15-3.6-21.8-10.7c-6.8-7.1-10.2-15.5-10.2-25
			c0-9.5,3.4-17.9,10.2-25.1c6.8-7.2,14.3-10.8,22.4-10.8c3.2,0,6.1,0.6,8.7,1.8c2.6,1.2,4.4,2.2,5.4,3.2c1,1,1.8,1.9,2.3,2.7
			c0.3-2.6,1.2-4.6,2.9-6c1.6-1.4,4.3-2,7.9-2c3.6,0,6.3,0.3,8,0.8c1.7,0.6,2.9,1.5,3.6,2.9c0.7,1.4,1.1,2.5,1.3,3.6
			c0.1,1,0.2,2.6,0.2,4.8v58c0,10.7-3.7,19.4-11.2,26c-7.5,6.6-15.9,9.9-25.2,9.9c-7.1,0-13.9-1.7-20.3-5.2
			c-6.4-3.5-9.7-6.6-9.7-9.4c0-3.6,1.4-6.9,4.2-9.7c1.8-2,3.2-3.3,4.1-4.1c1-0.7,2.1-1.1,3.4-1.1c1.3,0,2.7,0.6,4.1,1.7
			c4.5,3.5,9.3,5.2,14.6,5.2c3.5,0,6.4-1.4,8.7-4.2s3.4-6.2,3.4-10.1V2206z M2399.7,2177.3c0,3,1.2,5.8,3.6,8.2
			c2.4,2.4,5.3,3.6,8.7,3.6c3.4,0,6.2-1.2,8.5-3.7c2.2-2.5,3.4-5.2,3.4-8.1c0-2.9-1.1-5.7-3.2-8.3c-2.1-2.6-5-3.9-8.7-3.9
			s-6.6,1.3-8.8,3.8C2400.8,2171.5,2399.7,2174.3,2399.7,2177.3z"/>
		<path class="st2" d="M2535.6,2141.6c8.3,0,15.9,3.7,22.9,11.1c7,7.4,10.4,15.9,10.4,25.7c0,9.8-3.5,18.3-10.4,25.6
			c-6.9,7.3-14.3,11-22.3,11c-7.9,0-13.6-2.2-16.9-6.7c-0.7,4.6-4.8,6.9-12,6.9c-5.9,0-9.5-1.3-10.8-3.8c-0.7-1.4-1-2.6-1.2-3.7
			c-0.1-1.1-0.2-2.7-0.2-4.8v-83.6c0-2.1,0.1-3.8,0.2-4.8c0.1-1.1,0.5-2.3,1.2-3.6c1.3-2.5,4.9-3.8,10.9-3.8c5.9,0,9.4,1.3,10.6,3.8
			c0.7,1.4,1.2,2.6,1.3,3.7c0.1,1.1,0.2,2.7,0.2,4.8v29.1C2523.4,2143.9,2528.7,2141.6,2535.6,2141.6z M2523.3,2186.8
			c2.3,2.5,5.2,3.8,8.6,3.8c3.5,0,6.4-1.3,8.8-3.8c2.4-2.5,3.6-5.3,3.6-8.4s-1.1-5.9-3.4-8.5c-2.2-2.6-5.2-3.8-9-3.8
			c-3.7,0-6.7,1.3-8.9,3.9c-2.2,2.6-3.3,5.4-3.3,8.5C2519.9,2181.5,2521.1,2184.3,2523.3,2186.8z"/>
		<path class="st2" d="M2625.9,2149.3c0.6-5.2,4.2-7.8,11.1-7.8c3.6,0,6.3,0.3,8.1,0.8c1.8,0.6,3,1.5,3.7,2.9s1.1,2.6,1.3,3.7
			c0.1,1.1,0.2,2.7,0.2,4.8v49c0,2.1-0.1,3.8-0.2,4.8c-0.1,1.1-0.5,2.3-1.2,3.7c-1.3,2.4-4.5,3.6-9.6,3.6c-5.1,0-8.5-0.6-10.2-1.9
			c-1.7-1.3-2.7-3.1-3-5.5c-3.5,4.9-9.2,7.4-17.3,7.4c-8.1,0-15.6-3.7-22.5-11.1c-6.9-7.4-10.4-15.9-10.4-25.7
			c0-9.8,3.5-18.3,10.4-25.6c7-7.3,14.6-11,22.9-11c3.2,0,6.1,0.6,8.7,1.7c2.6,1.1,4.4,2.2,5.5,3.2
			C2624.4,2147.4,2625.2,2148.3,2625.9,2149.3z M2600.4,2178.4c0,3.1,1.2,5.9,3.6,8.3c2.4,2.5,5.4,3.7,8.8,3.7
			c3.5,0,6.3-1.3,8.6-3.8c2.3-2.5,3.4-5.3,3.4-8.3c0-3-1.1-5.9-3.3-8.5c-2.2-2.6-5.1-3.9-8.8-3.9c-3.7,0-6.7,1.3-9,3.9
			C2601.6,2172.5,2600.4,2175.3,2600.4,2178.4z"/>
		<path class="st2" d="M2711.6,2142.3c1.8,0.6,3.2,1.5,4.4,2.9c1.2,1.4,1.8,3.5,1.8,6.5c0,3-0.9,6.3-2.7,9.8
			c-1.8,3.5-4.3,5.3-7.7,5.3c-1.7,0-3.3-0.4-4.8-1.1c-1.5-0.7-3.6-1.1-6.1-1.1c-2.5,0-4.9,0.9-7.1,2.7c-2.2,1.8-3.3,3.9-3.3,6.4
			v29.4c0,2.1-0.1,3.8-0.2,4.8c-0.1,1.1-0.6,2.3-1.3,3.7c-1.4,2.4-5,3.6-10.9,3.6c-4.5,0-7.7-0.8-9.7-2.4c-1.5-1.3-2.3-3.3-2.5-6
			c0-0.9,0-2.3,0-4.1v-49.1c0-2.1,0.1-3.8,0.2-4.8c0.1-1.1,0.5-2.3,1.2-3.6c1.3-2.5,4.9-3.8,10.9-3.8c5.6,0,9.1,1.1,10.5,3.2
			c1,1.5,1.5,3,1.5,4.6c0.5-0.7,1.1-1.4,2-2.4c0.9-0.9,2.8-2.2,5.7-3.8c2.9-1.6,5.4-2.4,7.6-2.4c2.2,0,4,0.1,5.5,0.4
			C2708.2,2141.3,2709.8,2141.7,2711.6,2142.3z"/>
		<path class="st2" d="M2758.2,2214.9c-9.4,0-17.2-3.6-23.5-10.7c-6.2-7.1-9.3-15.8-9.3-26.1v-24.5c0-2.2,0.1-3.9,0.2-4.9
			c0.1-1,0.5-2.2,1.2-3.6c1.3-2.5,4.9-3.8,10.9-3.8c6.5,0,10.4,1.8,11.5,5.3c0.6,1.5,0.8,3.9,0.8,7.1v24.5c0,3.8,1.1,6.8,3.3,9
			c2.2,2.1,5.1,3.2,8.8,3.2c3.7,0,6.7-1.1,9-3.4c2.3-2.2,3.4-5.2,3.4-8.8v-24.8c0-2.1,0.1-3.8,0.2-4.8c0.1-1.1,0.6-2.3,1.3-3.7
			c1.2-2.4,4.8-3.6,10.8-3.6c5.9,0,9.5,1.3,10.8,3.8c0.7,1.4,1,2.6,1.2,3.7c0.1,1.1,0.2,2.7,0.2,4.8v49.6c0,2.1-0.1,3.6-0.2,4.7
			c-0.1,1.1-0.6,2.3-1.3,3.6c-1.4,2.4-5,3.6-10.8,3.6c-5.7,0-9.2-1.1-10.5-3.4c-0.9-1.6-1.4-3.5-1.4-5.7c-0.4,0.7-1.2,1.6-2.5,2.8
			c-1.3,1.2-2.6,2.2-3.8,3.1C2765.4,2213.9,2761.9,2214.9,2758.2,2214.9z"/>
		<path class="st2" d="M2828.9,2168.3l0.1-1.1c0-4,1.1-7.2,3.4-9.5c2.3-2.3,4.8-3.9,7.5-4.6c2.7-0.7,5.2-2,7.5-3.8
			c2.3-1.8,3.4-4.2,3.4-7.2c0-3-0.9-5.4-2.6-7.1c-1.7-1.7-4.3-2.5-7.8-2.5c-3.5,0-6,0.5-7.6,1.6c-1.6,1.1-2.6,2.2-3,3.3l-0.4,1.7
			c-0.8,2.4-1.8,4.3-2.9,5.5s-2.6,1.9-4.3,1.9c-1.8,0-4.1-0.6-7-1.7c-5.6-2.1-8.4-4.8-8.4-8c0-1.4,0.3-2.8,0.8-4.3
			c0.6-1.4,1-2.7,1.4-3.6c0.4-1,1.4-2.7,3-5.1c1.6-2.4,3.5-4.5,5.6-6.4c2.1-1.8,5.1-3.5,8.9-5c3.8-1.5,8.1-2.3,12.7-2.3
			c9.9,0,18,3.2,24.2,9.5c6.3,6.3,9.4,13.7,9.4,22.1c0,4-0.7,7.7-2.2,11.1c-1.4,3.4-3.2,6.1-5.3,8c-4.1,3.9-7.9,6.5-11.5,7.8
			l-2.2,0.7c0,1.6-0.1,2.8-0.2,3.6c-0.1,0.8-0.6,1.8-1.3,2.7c-0.7,1-1.9,1.7-3.5,2.1c-1.6,0.4-3.8,0.6-6.5,0.6
			c-2.7,0-4.9-0.2-6.5-0.7c-1.6-0.5-2.8-1.3-3.4-2.4c-0.7-1.1-1-2.1-1.2-3C2829,2171.6,2828.9,2170.2,2828.9,2168.3z M2828.3,2193.3
			c0.7-1.4,2.1-2.5,4-3.1c1.9-0.7,4.9-1,9-1c4.1,0,7.1,0.9,8.9,2.7c1.8,1.8,2.7,5.3,2.7,10.6c0,3.7-0.5,6.5-1.4,8.3
			c-0.9,1.8-2.4,3-4.3,3.6c-1.9,0.6-4.9,0.9-8.9,0.9c-4,0-7.1-1-9.2-2.9c-1.6-1.6-2.4-4.3-2.4-8.1v-2.2c0-2.1,0.1-3.8,0.2-4.9
			C2827.1,2196,2827.6,2194.8,2828.3,2193.3z"/>
		<path class="st2" d="M2954.3,2200.8c-2.4-3-3.6-5.7-3.6-8s2-5.5,6-9.5c2.3-2.2,4.8-3.4,7.4-3.4c2.6,0,6.3,2.3,10.9,7
			c1.3,1.6,3.2,3.1,5.6,4.5c2.4,1.4,4.7,2.2,6.7,2.2c8.7,0,13-3.5,13-10.6c0-2.1-1.2-3.9-3.6-5.4c-2.4-1.4-5.3-2.5-8.9-3.2
			c-3.5-0.7-7.4-1.7-11.5-3.1c-4.1-1.4-7.9-3.2-11.5-5.1c-3.5-2-6.5-5.1-8.9-9.3c-2.4-4.2-3.6-9.4-3.6-15.3c0-8.2,3.1-15.4,9.2-21.5
			c6.1-6.1,14.4-9.2,25-9.2c5.6,0,10.7,0.7,15.3,2.2c4.6,1.4,7.8,2.9,9.6,4.4l3.5,2.7c2.9,2.7,4.3,5,4.3,6.9c0,1.9-1.1,4.4-3.4,7.7
			c-3.2,4.7-6.4,7-9.8,7c-2,0-4.4-0.9-7.3-2.8c-0.3-0.2-0.8-0.7-1.6-1.4c-0.8-0.7-1.5-1.4-2.2-1.8c-2-1.2-4.5-1.8-7.5-1.8
			c-3,0-5.6,0.7-7.6,2.2c-2,1.4-3,3.5-3,6c0,2.6,1.2,4.6,3.6,6.2c2.4,1.6,5.3,2.7,8.9,3.2c3.5,0.6,7.4,1.4,11.6,2.6
			c4.2,1.2,8.1,2.6,11.6,4.3c3.5,1.7,6.5,4.6,8.9,8.8c2.4,4.2,3.6,9.3,3.6,15.3c0,6.1-1.2,11.4-3.6,16c-2.4,4.6-5.6,8.2-9.5,10.7
			c-7.6,4.9-15.6,7.4-24.2,7.4c-4.4,0-8.5-0.5-12.5-1.6s-7.1-2.4-9.5-4c-4.9-3-8.4-5.9-10.4-8.7L2954.3,2200.8z"/>
		<path class="st2" d="M3057.4,2127.8c-0.7,1.4-1.9,2.3-3.7,2.9c-1.8,0.6-4.1,0.8-7.1,0.8c-2.9,0-5.3-0.3-7.1-0.8
			c-1.8-0.6-3-1.5-3.7-2.9c-0.7-1.4-1.1-2.6-1.3-3.7c-0.1-1.1-0.2-2.7-0.2-4.8c0-2.1,0.1-3.8,0.2-4.8c0.1-1.1,0.5-2.3,1.2-3.6
			c1.3-2.5,4.9-3.8,10.9-3.8c5.9,0,9.4,1.3,10.6,3.8c0.7,1.4,1.2,2.6,1.3,3.7c0.1,1.1,0.2,2.7,0.2,4.8c0,2.1-0.1,3.8-0.2,4.8
			C3058.6,2125.2,3058.1,2126.4,3057.4,2127.8z M3034.4,2153.8c0-2.1,0.1-3.8,0.2-4.8c0.1-1.1,0.5-2.3,1.2-3.7
			c1.3-2.4,4.9-3.6,10.9-3.6c4.5,0,7.7,0.8,9.5,2.4c1.6,1.3,2.4,3.3,2.5,6c0.1,0.9,0.1,2.3,0.1,4.1v49c0,2.1-0.1,3.8-0.2,4.8
			c-0.1,1.1-0.6,2.3-1.3,3.7c-1.2,2.4-4.8,3.6-10.8,3.6c-5.9,0-9.5-1.3-10.8-3.8c-0.7-1.4-1-2.6-1.2-3.6c-0.1-1-0.2-2.7-0.2-4.9
			V2153.8z"/>
		<path class="st2" d="M3118,2149.3c0.6-5.2,4.2-7.8,11.1-7.8c3.6,0,6.3,0.3,8.1,0.8c1.8,0.6,3,1.5,3.7,2.9s1.1,2.6,1.3,3.7
			c0.1,1.1,0.2,2.7,0.2,4.8v49c0,2.1-0.1,3.8-0.2,4.8c-0.1,1.1-0.5,2.3-1.2,3.7c-1.3,2.4-4.5,3.6-9.6,3.6c-5.1,0-8.5-0.6-10.2-1.9
			c-1.7-1.3-2.7-3.1-3-5.5c-3.5,4.9-9.2,7.4-17.3,7.4c-8.1,0-15.6-3.7-22.5-11.1c-6.9-7.4-10.4-15.9-10.4-25.7
			c0-9.8,3.5-18.3,10.4-25.6c7-7.3,14.6-11,22.9-11c3.2,0,6.1,0.6,8.7,1.7c2.6,1.1,4.4,2.2,5.5,3.2
			C3116.5,2147.4,3117.3,2148.3,3118,2149.3z M3092.5,2178.4c0,3.1,1.2,5.9,3.6,8.3c2.4,2.5,5.4,3.7,8.8,3.7c3.5,0,6.3-1.3,8.6-3.8
			c2.3-2.5,3.4-5.3,3.4-8.3c0-3-1.1-5.9-3.3-8.5c-2.2-2.6-5.1-3.9-8.8-3.9c-3.7,0-6.7,1.3-9,3.9
			C3093.6,2172.5,3092.5,2175.3,3092.5,2178.4z"/>
		<path class="st2" d="M3153.5,2235.2v-81.8c0-2.1,0.1-3.7,0.2-4.8c0.1-1,0.5-2.2,1.2-3.5c1.3-2.5,4.4-3.8,9.4-3.8
			c4.9,0,8.3,0.6,10,1.9c1.7,1.3,2.7,3.1,3,5.5c3.5-4.9,9.1-7.3,16.7-7.3c7.6,0,14.8,3.6,21.6,10.8c6.8,7.2,10.2,15.5,10.2,25.1
			c0,9.5-3.4,17.9-10.2,25.1c-6.8,7.2-14,10.8-21.6,10.8c-7.7,0-13.2-2.1-16.7-6.4v28.3c0,2.1-0.1,3.7-0.2,4.8
			c-0.1,1-0.6,2.2-1.3,3.6c-0.7,1.4-1.9,2.3-3.6,2.9c-1.7,0.6-4,0.8-6.9,0.8c-2.9,0-5.2-0.3-6.9-0.8c-1.7-0.6-2.9-1.5-3.6-2.8
			c-0.7-1.3-1.1-2.5-1.3-3.5C3153.6,2239,3153.5,2237.4,3153.5,2235.2z M3181.3,2169.3c-2.1,2.5-3.2,5.3-3.2,8.3
			c0,3,1.1,5.7,3.3,8.2c2.2,2.5,5,3.7,8.4,3.7c3.4,0,6.3-1.2,8.7-3.6c2.4-2.4,3.6-5.2,3.6-8.3s-1.1-5.9-3.4-8.3
			c-2.2-2.5-5.2-3.7-8.8-3.7C3186.3,2165.5,3183.4,2166.8,3181.3,2169.3z"/>
		<path class="st2" d="M3282.9,2149.3c0.6-5.2,4.2-7.8,11.1-7.8c3.6,0,6.3,0.3,8.1,0.8c1.8,0.6,3,1.5,3.7,2.9s1.1,2.6,1.3,3.7
			c0.1,1.1,0.2,2.7,0.2,4.8v49c0,2.1-0.1,3.8-0.2,4.8c-0.1,1.1-0.5,2.3-1.2,3.7c-1.3,2.4-4.5,3.6-9.6,3.6c-5.1,0-8.5-0.6-10.2-1.9
			c-1.7-1.3-2.7-3.1-3-5.5c-3.5,4.9-9.2,7.4-17.3,7.4c-8.1,0-15.6-3.7-22.5-11.1c-6.9-7.4-10.4-15.9-10.4-25.7
			c0-9.8,3.5-18.3,10.4-25.6c7-7.3,14.6-11,22.9-11c3.2,0,6.1,0.6,8.7,1.7c2.6,1.1,4.4,2.2,5.5,3.2
			C3281.4,2147.4,3282.3,2148.3,3282.9,2149.3z M3257.4,2178.4c0,3.1,1.2,5.9,3.6,8.3c2.4,2.5,5.4,3.7,8.8,3.7
			c3.5,0,6.3-1.3,8.6-3.8c2.3-2.5,3.4-5.3,3.4-8.3c0-3-1.1-5.9-3.3-8.5c-2.2-2.6-5.1-3.9-8.8-3.9c-3.7,0-6.7,1.3-9,3.9
			C3258.6,2172.5,3257.4,2175.3,3257.4,2178.4z"/>
		<path class="st2" d="M3396.7,2166.2l-9.1-0.6v19.3c0,2.5,0.4,4.3,1.2,5.5c0.8,1.1,2.3,1.7,4.5,1.7c2.2,0,3.9,0.1,5,0.2
			c1.2,0.1,2.4,0.6,3.7,1.3c2.1,1.2,3.2,4.3,3.2,9.4c0,5.9-1.3,9.5-3.9,10.8c-1.4,0.7-2.6,1.1-3.7,1.2c-1.1,0.1-2.6,0.2-4.7,0.2
			c-9.7,0-17.1-2.2-22.1-6.6c-5-4.4-7.6-11.8-7.6-22.3v-20.7c-1.8,0.3-3.7,0.4-5.7,0.4c-2.1,0-3.8-0.8-5.1-2.4c-1.4-1.6-2-4.3-2-8.1
			c0-3.8,0.2-6.6,0.7-8.3c0.5-1.7,1.1-3,2-3.7c1.5-1.2,3.4-1.8,5.6-1.8l4.6,0.6v-14.4c0-2.1,0.1-3.7,0.2-4.8c0.1-1,0.6-2.1,1.3-3.4
			c1.2-2.3,4.8-3.5,10.8-3.5c6.3,0,10.1,1.7,11.3,5.2c0.5,1.5,0.7,3.9,0.7,7.1v13.7c4.1-0.4,7.2-0.6,9.3-0.6c2.1,0,3.7,0.1,4.8,0.2
			c1.1,0.1,2.3,0.6,3.7,1.3c2.4,1.2,3.6,4.8,3.6,10.8c0,5.9-1.3,9.5-3.8,10.8c-1.4,0.7-2.6,1.1-3.7,1.2
			C3400.5,2166.1,3398.9,2166.2,3396.7,2166.2z"/>
		<path class="st2" d="M3464.6,2149.3c0.6-5.2,4.2-7.8,11.1-7.8c3.6,0,6.3,0.3,8.1,0.8c1.8,0.6,3,1.5,3.7,2.9s1.1,2.6,1.3,3.7
			c0.1,1.1,0.2,2.7,0.2,4.8v49c0,2.1-0.1,3.8-0.2,4.8c-0.1,1.1-0.5,2.3-1.2,3.7c-1.3,2.4-4.5,3.6-9.6,3.6c-5.1,0-8.5-0.6-10.2-1.9
			c-1.7-1.3-2.7-3.1-3-5.5c-3.5,4.9-9.2,7.4-17.3,7.4c-8.1,0-15.6-3.7-22.5-11.1c-6.9-7.4-10.4-15.9-10.4-25.7
			c0-9.8,3.5-18.3,10.4-25.6c7-7.3,14.6-11,22.9-11c3.2,0,6.1,0.6,8.7,1.7c2.6,1.1,4.4,2.2,5.5,3.2
			C3463.1,2147.4,3464,2148.3,3464.6,2149.3z M3439.1,2178.4c0,3.1,1.2,5.9,3.6,8.3c2.4,2.5,5.4,3.7,8.8,3.7c3.5,0,6.3-1.3,8.6-3.8
			c2.3-2.5,3.4-5.3,3.4-8.3c0-3-1.1-5.9-3.3-8.5c-2.2-2.6-5.1-3.9-8.8-3.9c-3.7,0-6.7,1.3-9,3.9
			C3440.3,2172.5,3439.1,2175.3,3439.1,2178.4z"/>
		<path class="st2" d="M3543.6,2178.3l18.6,15.4c2.3,2,3.8,3.5,4.4,4.5c0.6,1,0.9,2,0.9,2.9c0,2.2-1.4,5.3-4.3,9.1
			c-3.2,3.9-6,5.9-8.4,5.9c-2.1,0-4.9-1.4-8.5-4.1l-1.4-1c-2.1-1.8-5.5-4.9-9.9-9.3c-4.5-4.4-7.9-7.6-10.2-9.5v10.8
			c0,2.1-0.1,3.8-0.2,4.8c-0.1,1.1-0.6,2.3-1.3,3.7c-1.2,2.4-4.8,3.6-10.8,3.6c-5.9,0-9.5-1.3-10.8-3.8c-0.7-1.4-1-2.6-1.2-3.7
			c-0.1-1.1-0.2-2.7-0.2-4.8V2119c0-2.1,0.1-3.8,0.2-4.8c0.1-1.1,0.5-2.3,1.2-3.7c1.3-2.5,4.9-3.8,10.9-3.8c4.5,0,7.7,0.8,9.5,2.4
			c1.6,1.3,2.4,3.4,2.5,6.2c0.1,0.8,0.1,2.1,0.1,3.9v44.4c1.7-1.4,4.2-3.8,7.6-7.1c3.4-3.4,5.9-5.7,7.6-7.1l1.7-1.1
			c3.3-2.5,6.1-3.8,8.4-3.8c2.3,0,5,1.9,8,5.7c3,3.8,4.5,6.7,4.5,8.9c0,2.1-1.7,4.7-5.2,7.6L3543.6,2178.3z"/>
		<path class="st2" d="M3603.8,2214.9c-9.4,0-17.2-3.6-23.5-10.7c-6.2-7.1-9.3-15.8-9.3-26.1v-24.5c0-2.2,0.1-3.9,0.2-4.9
			c0.1-1,0.5-2.2,1.2-3.6c1.3-2.5,4.9-3.8,10.9-3.8c6.5,0,10.4,1.8,11.5,5.3c0.6,1.5,0.8,3.9,0.8,7.1v24.5c0,3.8,1.1,6.8,3.3,9
			c2.2,2.1,5.1,3.2,8.8,3.2c3.7,0,6.7-1.1,9-3.4c2.3-2.2,3.4-5.2,3.4-8.8v-24.8c0-2.1,0.1-3.8,0.2-4.8c0.1-1.1,0.6-2.3,1.3-3.7
			c1.2-2.4,4.8-3.6,10.8-3.6c5.9,0,9.5,1.3,10.8,3.8c0.7,1.4,1,2.6,1.2,3.7c0.1,1.1,0.2,2.7,0.2,4.8v49.6c0,2.1-0.1,3.6-0.2,4.7
			c-0.1,1.1-0.6,2.3-1.3,3.6c-1.4,2.4-5,3.6-10.8,3.6c-5.7,0-9.2-1.1-10.5-3.4c-0.9-1.6-1.4-3.5-1.4-5.7c-0.4,0.7-1.2,1.6-2.5,2.8
			c-1.3,1.2-2.6,2.2-3.8,3.1C3611,2213.9,3607.5,2214.9,3603.8,2214.9z"/>
		<path class="st2" d="M3698.7,2166.2l-9.1-0.6v19.3c0,2.5,0.4,4.3,1.2,5.5c0.8,1.1,2.3,1.7,4.5,1.7c2.2,0,3.9,0.1,5,0.2
			c1.2,0.1,2.4,0.6,3.7,1.3c2.1,1.2,3.2,4.3,3.2,9.4c0,5.9-1.3,9.5-3.9,10.8c-1.4,0.7-2.6,1.1-3.7,1.2c-1.1,0.1-2.6,0.2-4.7,0.2
			c-9.7,0-17.1-2.2-22.1-6.6c-5-4.4-7.6-11.8-7.6-22.3v-20.7c-1.8,0.3-3.7,0.4-5.7,0.4c-2.1,0-3.8-0.8-5.1-2.4c-1.4-1.6-2-4.3-2-8.1
			c0-3.8,0.2-6.6,0.7-8.3c0.5-1.7,1.1-3,2-3.7c1.5-1.2,3.4-1.8,5.6-1.8l4.6,0.6v-14.4c0-2.1,0.1-3.7,0.2-4.8c0.1-1,0.6-2.1,1.3-3.4
			c1.2-2.3,4.8-3.5,10.8-3.5c6.3,0,10.1,1.7,11.3,5.2c0.5,1.5,0.7,3.9,0.7,7.1v13.7c4.1-0.4,7.2-0.6,9.3-0.6c2.1,0,3.7,0.1,4.8,0.2
			c1.1,0.1,2.3,0.6,3.7,1.3c2.4,1.2,3.6,4.8,3.6,10.8c0,5.9-1.3,9.5-3.8,10.8c-1.4,0.7-2.6,1.1-3.7,1.2
			C3702.5,2166.1,3700.8,2166.2,3698.7,2166.2z"/>
		<path class="st2" d="M3720.1,2193.9c0.9-1.8,2.4-3.1,4.3-3.7c1.9-0.7,4.9-1,9-1c4.1,0,7,0.9,8.8,2.7c1.8,1.8,2.7,4.6,2.7,8.4v2.2
			c0,2.2-0.1,3.9-0.2,5c-0.1,1.1-0.6,2.4-1.3,3.8c-1.5,2.7-5.1,4.1-10.7,4.1c-5.6,0-9.4-0.9-11.2-2.7s-2.7-5.3-2.7-10.6
			C3718.7,2198.4,3719.2,2195.7,3720.1,2193.9z M3738.9,2177.6c-1.8,0.5-4.2,0.7-7.1,0.7c-3,0-5.4-0.2-7.1-0.7
			c-1.8-0.5-3-1.3-3.7-2.5c-0.7-1.2-1.1-2.3-1.3-3.2c-0.1-0.9-0.2-2.4-0.2-4.3v-44.4c0-2,0.1-3.4,0.2-4.4c0.1-1,0.6-2.1,1.3-3.3
			c0.7-1.2,2-2.1,3.8-2.6c1.8-0.5,4.2-0.8,7.1-0.8c3,0,5.4,0.3,7.1,0.8c1.8,0.5,3,1.4,3.7,2.7c0.7,1.3,1.1,2.4,1.3,3.4
			c0.1,1,0.2,2.4,0.2,4.4v44.4c0,2-0.1,3.4-0.2,4.3c-0.1,0.9-0.6,2-1.3,3.1C3741.9,2176.3,3740.6,2177.1,3738.9,2177.6z"/>
		<path class="st2" d="M3757.5,2193.9c0.9-1.8,2.4-3.1,4.3-3.7c1.9-0.7,4.9-1,9-1c4.1,0,7,0.9,8.8,2.7c1.8,1.8,2.7,4.6,2.7,8.4v2.2
			c0,2.2-0.1,3.9-0.2,5c-0.1,1.1-0.6,2.4-1.3,3.8c-1.5,2.7-5.1,4.1-10.7,4.1c-5.6,0-9.4-0.9-11.2-2.7s-2.7-5.3-2.7-10.6
			C3756.1,2198.4,3756.6,2195.7,3757.5,2193.9z M3776.3,2177.6c-1.8,0.5-4.2,0.7-7.1,0.7c-3,0-5.4-0.2-7.1-0.7
			c-1.8-0.5-3-1.3-3.7-2.5c-0.7-1.2-1.1-2.3-1.3-3.2c-0.1-0.9-0.2-2.4-0.2-4.3v-44.4c0-2,0.1-3.4,0.2-4.4c0.1-1,0.6-2.1,1.3-3.3
			c0.7-1.2,2-2.1,3.8-2.6c1.8-0.5,4.2-0.8,7.1-0.8c3,0,5.4,0.3,7.1,0.8c1.8,0.5,3,1.4,3.7,2.7c0.7,1.3,1.1,2.4,1.3,3.4
			c0.1,1,0.2,2.4,0.2,4.4v44.4c0,2-0.1,3.4-0.2,4.3c-0.1,0.9-0.6,2-1.3,3.1C3779.3,2176.3,3778,2177.1,3776.3,2177.6z"/>
	</g>
</g>
</svg>
