<svg width="552" height="316" viewBox="0 0 552 316" fill="none" xmlns="http://www.w3.org/2000/svg">
<path d="M275.401 181.028C316.58 181.028 349.963 147.667 349.963 106.515C349.963 65.3619 316.58 32.001 275.401 32.001C234.222 32.001 200.839 65.3619 200.839 106.515C200.839 147.667 234.222 181.028 275.401 181.028Z" fill="#2ED1A2"/>
<path d="M248.89 54.6999C248.111 54.6999 246.877 55.4541 245.2 56.9745C244.446 57.6569 243.99 58.5189 243.847 59.5605C243.667 60.4823 243.631 62.338 243.763 65.1275C243.799 65.2113 243.835 65.2472 243.87 65.2472C243.93 65.2472 244.002 65.1394 244.086 64.9359C244.17 65.8458 244.35 66.5401 244.637 67.019C245.655 69.0902 246.362 70.1317 246.746 70.1317C246.782 70.1317 246.806 70.1198 246.841 70.1078L247.189 71.5923L244.661 73.2205C244.398 73.424 244.194 73.7952 244.05 74.3339C243.775 76.2853 243.906 78.4283 244.434 80.7389L244.086 84.1629C242.9 83.3009 241.834 82.1755 240.888 80.7988L241.043 80.1283C240.935 79.9607 240.696 79.7931 240.324 79.6135C240.301 78.572 240.157 77.8297 239.881 77.3868C239.666 77.0036 239.127 76.7762 238.252 76.7283L236.719 74.3938L234.227 74.5973C234.215 74.5973 234.203 74.5973 234.191 74.5973C234.059 74.5973 233.999 74.6691 234.011 74.8247L234.898 76.4889C234.347 77.0396 234.143 77.3867 234.263 77.5304C234.287 77.7938 234.598 78.1769 235.197 78.6797L234.91 79.6973C235.029 79.9488 235.209 80.0924 235.461 80.1283C235.425 80.5833 235.473 80.8945 235.604 81.0621L236.79 82.403L239.055 82.834L242.026 88.0657C242.565 88.8439 243.283 89.6101 244.194 90.3524C245.152 91.1186 245.883 91.4897 246.398 91.4897C246.542 91.4897 246.662 91.4658 246.77 91.4059C248.159 90.5918 248.842 89.2749 248.818 87.4432L249.992 87.8024C250.232 88.1017 250.483 88.6763 250.771 89.5143C251.681 92.1721 252.124 93.8961 252.089 94.6743C252.244 95.0933 252.412 95.3207 252.604 95.3686L254.808 102.205C254.149 104.467 253.634 108.945 253.287 115.637C253.155 118.941 253.131 120.977 253.215 121.779L254.101 126.029L253.658 129.812C253.814 133.691 253.826 136.181 253.706 137.282C253.634 138.707 253.394 140.335 252.987 142.155C252.915 142.263 252.999 142.406 253.215 142.574L252.496 144.106C252.328 144.083 252.196 144.059 252.089 144.059C251.909 144.059 251.825 144.107 251.849 144.19C250.519 145.926 249.501 147.1 248.806 147.71C248.123 148.416 247.153 148.764 245.895 148.764C245.751 148.764 245.608 148.764 245.452 148.752C245.152 148.907 244.973 149.302 244.901 149.925C244.853 150.799 245.033 151.433 245.44 151.828C247.692 152.104 249.249 152.247 250.088 152.247C250.1 152.247 250.112 152.247 250.124 152.247C250.184 152.247 250.232 152.247 250.28 152.247C251.142 152.247 251.801 152.152 252.244 151.972L254.712 150.476L254.832 152.152L255 152.235L259.492 152.152C259.516 152.164 259.552 152.164 259.576 152.164C259.684 152.164 259.744 152.104 259.768 151.972C259.6 150.703 259.636 148.919 259.851 146.621C259.923 146.309 259.564 145.663 258.773 144.681C258.641 144.418 258.582 143.987 258.606 143.364C258.749 139.761 259.6 135.547 261.157 130.71L260.75 122.808C261.768 124.413 263.697 126.436 266.524 128.878L268.393 131.356L272.945 136.552L275.976 140.802L276.443 140.958L277.905 143.352C277.617 143.795 277.557 144.023 277.749 144.023C279.606 145.866 280.636 147.099 280.84 147.722C281.115 148.069 280.936 148.979 280.301 150.44C280.289 150.787 280.48 151.182 280.888 151.601C281.343 151.852 281.786 151.972 282.205 151.972C283.595 151.972 284.757 150.631 285.692 147.961C286.315 147.159 285.931 145.495 284.542 142.981L286.566 143.017L287.129 138.48L282.409 137.235L280.277 137.33L279.582 136.696C278.995 136.265 277.282 133.224 274.407 127.573C270.178 123.503 268.165 121.168 268.369 120.57L266.776 106.562C268.633 104.06 269.231 101.63 268.573 99.2835L269.531 101.51C269.339 102.516 269.363 103.27 269.579 103.761L270.933 105.748C271.088 106.143 271.052 106.766 270.801 107.604L270.921 107.556L270.897 107.688C270.921 107.688 270.933 107.688 270.957 107.688C271.28 107.688 271.651 107.819 272.095 108.071L274.946 111.004C279.917 116.87 284.841 122.365 289.693 127.465L290.148 128.052C289.801 128.806 289.753 129.477 290.004 130.063C290.184 130.59 290.543 131.165 291.094 131.787L304.032 144.25L308.429 149.769C308.441 149.853 308.489 149.889 308.573 149.889C308.645 149.889 308.753 149.853 308.872 149.793C308.92 150.32 309.16 150.751 309.567 151.086C309.879 151.373 310.298 151.517 310.861 151.517C310.945 151.517 311.029 151.517 311.113 151.505C311.628 151.469 312.071 151.17 312.43 150.583C313.209 150.679 313.772 150.739 314.131 150.739C314.419 150.739 314.563 150.703 314.575 150.643C314.958 151.816 315.617 152.403 316.539 152.403C316.815 152.403 317.114 152.355 317.426 152.247L323.607 146.19L324.098 146.202L326.063 143.975C326.087 143.819 326.015 143.747 325.871 143.747C325.859 143.747 325.848 143.747 325.848 143.747L323.943 143.388L323.679 142.682C324.482 141.964 324.709 141.401 324.35 140.994C323.44 139.533 322.493 138.312 321.523 137.33C320.289 135.954 315.114 131.093 305.973 122.737C304.787 121.994 303.517 121.623 302.152 121.623C300.487 121.623 298.702 122.174 296.785 123.275C295.323 122.174 294.389 121.623 293.982 121.623C293.874 121.623 293.802 121.659 293.766 121.731C293.191 121.887 292.736 122.353 292.388 123.156C292.209 123.575 292.376 124.161 292.915 124.891C292.951 124.939 292.843 125.071 292.604 125.287L275.868 107.365L275.904 106.886L274.646 105.533C274.91 104.503 274.862 103.773 274.527 103.318C272.742 101.738 271.831 100.744 271.795 100.349C271.496 99.7384 271.112 98.4454 270.669 96.494C273.7 94.0757 275.257 92.0524 275.341 90.4362C275.449 89.7897 275.293 88.9157 274.898 87.8263L272.107 82.1157C269.866 79.2903 267.758 77.3269 265.757 76.2494C266.692 75.6029 266.871 75.0163 266.308 74.4776C266.069 74.3578 265.877 74.298 265.721 74.298C265.614 74.298 265.518 74.3219 265.446 74.3818L263.278 76.0579C261.037 73.2923 259.576 71.7001 258.893 71.2691L253.107 68.8148C252.915 68.7071 252.867 67.8211 252.951 66.157C254.496 65.9056 255.227 63.5352 255.131 59.0098C254.928 58.1717 254.425 57.3936 253.622 56.6752C253.322 56.3999 252.903 56.2562 252.352 56.2562C252.268 56.2562 252.184 56.2562 252.089 56.2682C251.238 55.2266 250.256 54.6759 249.165 54.64H249.094C249.022 54.6999 248.962 54.6999 248.89 54.6999ZM316.491 152.188C316.479 152.188 316.479 152.188 316.491 152.188V152.188ZM276.264 140.611C276.288 140.611 276.311 140.611 276.335 140.611C276.311 140.611 276.288 140.611 276.264 140.611C276.24 140.611 276.216 140.611 276.192 140.611C276.216 140.611 276.24 140.611 276.264 140.611ZM274.143 107.568L291.418 126.364L291.118 126.723L290.4 125.993L273.784 107.963L274.131 107.592L274.143 107.568ZM294.005 122.018C294.077 122.018 294.161 122.042 294.269 122.078C294.161 122.042 294.077 122.018 294.005 122.018C293.934 122.018 293.886 122.042 293.85 122.078C293.886 122.042 293.934 122.018 294.005 122.018ZM302.176 121.982C302.451 121.982 302.715 121.994 302.978 122.018C302.703 121.994 302.439 121.982 302.176 121.982C301.9 121.982 301.625 121.994 301.349 122.018C301.625 121.994 301.9 121.982 302.176 121.982ZM260.259 121.096H260.343L260.379 121.611L260.343 121.096H260.259ZM272.238 105.018L272.574 105.293L272.298 105.473L272.238 105.018Z" fill="white"/>
<path d="M120.132 182.86C120.456 182.237 121.019 181.806 121.833 181.543C122.648 181.291 123.726 181.16 125.068 181.16C126.41 181.16 127.488 181.291 128.302 181.543C129.117 181.794 129.68 182.249 130.004 182.884C130.327 183.53 130.519 184.093 130.579 184.584C130.638 185.075 130.674 185.817 130.674 186.799V225.037C130.674 226.019 130.638 226.761 130.579 227.252C130.519 227.743 130.315 228.293 129.968 228.88C129.333 230.029 127.524 230.604 124.553 230.604C121.582 230.604 119.929 229.562 119.581 227.467C117.784 229.515 115.292 230.544 112.082 230.544C108.236 230.544 104.738 228.868 101.576 225.516C98.4131 222.164 96.8318 218.261 96.8318 213.795C96.8318 209.33 98.4251 205.415 101.612 202.039C104.798 198.663 108.284 196.975 112.094 196.975C115.257 196.975 117.712 198.04 119.461 200.183V186.739C119.461 185.757 119.497 185.015 119.557 184.524C119.617 184.033 119.809 183.47 120.132 182.86ZM109.71 217.662C110.824 218.812 112.166 219.386 113.747 219.386C115.328 219.386 116.646 218.812 117.688 217.662C118.731 216.513 119.258 215.244 119.258 213.855C119.258 212.466 118.755 211.173 117.748 209.976C116.742 208.779 115.388 208.18 113.675 208.18C111.962 208.18 110.596 208.767 109.578 209.94C108.548 211.114 108.045 212.407 108.045 213.819C108.045 215.232 108.608 216.513 109.71 217.662Z" fill="#2ED1A2"/>
<path d="M138.198 197.106C138.988 196.855 140.043 196.723 141.372 196.723C142.702 196.723 143.744 196.855 144.511 197.106C145.278 197.358 145.829 197.801 146.14 198.423C146.464 199.046 146.655 199.597 146.715 200.088C146.775 200.578 146.811 201.321 146.811 202.302V228.689C146.811 233.681 145.086 237.679 141.624 240.661C138.162 243.654 134.364 245.15 130.219 245.15C129.237 245.15 128.506 245.114 128.039 245.054C127.572 244.994 127.033 244.803 126.434 244.516C125.32 243.917 124.768 242.361 124.768 239.834C124.768 237.32 125.224 235.74 126.146 235.094C127.069 234.459 128.302 234.136 129.86 234.136C131.417 234.136 132.795 233.705 133.993 232.855C135.191 232.005 135.79 230.46 135.79 228.246V201.847C135.79 200.351 135.993 199.249 136.401 198.543C136.82 197.849 137.407 197.358 138.198 197.106ZM144.415 191.887C143.624 192.126 142.57 192.234 141.241 192.234C139.911 192.234 138.869 192.102 138.102 191.851C137.335 191.599 136.784 191.156 136.473 190.534C136.149 189.911 135.957 189.361 135.898 188.87C135.838 188.379 135.802 187.649 135.802 186.655C135.802 185.673 135.838 184.943 135.898 184.476C135.957 184.009 136.137 183.47 136.437 182.872C137.036 181.758 138.677 181.208 141.372 181.208C143.936 181.208 145.541 181.758 146.176 182.872C146.476 183.423 146.655 183.937 146.715 184.404C146.775 184.871 146.811 185.577 146.811 186.523V186.906C146.811 187.84 146.775 188.547 146.715 189.025C146.655 189.492 146.452 190.031 146.104 190.63C145.781 191.24 145.206 191.659 144.415 191.887Z" fill="#2ED1A2"/>
<path d="M173.873 200.506C174.125 198.112 175.814 196.915 178.941 196.915C180.606 196.915 181.852 197.047 182.654 197.298C183.469 197.549 184.032 198.004 184.355 198.639C184.679 199.273 184.871 199.848 184.93 200.339C184.99 200.83 185.026 201.572 185.026 202.554V224.977C185.026 225.959 184.99 226.701 184.93 227.192C184.871 227.683 184.679 228.245 184.391 228.892C183.792 230.005 182.331 230.556 180.007 230.556C177.683 230.556 176.113 230.269 175.323 229.694C174.532 229.119 174.077 228.269 173.945 227.168C172.364 229.431 169.728 230.568 166.026 230.568C162.325 230.568 158.899 228.88 155.736 225.504C152.573 222.128 150.992 218.213 150.992 213.747C150.992 209.282 152.585 205.379 155.772 202.027C158.958 198.675 162.445 196.999 166.254 196.999C167.704 196.999 169.033 197.25 170.231 197.765C171.429 198.28 172.256 198.759 172.735 199.201C173.19 199.632 173.574 200.075 173.873 200.506ZM162.205 213.819C162.205 215.232 162.756 216.501 163.87 217.626C164.984 218.764 166.326 219.326 167.907 219.326C169.489 219.326 170.806 218.752 171.849 217.602C172.891 216.453 173.418 215.184 173.418 213.795C173.418 212.407 172.915 211.114 171.908 209.916C170.902 208.719 169.56 208.121 167.871 208.121C166.182 208.121 164.817 208.719 163.774 209.916C162.732 211.114 162.205 212.419 162.205 213.819Z" fill="#2ED1A2"/>
<path d="M190.154 186.667C190.154 185.685 190.189 184.943 190.249 184.452C190.309 183.961 190.489 183.399 190.788 182.752C191.387 181.603 193.053 181.028 195.784 181.028C198.396 181.028 200.013 181.603 200.66 182.752C201.007 183.387 201.199 183.973 201.271 184.476C201.331 184.991 201.367 185.733 201.367 186.715V216.369C201.367 217.902 201.498 218.883 201.75 219.279C202.001 219.686 202.577 219.889 203.451 219.889C204.326 219.889 204.913 219.925 205.212 219.985C205.512 220.045 205.871 220.236 206.302 220.524C207.153 221.074 207.584 222.595 207.584 225.073C207.584 227.767 207.153 229.407 206.302 230.005C205.188 230.772 202.541 230.903 198.36 230.389C195.065 229.958 192.933 228.868 191.951 227.12C190.753 225.025 190.154 221.697 190.154 217.124V186.667Z" fill="#2ED1A2"/>
<path d="M233.029 200.506C233.28 198.112 234.97 196.915 238.096 196.915C239.761 196.915 241.007 197.047 241.81 197.298C242.625 197.549 243.188 198.004 243.511 198.639C243.835 199.273 244.026 199.848 244.086 200.339C244.146 200.83 244.182 201.572 244.182 202.554V224.977C244.182 225.959 244.146 226.701 244.086 227.192C244.026 227.683 243.835 228.245 243.547 228.892C242.948 230.005 241.487 230.556 239.162 230.556C236.838 230.556 235.269 230.269 234.478 229.694C233.688 229.119 233.233 228.269 233.101 227.168C231.519 229.431 228.884 230.568 225.182 230.568C221.48 230.568 218.054 228.88 214.892 225.504C211.729 222.128 210.148 218.213 210.148 213.747C210.148 209.282 211.741 205.379 214.928 202.027C218.114 198.675 221.6 196.999 225.41 196.999C226.859 196.999 228.189 197.25 229.387 197.765C230.585 198.28 231.412 198.759 231.891 199.201C232.346 199.632 232.729 200.075 233.029 200.506ZM221.361 213.819C221.361 215.232 221.912 216.501 223.026 217.626C224.14 218.764 225.482 219.326 227.063 219.326C228.644 219.326 229.962 218.752 231.004 217.602C232.047 216.453 232.574 215.184 232.574 213.795C232.574 212.407 232.07 211.114 231.064 209.916C230.058 208.719 228.716 208.121 227.027 208.121C225.338 208.121 223.972 208.719 222.93 209.916C221.888 211.114 221.361 212.419 221.361 213.819Z" fill="#2ED1A2"/>
<path d="M268.081 196.915C272.358 196.915 275.916 198.543 278.755 201.811C281.595 205.08 283.02 209.054 283.02 213.759V225.037C283.02 226.019 282.984 226.761 282.924 227.252C282.864 227.743 282.673 228.293 282.385 228.88C281.786 230.029 280.121 230.604 277.39 230.604C274.359 230.604 272.598 229.814 272.131 228.234C271.879 227.503 271.747 226.414 271.747 224.965V213.7C271.747 211.952 271.244 210.587 270.238 209.605C269.231 208.623 267.89 208.133 266.201 208.133C264.512 208.133 263.146 208.647 262.104 209.665C261.061 210.695 260.534 212.035 260.534 213.7V225.037C260.534 226.019 260.498 226.761 260.438 227.252C260.378 227.743 260.175 228.293 259.827 228.88C259.276 230.029 257.623 230.604 254.892 230.604C252.196 230.604 250.555 230.029 249.956 228.88C249.657 228.246 249.477 227.671 249.417 227.18C249.357 226.689 249.321 225.959 249.321 224.965V202.29C249.321 201.356 249.357 200.638 249.417 200.147C249.477 199.656 249.681 199.118 250.028 198.519C250.627 197.454 252.268 196.915 254.964 196.915C257.575 196.915 259.169 197.406 259.768 198.387C260.199 199.118 260.402 199.992 260.402 201.009C260.57 200.71 260.954 200.279 261.553 199.728C262.151 199.178 262.727 198.723 263.278 198.387C264.727 197.406 266.332 196.915 268.081 196.915Z" fill="#2ED1A2"/>
<path d="M310.801 182.86C311.124 182.237 311.687 181.806 312.502 181.543C313.317 181.291 314.395 181.16 315.737 181.16C317.078 181.16 318.157 181.291 318.971 181.543C319.786 181.794 320.349 182.249 320.672 182.884C320.996 183.53 321.187 184.093 321.247 184.584C321.307 185.075 321.343 185.817 321.343 186.799V225.037C321.343 226.019 321.307 226.761 321.247 227.252C321.187 227.743 320.984 228.293 320.636 228.88C320.001 230.029 318.192 230.604 315.221 230.604C312.251 230.604 310.597 229.562 310.25 227.467C308.453 229.515 305.961 230.544 302.751 230.544C298.905 230.544 295.407 228.868 292.244 225.516C289.082 222.164 287.5 218.261 287.5 213.795C287.5 209.33 289.094 205.415 292.28 202.039C295.467 198.663 298.953 196.975 302.763 196.975C305.925 196.975 308.381 198.04 310.13 200.183V186.739C310.13 185.757 310.166 185.015 310.226 184.524C310.286 184.033 310.478 183.47 310.801 182.86ZM300.379 217.662C301.493 218.812 302.834 219.386 304.416 219.386C305.997 219.386 307.315 218.812 308.357 217.662C309.399 216.513 309.926 215.244 309.926 213.855C309.926 212.466 309.423 211.173 308.417 209.976C307.411 208.779 306.057 208.18 304.344 208.18C302.631 208.18 301.265 208.767 300.247 209.94C299.217 211.114 298.713 212.407 298.713 213.819C298.713 215.232 299.277 216.513 300.379 217.662Z" fill="#2ED1A2"/>
<path d="M328.878 197.106C329.669 196.855 330.723 196.723 332.053 196.723C333.383 196.723 334.425 196.855 335.192 197.106C335.958 197.358 336.509 197.801 336.821 198.423C337.144 199.046 337.336 199.597 337.396 200.088C337.456 200.578 337.492 201.321 337.492 202.302V228.689C337.492 233.681 335.767 237.679 332.305 240.661C328.842 243.654 325.045 245.15 320.9 245.15C319.918 245.15 319.187 245.114 318.72 245.054C318.252 244.994 317.713 244.803 317.114 244.516C316 243.917 315.449 242.361 315.449 239.834C315.449 237.32 315.904 235.74 316.827 235.094C317.749 234.459 318.983 234.136 320.54 234.136C322.098 234.136 323.476 233.705 324.673 232.855C325.871 232.005 326.47 230.46 326.47 228.246V201.847C326.47 200.351 326.674 199.249 327.081 198.543C327.489 197.849 328.076 197.358 328.878 197.106ZM335.084 191.887C334.293 192.126 333.239 192.234 331.909 192.234C330.579 192.234 329.537 192.102 328.771 191.851C328.004 191.599 327.453 191.156 327.141 190.534C326.818 189.911 326.626 189.361 326.566 188.87C326.506 188.379 326.47 187.649 326.47 186.655C326.47 185.673 326.506 184.943 326.566 184.476C326.626 184.009 326.806 183.47 327.105 182.872C327.704 181.758 329.346 181.208 332.041 181.208C334.605 181.208 336.21 181.758 336.845 182.872C337.144 183.423 337.324 183.937 337.384 184.404C337.444 184.871 337.48 185.577 337.48 186.523V186.906C337.48 187.84 337.444 188.547 337.384 189.025C337.324 189.492 337.12 190.031 336.773 190.63C336.45 191.24 335.875 191.659 335.084 191.887Z" fill="#2ED1A2"/>
<path d="M364.542 200.506C364.793 198.112 366.483 196.915 369.609 196.915C371.274 196.915 372.52 197.047 373.323 197.298C374.138 197.549 374.701 198.004 375.024 198.639C375.348 199.273 375.539 199.848 375.599 200.339C375.659 200.83 375.695 201.572 375.695 202.554V224.977C375.695 225.959 375.659 226.701 375.599 227.192C375.539 227.683 375.348 228.245 375.06 228.892C374.461 230.005 373 230.556 370.675 230.556C368.351 230.556 366.782 230.269 365.991 229.694C365.201 229.119 364.746 228.269 364.614 227.168C363.032 229.431 360.397 230.568 356.695 230.568C352.993 230.568 349.567 228.88 346.405 225.504C343.242 222.128 341.661 218.213 341.661 213.747C341.661 209.282 343.254 205.379 346.441 202.027C349.627 198.675 353.113 196.999 356.923 196.999C358.372 196.999 359.702 197.25 360.9 197.765C362.098 198.28 362.925 198.759 363.404 199.201C363.859 199.632 364.242 200.075 364.542 200.506ZM352.874 213.819C352.874 215.232 353.425 216.501 354.539 217.626C355.653 218.764 356.995 219.326 358.576 219.326C360.157 219.326 361.475 218.752 362.517 217.602C363.56 216.453 364.087 215.184 364.087 213.795C364.087 212.407 363.584 211.114 362.577 209.916C361.571 208.719 360.229 208.121 358.54 208.121C356.851 208.121 355.485 208.719 354.443 209.916C353.401 211.114 352.874 212.419 352.874 213.819Z" fill="#2ED1A2"/>
<path d="M380.822 186.667C380.822 185.685 380.858 184.943 380.918 184.452C380.978 183.961 381.158 183.399 381.457 182.752C382.056 181.603 383.721 181.028 386.453 181.028C389.064 181.028 390.682 181.603 391.328 182.752C391.676 183.387 391.868 183.973 391.939 184.476C391.999 184.991 392.035 185.733 392.035 186.715V216.369C392.035 217.902 392.167 218.883 392.419 219.279C392.67 219.686 393.245 219.889 394.12 219.889C394.994 219.889 395.581 219.925 395.881 219.985C396.18 220.045 396.54 220.236 396.971 220.524C397.821 221.074 398.253 222.595 398.253 225.073C398.253 227.767 397.821 229.407 396.971 230.005C395.857 230.772 393.209 230.903 389.028 230.389C385.734 229.958 383.602 228.868 382.619 227.12C381.421 225.025 380.822 221.697 380.822 217.124V186.667V186.667Z" fill="#2ED1A2"/>
<path d="M423.698 200.506C423.949 198.112 425.638 196.915 428.765 196.915C430.43 196.915 431.676 197.047 432.479 197.298C433.293 197.549 433.856 198.004 434.18 198.639C434.503 199.273 434.695 199.848 434.755 200.339C434.815 200.83 434.851 201.572 434.851 202.554V224.977C434.851 225.959 434.815 226.701 434.755 227.192C434.695 227.683 434.503 228.245 434.216 228.892C433.617 230.005 432.155 230.556 429.831 230.556C427.507 230.556 425.938 230.269 425.147 229.694C424.356 229.119 423.901 228.269 423.769 227.168C422.188 229.431 419.553 230.568 415.851 230.568C412.149 230.568 408.723 228.88 405.56 225.504C402.398 222.128 400.816 218.213 400.816 213.747C400.816 209.282 402.41 205.379 405.596 202.027C408.783 198.675 412.269 196.999 416.079 196.999C417.528 196.999 418.858 197.25 420.056 197.765C421.254 198.28 422.08 198.759 422.56 199.201C423.015 199.632 423.398 200.075 423.698 200.506ZM412.029 213.819C412.029 215.232 412.58 216.501 413.695 217.626C414.809 218.764 416.15 219.326 417.732 219.326C419.313 219.326 420.631 218.752 421.673 217.602C422.715 216.453 423.242 215.184 423.242 213.795C423.242 212.407 422.739 211.114 421.733 209.916C420.727 208.719 419.385 208.121 417.696 208.121C416.007 208.121 414.641 208.719 413.599 209.916C412.556 211.114 412.029 212.419 412.029 213.819Z" fill="#2ED1A2"/>
<path d="M458.75 196.915C463.027 196.915 466.585 198.543 469.424 201.811C472.263 205.08 473.689 209.054 473.689 213.759V225.037C473.689 226.019 473.653 226.761 473.593 227.252C473.533 227.743 473.341 228.293 473.054 228.88C472.455 230.029 470.79 230.604 468.058 230.604C465.028 230.604 463.266 229.814 462.799 228.234C462.548 227.503 462.416 226.414 462.416 224.965V213.7C462.416 211.952 461.913 210.587 460.906 209.605C459.9 208.623 458.558 208.133 456.869 208.133C455.18 208.133 453.815 208.647 452.772 209.665C451.73 210.695 451.203 212.035 451.203 213.7V225.037C451.203 226.019 451.167 226.761 451.107 227.252C451.047 227.743 450.844 228.293 450.496 228.88C449.945 230.029 448.292 230.604 445.56 230.604C442.865 230.604 441.224 230.029 440.625 228.88C440.325 228.246 440.146 227.671 440.086 227.18C440.026 226.689 439.99 225.959 439.99 224.965V202.29C439.99 201.356 440.026 200.638 440.086 200.147C440.146 199.656 440.349 199.118 440.697 198.519C441.296 197.454 442.937 196.915 445.632 196.915C448.244 196.915 449.837 197.406 450.436 198.387C450.867 199.118 451.071 199.992 451.071 201.009C451.239 200.71 451.622 200.279 452.221 199.728C452.82 199.178 453.395 198.723 453.946 198.387C455.396 197.406 457.001 196.915 458.75 196.915Z" fill="#2ED1A2"/>
<path d="M98.3053 252.908H107.626C107.985 252.908 108.248 252.944 108.416 253.027C108.584 253.111 108.692 253.243 108.752 253.423C108.811 253.602 108.835 253.842 108.835 254.129C108.835 254.416 108.811 254.656 108.752 254.823C108.692 254.991 108.596 255.123 108.464 255.182C108.26 255.278 107.973 255.338 107.614 255.338H104.415V263.766C104.415 264.018 104.403 264.209 104.391 264.341C104.379 264.461 104.319 264.604 104.235 264.772C104.151 264.94 104.008 265.047 103.792 265.119C103.576 265.191 103.301 265.215 102.953 265.215C102.606 265.215 102.33 265.179 102.127 265.119C101.923 265.047 101.779 264.94 101.696 264.772C101.612 264.604 101.564 264.461 101.54 264.341C101.528 264.209 101.516 264.018 101.516 263.766V255.35H98.2933C97.9339 255.35 97.6704 255.314 97.5027 255.23C97.3349 255.146 97.2271 255.015 97.1672 254.835C97.1073 254.656 97.0834 254.416 97.0834 254.129C97.0834 253.842 97.1073 253.602 97.1672 253.434C97.2271 253.267 97.323 253.135 97.4547 253.075C97.6584 252.956 97.9339 252.908 98.3053 252.908Z" fill="#2ED1A2"/>
<path d="M113.759 256.475C113.975 256.547 114.143 256.655 114.286 256.823C114.43 256.99 114.502 257.242 114.502 257.601C114.502 257.96 114.394 258.355 114.178 258.774C113.963 259.193 113.663 259.409 113.256 259.409C113.052 259.409 112.861 259.361 112.681 259.277C112.501 259.193 112.25 259.145 111.95 259.145C111.651 259.145 111.363 259.253 111.1 259.468C110.836 259.684 110.704 259.935 110.704 260.235V263.754C110.704 264.006 110.692 264.209 110.68 264.329C110.668 264.461 110.608 264.604 110.525 264.772C110.357 265.059 109.926 265.203 109.219 265.203C108.68 265.203 108.296 265.107 108.057 264.916C107.877 264.76 107.781 264.521 107.757 264.197C107.757 264.09 107.757 263.922 107.757 263.706V257.828C107.757 257.577 107.769 257.373 107.781 257.254C107.793 257.122 107.841 256.978 107.925 256.823C108.081 256.523 108.512 256.368 109.231 256.368C109.902 256.368 110.321 256.499 110.489 256.751C110.608 256.93 110.668 257.11 110.668 257.301C110.728 257.218 110.8 257.134 110.908 257.014C111.016 256.906 111.243 256.751 111.591 256.559C111.938 256.368 112.238 256.272 112.501 256.272C112.765 256.272 112.98 256.284 113.16 256.32C113.352 256.356 113.544 256.404 113.759 256.475Z" fill="#2ED1A2"/>
<path d="M120.647 257.313C120.719 256.691 121.151 256.38 121.977 256.38C122.408 256.38 122.732 256.415 122.948 256.475C123.163 256.547 123.307 256.655 123.391 256.822C123.475 256.99 123.523 257.134 123.547 257.265C123.559 257.397 123.57 257.589 123.57 257.84V263.706C123.57 263.958 123.559 264.161 123.547 264.281C123.535 264.413 123.487 264.556 123.403 264.724C123.247 265.011 122.864 265.155 122.253 265.155C121.642 265.155 121.234 265.083 121.031 264.928C120.827 264.772 120.707 264.556 120.671 264.269C120.252 264.856 119.569 265.155 118.599 265.155C117.629 265.155 116.73 264.712 115.903 263.826C115.077 262.94 114.658 261.923 114.658 260.749C114.658 259.576 115.077 258.558 115.903 257.684C116.742 256.811 117.653 256.368 118.647 256.368C119.03 256.368 119.378 256.439 119.689 256.571C120.001 256.703 120.216 256.834 120.348 256.954C120.468 257.086 120.576 257.194 120.647 257.313ZM117.593 260.797C117.593 261.168 117.736 261.504 118.024 261.791C118.311 262.09 118.671 262.234 119.078 262.234C119.497 262.234 119.833 262.078 120.108 261.779C120.384 261.48 120.516 261.144 120.516 260.785C120.516 260.426 120.384 260.079 120.12 259.768C119.857 259.456 119.509 259.301 119.066 259.301C118.623 259.301 118.263 259.456 117.988 259.768C117.736 260.091 117.593 260.426 117.593 260.797Z" fill="#2ED1A2"/>
<path d="M133.562 256.571C134.149 256.918 134.436 257.29 134.436 257.673C134.436 257.9 134.328 258.199 134.101 258.594L130.627 264.545C130.519 264.736 130.339 264.904 130.087 265.059C129.836 265.215 129.596 265.287 129.357 265.287C129.117 265.287 128.889 265.227 128.674 265.107C128.458 264.988 128.302 264.868 128.219 264.748L128.063 264.568L124.577 258.606C124.349 258.235 124.241 257.936 124.241 257.697C124.241 257.29 124.529 256.918 125.116 256.571C125.535 256.32 125.871 256.2 126.122 256.2C126.374 256.2 126.565 256.272 126.697 256.428C126.841 256.583 126.985 256.811 127.14 257.11L129.333 261.336L131.525 257.11C131.645 256.894 131.741 256.739 131.801 256.655C131.86 256.559 131.956 256.463 132.1 256.368C132.232 256.272 132.412 256.224 132.639 256.224C132.867 256.224 133.166 256.344 133.562 256.571Z" fill="#2ED1A2"/>
<path d="M143.373 259.732C143.373 260.414 143.205 260.929 142.858 261.252C142.522 261.587 142.139 261.743 141.72 261.743H137.742C137.742 262.054 137.922 262.318 138.293 262.533C138.665 262.749 139.036 262.856 139.396 262.856C140.043 262.856 140.558 262.785 140.917 262.653L141.097 262.581C141.36 262.461 141.588 262.402 141.768 262.402C142.127 262.402 142.438 262.653 142.69 263.156C142.834 263.455 142.906 263.718 142.906 263.922C142.906 264.916 141.72 265.418 139.336 265.418C138.509 265.418 137.778 265.275 137.131 264.987C136.485 264.7 135.993 264.329 135.634 263.85C134.927 262.94 134.58 261.935 134.58 260.821C134.58 259.409 135.035 258.283 135.945 257.445C136.856 256.607 137.994 256.176 139.36 256.176C140.917 256.176 142.055 256.727 142.786 257.816C143.181 258.415 143.373 259.049 143.373 259.732ZM139.839 260.223C140.258 260.223 140.474 260.043 140.474 259.684C140.474 259.433 140.378 259.217 140.174 259.061C139.983 258.906 139.695 258.822 139.336 258.822C138.976 258.822 138.617 258.966 138.258 259.265C137.898 259.564 137.718 259.875 137.718 260.211H139.839V260.223Z" fill="#2ED1A2"/>
<path d="M147.554 262.234C147.925 262.234 148.201 262.33 148.38 262.521C148.56 262.713 148.644 263.108 148.644 263.695C148.644 264.281 148.548 264.676 148.356 264.88C148.165 265.071 147.889 265.179 147.53 265.179C146.404 265.179 145.601 264.904 145.146 264.365C144.691 263.826 144.463 262.916 144.463 261.659V253.662C144.463 253.411 144.475 253.207 144.487 253.087C144.499 252.956 144.547 252.812 144.631 252.644C144.786 252.357 145.218 252.213 145.937 252.213C146.619 252.213 147.039 252.369 147.206 252.68C147.29 252.836 147.35 252.98 147.362 253.111C147.374 253.243 147.386 253.435 147.386 253.686V261.731C147.398 262.066 147.446 262.234 147.554 262.234ZM152.058 262.138C152.142 262.21 152.382 262.234 152.741 262.234C153.1 262.234 153.412 262.33 153.663 262.521C153.915 262.713 154.035 263.108 154.035 263.695C154.035 264.281 153.903 264.676 153.639 264.88C153.376 265.071 153.005 265.179 152.537 265.179C150.165 265.179 148.979 264.006 148.979 261.659L148.967 253.662C148.967 253.411 148.979 253.207 148.991 253.087C149.003 252.956 149.063 252.812 149.147 252.644C149.315 252.357 149.746 252.213 150.453 252.213C151.136 252.213 151.555 252.369 151.723 252.68C151.843 252.932 151.902 253.267 151.902 253.686V261.731C151.926 261.935 151.974 262.066 152.058 262.138Z" fill="#2ED1A2"/>
<path d="M157.725 254.739C157.641 254.907 157.497 255.015 157.281 255.087C157.066 255.158 156.79 255.182 156.431 255.182C156.083 255.182 155.796 255.146 155.58 255.087C155.365 255.015 155.221 254.907 155.137 254.739C155.053 254.572 155.005 254.428 154.981 254.296C154.969 254.165 154.957 253.973 154.957 253.722C154.957 253.47 154.969 253.267 154.981 253.147C154.993 253.015 155.041 252.872 155.125 252.716C155.281 252.417 155.712 252.261 156.431 252.261C157.138 252.261 157.557 252.417 157.701 252.716C157.785 252.884 157.844 253.027 157.856 253.159C157.868 253.291 157.88 253.482 157.88 253.734C157.88 253.985 157.868 254.189 157.856 254.308C157.856 254.428 157.808 254.572 157.725 254.739ZM154.957 257.852C154.957 257.601 154.969 257.397 154.981 257.277C154.993 257.146 155.041 257.002 155.125 256.835C155.281 256.547 155.712 256.404 156.431 256.404C156.97 256.404 157.353 256.499 157.569 256.691C157.761 256.847 157.856 257.086 157.868 257.409C157.88 257.517 157.88 257.685 157.88 257.9V263.766C157.88 264.018 157.868 264.221 157.856 264.341C157.844 264.473 157.785 264.616 157.701 264.784C157.557 265.071 157.126 265.215 156.407 265.215C155.7 265.215 155.269 265.059 155.113 264.76C155.029 264.592 154.993 264.449 154.969 264.329C154.957 264.209 154.945 264.006 154.945 263.742V257.852H154.957Z" fill="#2ED1A2"/>
<path d="M164.158 256.368C165.272 256.368 166.206 256.799 166.949 257.649C167.692 258.499 168.063 259.54 168.063 260.773V263.718C168.063 263.97 168.051 264.173 168.039 264.293C168.027 264.425 167.979 264.568 167.895 264.724C167.74 265.023 167.308 265.179 166.59 265.179C165.799 265.179 165.332 264.975 165.212 264.556C165.14 264.365 165.116 264.078 165.116 263.706V260.761C165.116 260.306 164.984 259.947 164.721 259.684C164.457 259.432 164.11 259.301 163.666 259.301C163.223 259.301 162.864 259.432 162.588 259.708C162.313 259.971 162.181 260.33 162.181 260.761V263.73C162.181 263.982 162.169 264.185 162.157 264.305C162.145 264.437 162.085 264.58 162.001 264.736C161.858 265.035 161.426 265.191 160.707 265.191C160.001 265.191 159.569 265.035 159.414 264.736C159.33 264.568 159.294 264.425 159.27 264.293C159.258 264.161 159.246 263.97 159.246 263.718V257.78C159.246 257.529 159.258 257.349 159.27 257.218C159.282 257.086 159.342 256.942 159.426 256.787C159.581 256.511 160.013 256.368 160.719 256.368C161.402 256.368 161.822 256.499 161.977 256.751C162.085 256.942 162.145 257.17 162.145 257.433C162.193 257.349 162.289 257.242 162.445 257.098C162.6 256.954 162.756 256.834 162.9 256.751C163.271 256.499 163.69 256.368 164.158 256.368Z" fill="#2ED1A2"/>
<path d="M174.999 264.102C174.58 264.664 173.897 264.94 172.975 264.94C172.052 264.94 171.178 264.509 170.363 263.659C169.549 262.809 169.141 261.803 169.141 260.666C169.141 259.528 169.549 258.523 170.363 257.661C171.178 256.799 172.076 256.368 173.047 256.368C173.43 256.368 173.777 256.44 174.089 256.583C174.4 256.727 174.616 256.847 174.736 256.966C174.856 257.086 174.951 257.194 175.011 257.29C175.047 256.978 175.155 256.739 175.359 256.571C175.55 256.404 175.874 256.332 176.305 256.332C176.736 256.332 177.06 256.368 177.263 256.428C177.467 256.499 177.611 256.607 177.695 256.775C177.779 256.942 177.827 257.074 177.85 257.206C177.862 257.325 177.874 257.517 177.874 257.78V264.724C177.874 266.005 177.431 267.047 176.533 267.837C175.634 268.627 174.628 269.022 173.514 269.022C172.663 269.022 171.849 268.819 171.082 268.399C170.315 267.98 169.92 267.609 169.92 267.274C169.92 266.843 170.088 266.448 170.423 266.113C170.639 265.873 170.806 265.718 170.914 265.622C171.034 265.538 171.166 265.49 171.322 265.49C171.477 265.49 171.645 265.562 171.813 265.694C172.352 266.113 172.927 266.316 173.562 266.316C173.981 266.316 174.328 266.149 174.604 265.814C174.88 265.478 175.011 265.071 175.011 264.604V264.102H174.999ZM172.016 260.666C172.016 261.025 172.16 261.36 172.448 261.647C172.735 261.935 173.083 262.078 173.49 262.078C173.897 262.078 174.233 261.935 174.508 261.635C174.772 261.336 174.915 261.013 174.915 260.666C174.915 260.318 174.784 259.983 174.532 259.672C174.281 259.361 173.933 259.205 173.49 259.205C173.047 259.205 172.699 259.361 172.436 259.66C172.148 259.971 172.016 260.306 172.016 260.666Z" fill="#2ED1A2"/>
<path d="M189.387 252.692C189.471 252.525 189.615 252.417 189.83 252.345C190.046 252.273 190.321 252.249 190.681 252.249C191.028 252.249 191.316 252.285 191.531 252.345C191.747 252.417 191.891 252.525 191.975 252.692C192.058 252.86 192.106 253.003 192.13 253.135C192.142 253.267 192.154 253.458 192.154 253.71V263.718C192.154 263.97 192.142 264.173 192.13 264.293C192.118 264.425 192.058 264.568 191.975 264.724C191.807 265.023 191.34 265.179 190.561 265.179C189.782 265.179 189.351 264.904 189.267 264.353C188.8 264.892 188.141 265.155 187.302 265.155C186.296 265.155 185.374 264.712 184.547 263.838C183.721 262.964 183.301 261.935 183.301 260.773C183.301 259.6 183.721 258.582 184.547 257.697C185.386 256.811 186.296 256.368 187.29 256.368C188.117 256.368 188.764 256.643 189.219 257.206V253.686C189.219 253.434 189.231 253.231 189.243 253.111C189.255 253.003 189.303 252.86 189.387 252.692ZM186.656 261.803C186.943 262.102 187.302 262.258 187.71 262.258C188.129 262.258 188.464 262.102 188.74 261.803C189.016 261.504 189.147 261.168 189.147 260.809C189.147 260.45 189.016 260.103 188.752 259.792C188.488 259.48 188.129 259.325 187.686 259.325C187.243 259.325 186.883 259.48 186.608 259.78C186.344 260.091 186.2 260.426 186.2 260.797C186.2 261.168 186.368 261.504 186.656 261.803Z" fill="#2ED1A2"/>
<path d="M202.001 259.732C202.001 260.414 201.834 260.929 201.486 261.252C201.151 261.587 200.768 261.743 200.348 261.743H196.371C196.371 262.054 196.551 262.318 196.922 262.533C197.293 262.749 197.665 262.856 198.024 262.856C198.671 262.856 199.186 262.785 199.546 262.653L199.725 262.581C199.989 262.461 200.217 262.402 200.396 262.402C200.756 262.402 201.067 262.653 201.319 263.156C201.462 263.455 201.534 263.718 201.534 263.922C201.534 264.916 200.348 265.418 197.964 265.418C197.138 265.418 196.407 265.275 195.76 264.987C195.113 264.7 194.622 264.329 194.263 263.85C193.556 262.94 193.208 261.935 193.208 260.821C193.208 259.409 193.664 258.283 194.574 257.445C195.485 256.607 196.623 256.176 197.988 256.176C199.546 256.176 200.684 256.727 201.414 257.816C201.81 258.415 202.001 259.049 202.001 259.732ZM198.467 260.223C198.887 260.223 199.102 260.043 199.102 259.684C199.102 259.433 199.007 259.217 198.803 259.061C198.611 258.906 198.324 258.822 197.964 258.822C197.605 258.822 197.246 258.966 196.886 259.265C196.527 259.564 196.347 259.875 196.347 260.211H198.467V260.223Z" fill="#2ED1A2"/>
<path d="M208.015 256.368C209.129 256.368 210.064 256.799 210.807 257.649C211.549 258.499 211.921 259.54 211.921 260.773V263.718C211.921 263.97 211.909 264.173 211.897 264.293C211.885 264.425 211.837 264.568 211.753 264.724C211.597 265.023 211.166 265.179 210.447 265.179C209.656 265.179 209.189 264.975 209.069 264.556C208.998 264.365 208.974 264.078 208.974 263.706V260.761C208.974 260.306 208.842 259.947 208.578 259.684C208.315 259.432 207.967 259.301 207.524 259.301C207.081 259.301 206.721 259.432 206.446 259.708C206.17 259.971 206.039 260.33 206.039 260.761V263.73C206.039 263.982 206.027 264.185 206.015 264.305C206.003 264.437 205.943 264.58 205.859 264.736C205.715 265.035 205.284 265.191 204.565 265.191C203.858 265.191 203.427 265.035 203.271 264.736C203.187 264.568 203.152 264.425 203.128 264.293C203.116 264.161 203.104 263.97 203.104 263.718V257.78C203.104 257.529 203.116 257.349 203.128 257.218C203.14 257.086 203.199 256.942 203.283 256.787C203.439 256.511 203.87 256.368 204.577 256.368C205.26 256.368 205.679 256.499 205.835 256.751C205.943 256.942 206.003 257.17 206.003 257.433C206.051 257.349 206.146 257.242 206.302 257.098C206.458 256.954 206.614 256.834 206.757 256.751C207.129 256.499 207.548 256.368 208.015 256.368Z" fill="#2ED1A2"/>
<path d="M218.857 264.102C218.438 264.664 217.755 264.94 216.832 264.94C215.91 264.94 215.035 264.509 214.221 263.659C213.406 262.809 212.999 261.803 212.999 260.666C212.999 259.528 213.406 258.523 214.221 257.661C215.035 256.799 215.934 256.368 216.904 256.368C217.288 256.368 217.635 256.44 217.946 256.583C218.258 256.727 218.474 256.847 218.593 256.966C218.713 257.086 218.809 257.194 218.869 257.29C218.905 256.978 219.013 256.739 219.216 256.571C219.408 256.404 219.731 256.332 220.163 256.332C220.594 256.332 220.917 256.368 221.121 256.428C221.325 256.499 221.468 256.607 221.552 256.775C221.636 256.942 221.684 257.074 221.708 257.206C221.72 257.325 221.732 257.517 221.732 257.78V264.724C221.732 266.005 221.289 267.047 220.39 267.837C219.492 268.627 218.486 269.022 217.371 269.022C216.521 269.022 215.706 268.819 214.94 268.399C214.173 267.98 213.778 267.609 213.778 267.274C213.778 266.843 213.945 266.448 214.281 266.113C214.496 265.873 214.664 265.718 214.772 265.622C214.892 265.538 215.023 265.49 215.179 265.49C215.335 265.49 215.503 265.562 215.67 265.694C216.209 266.113 216.784 266.316 217.419 266.316C217.839 266.316 218.186 266.149 218.462 265.814C218.737 265.478 218.869 265.071 218.869 264.604V264.102H218.857ZM215.874 260.666C215.874 261.025 216.018 261.36 216.305 261.647C216.593 261.935 216.94 262.078 217.347 262.078C217.755 262.078 218.09 261.935 218.366 261.635C218.629 261.336 218.773 261.013 218.773 260.666C218.773 260.318 218.641 259.983 218.39 259.672C218.138 259.361 217.791 259.205 217.347 259.205C216.904 259.205 216.557 259.361 216.293 259.66C216.006 259.971 215.874 260.306 215.874 260.666Z" fill="#2ED1A2"/>
<path d="M228.812 257.313C228.884 256.691 229.315 256.38 230.142 256.38C230.573 256.38 230.896 256.415 231.112 256.475C231.328 256.547 231.471 256.655 231.555 256.822C231.639 256.99 231.687 257.134 231.711 257.265C231.723 257.397 231.735 257.589 231.735 257.84V263.706C231.735 263.958 231.723 264.161 231.711 264.281C231.699 264.413 231.651 264.556 231.567 264.724C231.412 265.011 231.028 265.155 230.417 265.155C229.806 265.155 229.399 265.083 229.195 264.928C228.992 264.772 228.872 264.556 228.836 264.269C228.417 264.856 227.734 265.155 226.763 265.155C225.793 265.155 224.895 264.712 224.068 263.826C223.241 262.94 222.822 261.923 222.822 260.749C222.822 259.576 223.241 258.558 224.068 257.684C224.907 256.811 225.817 256.368 226.811 256.368C227.195 256.368 227.542 256.439 227.854 256.571C228.165 256.703 228.381 256.834 228.512 256.954C228.632 257.086 228.728 257.194 228.812 257.313ZM225.757 260.797C225.757 261.168 225.901 261.504 226.188 261.791C226.476 262.09 226.835 262.234 227.243 262.234C227.662 262.234 227.997 262.078 228.273 261.779C228.548 261.48 228.68 261.144 228.68 260.785C228.68 260.426 228.548 260.079 228.285 259.768C228.021 259.456 227.674 259.301 227.231 259.301C226.787 259.301 226.428 259.456 226.153 259.768C225.889 260.091 225.757 260.426 225.757 260.797Z" fill="#2ED1A2"/>
<path d="M237.976 256.368C239.091 256.368 240.025 256.799 240.768 257.649C241.511 258.499 241.882 259.54 241.882 260.773V263.718C241.882 263.97 241.87 264.173 241.858 264.293C241.846 264.425 241.798 264.568 241.714 264.724C241.558 265.023 241.127 265.179 240.408 265.179C239.618 265.179 239.151 264.975 239.031 264.556C238.959 264.365 238.935 264.078 238.935 263.706V260.761C238.935 260.306 238.803 259.947 238.54 259.684C238.276 259.432 237.929 259.301 237.485 259.301C237.042 259.301 236.683 259.432 236.407 259.708C236.132 259.971 236 260.33 236 260.761V263.73C236 263.982 235.988 264.185 235.976 264.305C235.964 264.437 235.904 264.58 235.82 264.736C235.676 265.035 235.245 265.191 234.526 265.191C233.82 265.191 233.388 265.035 233.233 264.736C233.149 264.568 233.113 264.425 233.089 264.293C233.077 264.161 233.065 263.97 233.065 263.718V257.78C233.065 257.529 233.077 257.349 233.089 257.218C233.101 257.086 233.161 256.942 233.245 256.787C233.4 256.511 233.832 256.368 234.538 256.368C235.221 256.368 235.64 256.499 235.796 256.751C235.904 256.942 235.964 257.17 235.964 257.433C236.012 257.349 236.108 257.242 236.263 257.098C236.419 256.954 236.575 256.834 236.719 256.751C237.102 256.499 237.521 256.368 237.976 256.368Z" fill="#2ED1A2"/>
<path d="M248.626 257.481C249.561 256.607 250.639 256.176 251.849 256.176C253.059 256.176 254.125 256.607 255.048 257.469C255.97 258.331 256.437 259.444 256.437 260.785C256.437 261.707 256.198 262.533 255.718 263.264C255.239 263.982 254.652 264.521 253.969 264.856C253.287 265.191 252.568 265.371 251.837 265.371C251.106 265.371 250.387 265.191 249.693 264.832C248.998 264.473 248.411 263.934 247.944 263.228C247.464 262.521 247.225 261.719 247.225 260.821C247.225 259.456 247.692 258.355 248.626 257.481ZM250.723 261.994C251.082 262.27 251.442 262.402 251.813 262.402C252.184 262.402 252.556 262.258 252.915 261.983C253.287 261.707 253.466 261.288 253.466 260.737C253.466 260.187 253.299 259.78 252.951 259.516C252.604 259.253 252.232 259.109 251.825 259.109C251.418 259.109 251.046 259.253 250.699 259.528C250.351 259.804 250.184 260.223 250.184 260.761C250.184 261.312 250.363 261.719 250.723 261.994Z" fill="#2ED1A2"/>
<path d="M263.541 256.475C263.757 256.547 263.924 256.655 264.068 256.823C264.212 256.99 264.284 257.242 264.284 257.601C264.284 257.96 264.176 258.355 263.96 258.774C263.745 259.193 263.445 259.409 263.038 259.409C262.834 259.409 262.643 259.361 262.463 259.277C262.283 259.193 262.032 259.145 261.732 259.145C261.433 259.145 261.145 259.253 260.882 259.468C260.618 259.684 260.486 259.935 260.486 260.235V263.754C260.486 264.006 260.474 264.209 260.462 264.329C260.45 264.461 260.39 264.604 260.307 264.772C260.139 265.059 259.708 265.203 259.001 265.203C258.462 265.203 258.078 265.107 257.839 264.916C257.659 264.76 257.563 264.521 257.539 264.197C257.539 264.09 257.539 263.922 257.539 263.706V257.828C257.539 257.577 257.551 257.373 257.563 257.254C257.575 257.122 257.623 256.978 257.707 256.823C257.863 256.523 258.294 256.368 259.013 256.368C259.684 256.368 260.103 256.499 260.271 256.751C260.39 256.93 260.45 257.11 260.45 257.301C260.51 257.218 260.582 257.134 260.69 257.014C260.798 256.906 261.025 256.751 261.373 256.559C261.72 256.368 262.02 256.272 262.283 256.272C262.547 256.272 262.762 256.284 262.942 256.32C263.134 256.356 263.325 256.404 263.541 256.475Z" fill="#2ED1A2"/>
<path d="M270.429 257.313C270.501 256.691 270.933 256.38 271.759 256.38C272.19 256.38 272.514 256.415 272.73 256.475C272.945 256.547 273.089 256.655 273.173 256.822C273.257 256.99 273.305 257.134 273.329 257.265C273.341 257.397 273.352 257.589 273.352 257.84V263.706C273.352 263.958 273.341 264.161 273.329 264.281C273.317 264.413 273.269 264.556 273.185 264.724C273.029 265.011 272.646 265.155 272.035 265.155C271.424 265.155 271.016 265.083 270.813 264.928C270.609 264.772 270.489 264.556 270.453 264.269C270.034 264.856 269.351 265.155 268.381 265.155C267.411 265.155 266.512 264.712 265.685 263.826C264.859 262.94 264.44 261.923 264.44 260.749C264.44 259.576 264.859 258.558 265.685 257.684C266.524 256.811 267.435 256.368 268.429 256.368C268.812 256.368 269.16 256.439 269.471 256.571C269.783 256.703 269.998 256.834 270.13 256.954C270.25 257.086 270.358 257.194 270.429 257.313ZM267.375 260.797C267.375 261.168 267.518 261.504 267.806 261.791C268.093 262.09 268.453 262.234 268.86 262.234C269.279 262.234 269.615 262.078 269.89 261.779C270.166 261.48 270.298 261.144 270.298 260.785C270.298 260.426 270.166 260.079 269.902 259.768C269.639 259.456 269.291 259.301 268.848 259.301C268.405 259.301 268.045 259.456 267.77 259.768C267.518 260.091 267.375 260.426 267.375 260.797Z" fill="#2ED1A2"/>
<path d="M279.606 256.368C280.72 256.368 281.654 256.799 282.397 257.649C283.14 258.499 283.511 259.54 283.511 260.773V263.718C283.511 263.97 283.499 264.173 283.487 264.293C283.475 264.425 283.427 264.568 283.344 264.724C283.188 265.023 282.757 265.179 282.038 265.179C281.247 265.179 280.78 264.975 280.66 264.556C280.588 264.365 280.564 264.078 280.564 263.706V260.761C280.564 260.306 280.432 259.947 280.169 259.684C279.905 259.432 279.558 259.301 279.115 259.301C278.671 259.301 278.312 259.432 278.037 259.708C277.761 259.971 277.629 260.33 277.629 260.761V263.73C277.629 263.982 277.617 264.185 277.605 264.305C277.593 264.437 277.533 264.58 277.45 264.736C277.306 265.035 276.875 265.191 276.156 265.191C275.449 265.191 275.018 265.035 274.862 264.736C274.778 264.568 274.742 264.425 274.718 264.293C274.706 264.161 274.694 263.97 274.694 263.718V257.78C274.694 257.529 274.706 257.349 274.718 257.218C274.73 257.086 274.79 256.942 274.874 256.787C275.03 256.511 275.461 256.368 276.168 256.368C276.851 256.368 277.27 256.499 277.426 256.751C277.533 256.942 277.593 257.17 277.593 257.433C277.641 257.349 277.737 257.242 277.893 257.098C278.049 256.954 278.204 256.834 278.348 256.751C278.731 256.499 279.151 256.368 279.606 256.368Z" fill="#2ED1A2"/>
<path d="M290.459 264.102C290.04 264.664 289.357 264.94 288.435 264.94C287.512 264.94 286.638 264.509 285.823 263.659C285.009 262.809 284.601 261.803 284.601 260.666C284.601 259.528 285.009 258.523 285.823 257.661C286.638 256.799 287.536 256.368 288.507 256.368C288.89 256.368 289.237 256.44 289.549 256.583C289.86 256.727 290.076 256.847 290.196 256.966C290.316 257.086 290.411 257.194 290.471 257.29C290.507 256.978 290.615 256.739 290.819 256.571C291.01 256.404 291.334 256.332 291.765 256.332C292.196 256.332 292.52 256.368 292.724 256.428C292.927 256.499 293.071 256.607 293.155 256.775C293.239 256.942 293.287 257.074 293.311 257.206C293.323 257.325 293.335 257.517 293.335 257.78V264.724C293.335 266.005 292.891 267.047 291.993 267.837C291.094 268.627 290.088 269.022 288.974 269.022C288.123 269.022 287.309 268.819 286.542 268.399C285.775 267.98 285.38 267.609 285.38 267.274C285.38 266.843 285.548 266.448 285.883 266.113C286.099 265.873 286.267 265.718 286.374 265.622C286.494 265.538 286.626 265.49 286.782 265.49C286.937 265.49 287.105 265.562 287.273 265.694C287.812 266.113 288.387 266.316 289.022 266.316C289.441 266.316 289.789 266.149 290.064 265.814C290.34 265.478 290.471 265.071 290.471 264.604V264.102H290.459ZM287.476 260.666C287.476 261.025 287.62 261.36 287.908 261.647C288.195 261.935 288.543 262.078 288.95 262.078C289.357 262.078 289.693 261.935 289.968 261.635C290.232 261.336 290.376 261.013 290.376 260.666C290.376 260.318 290.244 259.983 289.992 259.672C289.741 259.361 289.393 259.205 288.95 259.205C288.507 259.205 288.159 259.361 287.896 259.66C287.608 259.971 287.476 260.306 287.476 260.666Z" fill="#2ED1A2"/>
<path d="M303.757 256.392C304.751 256.392 305.662 256.835 306.5 257.72C307.339 258.606 307.746 259.624 307.746 260.797C307.746 261.97 307.327 262.988 306.5 263.862C305.674 264.736 304.787 265.179 303.829 265.179C302.882 265.179 302.2 264.916 301.804 264.377C301.72 264.928 301.229 265.203 300.367 265.203C299.66 265.203 299.229 265.047 299.073 264.748C298.989 264.58 298.953 264.437 298.929 264.305C298.917 264.173 298.905 263.982 298.905 263.73V253.722C298.905 253.47 298.917 253.267 298.929 253.147C298.941 253.015 298.989 252.872 299.073 252.716C299.229 252.417 299.66 252.261 300.379 252.261C301.085 252.261 301.505 252.417 301.649 252.716C301.732 252.884 301.792 253.027 301.804 253.159C301.816 253.291 301.828 253.482 301.828 253.734V257.218C302.295 256.667 302.93 256.392 303.757 256.392ZM302.283 261.803C302.559 262.102 302.906 262.258 303.314 262.258C303.733 262.258 304.08 262.102 304.368 261.803C304.655 261.504 304.799 261.168 304.799 260.797C304.799 260.426 304.667 260.091 304.392 259.78C304.128 259.468 303.769 259.325 303.314 259.325C302.87 259.325 302.511 259.48 302.248 259.792C301.984 260.103 301.852 260.438 301.852 260.809C301.876 261.168 302.02 261.504 302.283 261.803Z" fill="#2ED1A2"/>
<path d="M314.575 257.313C314.646 256.691 315.078 256.38 315.904 256.38C316.336 256.38 316.659 256.415 316.875 256.475C317.09 256.547 317.234 256.655 317.318 256.822C317.402 256.99 317.45 257.134 317.474 257.265C317.486 257.397 317.498 257.589 317.498 257.84V263.706C317.498 263.958 317.486 264.161 317.474 264.281C317.462 264.413 317.414 264.556 317.33 264.724C317.174 265.011 316.791 265.155 316.18 265.155C315.569 265.155 315.162 265.083 314.958 264.928C314.754 264.772 314.634 264.556 314.599 264.269C314.179 264.856 313.496 265.155 312.526 265.155C311.556 265.155 310.657 264.712 309.831 263.826C309.004 262.94 308.585 261.923 308.585 260.749C308.585 259.576 309.004 258.558 309.831 257.684C310.669 256.811 311.58 256.368 312.574 256.368C312.957 256.368 313.305 256.439 313.616 256.571C313.928 256.703 314.143 256.834 314.275 256.954C314.395 257.086 314.491 257.194 314.575 257.313ZM311.52 260.797C311.52 261.168 311.664 261.504 311.951 261.791C312.239 262.09 312.598 262.234 313.005 262.234C313.425 262.234 313.76 262.078 314.035 261.779C314.311 261.48 314.443 261.144 314.443 260.785C314.443 260.426 314.311 260.079 314.047 259.768C313.784 259.456 313.436 259.301 312.993 259.301C312.55 259.301 312.191 259.456 311.915 259.768C311.664 260.091 311.52 260.426 311.52 260.797Z" fill="#2ED1A2"/>
<path d="M324.841 256.475C325.057 256.547 325.225 256.655 325.368 256.823C325.512 256.99 325.584 257.242 325.584 257.601C325.584 257.96 325.476 258.355 325.261 258.774C325.045 259.193 324.745 259.409 324.338 259.409C324.134 259.409 323.943 259.361 323.763 259.277C323.583 259.193 323.332 259.145 323.032 259.145C322.733 259.145 322.445 259.253 322.182 259.468C321.918 259.684 321.786 259.935 321.786 260.235V263.754C321.786 264.006 321.774 264.209 321.762 264.329C321.751 264.461 321.691 264.604 321.607 264.772C321.439 265.059 321.008 265.203 320.301 265.203C319.762 265.203 319.379 265.107 319.139 264.916C318.959 264.76 318.863 264.521 318.839 264.197C318.839 264.09 318.839 263.922 318.839 263.706V257.828C318.839 257.577 318.851 257.373 318.863 257.254C318.875 257.122 318.923 256.978 319.007 256.823C319.163 256.523 319.594 256.368 320.313 256.368C320.984 256.368 321.403 256.499 321.571 256.751C321.691 256.93 321.751 257.11 321.751 257.301C321.81 257.218 321.882 257.134 321.99 257.014C322.098 256.906 322.326 256.751 322.673 256.559C323.02 256.368 323.32 256.272 323.583 256.272C323.847 256.272 324.063 256.284 324.242 256.32C324.434 256.356 324.626 256.404 324.841 256.475Z" fill="#2ED1A2"/>
<path d="M330.424 265.167C329.298 265.167 328.363 264.736 327.609 263.886C326.866 263.036 326.494 261.994 326.494 260.761V257.828C326.494 257.565 326.506 257.361 326.518 257.242C326.53 257.122 326.578 256.978 326.662 256.811C326.818 256.511 327.249 256.356 327.968 256.356C328.747 256.356 329.214 256.571 329.346 256.99C329.417 257.17 329.441 257.457 329.441 257.84V260.773C329.441 261.228 329.573 261.587 329.837 261.851C330.1 262.102 330.448 262.234 330.891 262.234C331.334 262.234 331.694 262.102 331.969 261.827C332.245 261.563 332.376 261.204 332.376 260.773V257.804C332.376 257.553 332.388 257.349 332.4 257.23C332.412 257.098 332.472 256.954 332.556 256.787C332.7 256.499 333.131 256.356 333.85 256.356C334.557 256.356 334.988 256.511 335.144 256.811C335.228 256.978 335.264 257.122 335.288 257.254C335.3 257.385 335.311 257.577 335.311 257.828V263.766C335.311 264.018 335.3 264.197 335.288 264.329C335.276 264.461 335.216 264.604 335.132 264.76C334.964 265.047 334.533 265.191 333.838 265.191C333.155 265.191 332.736 265.059 332.58 264.784C332.472 264.592 332.412 264.365 332.412 264.101C332.364 264.185 332.269 264.293 332.113 264.437C331.957 264.58 331.801 264.7 331.658 264.808C331.286 265.047 330.867 265.167 330.424 265.167Z" fill="#2ED1A2"/>
<path d="M338.893 259.588L338.905 259.456C338.905 258.978 339.037 258.594 339.313 258.319C339.588 258.044 339.888 257.852 340.211 257.768C340.535 257.685 340.834 257.529 341.11 257.313C341.385 257.098 341.517 256.811 341.517 256.451C341.517 256.092 341.409 255.805 341.205 255.601C341.002 255.398 340.69 255.302 340.271 255.302C339.852 255.302 339.552 255.362 339.361 255.494C339.169 255.625 339.049 255.757 339.001 255.889L338.953 256.092C338.857 256.38 338.738 256.607 338.606 256.751C338.474 256.894 338.294 256.978 338.091 256.978C337.875 256.978 337.6 256.906 337.252 256.775C336.581 256.523 336.246 256.2 336.246 255.817C336.246 255.649 336.282 255.482 336.342 255.302C336.414 255.135 336.461 254.979 336.509 254.871C336.557 254.751 336.677 254.548 336.869 254.261C337.06 253.973 337.288 253.722 337.54 253.494C337.791 253.279 338.151 253.075 338.606 252.896C339.061 252.716 339.576 252.62 340.127 252.62C341.313 252.62 342.284 253.004 343.026 253.758C343.781 254.512 344.152 255.398 344.152 256.404C344.152 256.882 344.069 257.325 343.889 257.732C343.721 258.14 343.506 258.463 343.254 258.69C342.763 259.157 342.308 259.468 341.876 259.624L341.613 259.708C341.613 259.899 341.601 260.043 341.589 260.139C341.577 260.235 341.517 260.354 341.433 260.462C341.349 260.582 341.205 260.666 341.014 260.713C340.822 260.761 340.559 260.785 340.235 260.785C339.912 260.785 339.648 260.761 339.456 260.702C339.265 260.642 339.121 260.546 339.049 260.414C338.965 260.282 338.929 260.163 338.905 260.055C338.905 259.983 338.893 259.816 338.893 259.588ZM338.821 262.581C338.905 262.414 339.073 262.282 339.301 262.21C339.528 262.126 339.888 262.09 340.379 262.09C340.87 262.09 341.229 262.198 341.445 262.413C341.661 262.629 341.768 263.048 341.768 263.683C341.768 264.125 341.709 264.461 341.601 264.676C341.493 264.892 341.313 265.035 341.086 265.107C340.858 265.179 340.499 265.215 340.019 265.215C339.54 265.215 339.169 265.095 338.917 264.868C338.726 264.676 338.63 264.353 338.63 263.898V263.635C338.63 263.383 338.642 263.18 338.654 263.048C338.678 262.904 338.738 262.761 338.821 262.581Z" fill="#2ED1A2"/>
<path d="M353.916 263.479C353.628 263.12 353.485 262.797 353.485 262.521C353.485 262.246 353.724 261.863 354.203 261.384C354.479 261.121 354.778 260.977 355.09 260.977C355.401 260.977 355.845 261.252 356.396 261.815C356.551 262.006 356.779 262.186 357.067 262.354C357.354 262.521 357.63 262.617 357.869 262.617C358.911 262.617 359.427 262.198 359.427 261.348C359.427 261.097 359.283 260.881 358.995 260.702C358.708 260.534 358.36 260.402 357.929 260.318C357.51 260.235 357.043 260.115 356.551 259.947C356.06 259.78 355.605 259.564 355.174 259.337C354.754 259.097 354.395 258.726 354.108 258.223C353.82 257.72 353.676 257.098 353.676 256.392C353.676 255.41 354.048 254.548 354.778 253.818C355.509 253.087 356.504 252.716 357.773 252.716C358.444 252.716 359.055 252.8 359.606 252.98C360.157 253.147 360.541 253.327 360.756 253.506L361.176 253.83C361.523 254.153 361.691 254.428 361.691 254.656C361.691 254.883 361.559 255.182 361.283 255.578C360.9 256.14 360.517 256.416 360.109 256.416C359.87 256.416 359.582 256.308 359.235 256.08C359.199 256.056 359.139 255.997 359.043 255.913C358.947 255.829 358.864 255.745 358.78 255.697C358.54 255.554 358.241 255.482 357.881 255.482C357.522 255.482 357.21 255.566 356.971 255.745C356.731 255.913 356.611 256.164 356.611 256.463C356.611 256.775 356.755 257.014 357.043 257.206C357.33 257.397 357.678 257.529 358.109 257.589C358.528 257.661 358.995 257.756 359.498 257.9C360.002 258.044 360.469 258.211 360.888 258.415C361.307 258.618 361.667 258.966 361.954 259.468C362.242 259.971 362.386 260.582 362.386 261.3C362.386 262.03 362.242 262.665 361.954 263.216C361.667 263.766 361.283 264.197 360.816 264.497C359.906 265.083 358.947 265.383 357.917 265.383C357.39 265.383 356.899 265.323 356.42 265.191C355.94 265.059 355.569 264.904 355.282 264.712C354.695 264.353 354.275 264.006 354.036 263.671L353.916 263.479Z" fill="#2ED1A2"/>
<path d="M366.267 254.739C366.183 254.907 366.039 255.015 365.824 255.087C365.608 255.158 365.332 255.182 364.973 255.182C364.626 255.182 364.338 255.146 364.123 255.087C363.907 255.015 363.763 254.907 363.679 254.739C363.595 254.572 363.547 254.428 363.524 254.296C363.512 254.165 363.5 253.973 363.5 253.722C363.5 253.47 363.512 253.267 363.524 253.147C363.536 253.015 363.583 252.872 363.667 252.716C363.823 252.417 364.254 252.261 364.973 252.261C365.68 252.261 366.099 252.417 366.243 252.716C366.327 252.884 366.387 253.027 366.399 253.159C366.411 253.291 366.423 253.482 366.423 253.734C366.423 253.985 366.411 254.189 366.399 254.308C366.411 254.428 366.351 254.572 366.267 254.739ZM363.512 257.852C363.512 257.601 363.524 257.397 363.536 257.277C363.547 257.146 363.595 257.002 363.679 256.835C363.835 256.547 364.266 256.404 364.985 256.404C365.524 256.404 365.907 256.499 366.123 256.691C366.315 256.847 366.411 257.086 366.423 257.409C366.435 257.517 366.435 257.685 366.435 257.9V263.766C366.435 264.018 366.423 264.221 366.411 264.341C366.399 264.473 366.339 264.616 366.255 264.784C366.111 265.071 365.68 265.215 364.961 265.215C364.254 265.215 363.823 265.059 363.667 264.76C363.583 264.592 363.547 264.449 363.524 264.329C363.512 264.209 363.5 264.006 363.5 263.742V257.852H363.512Z" fill="#2ED1A2"/>
<path d="M373.527 257.313C373.598 256.691 374.03 256.38 374.856 256.38C375.288 256.38 375.611 256.415 375.827 256.475C376.042 256.547 376.186 256.655 376.27 256.822C376.354 256.99 376.402 257.134 376.426 257.265C376.438 257.397 376.45 257.589 376.45 257.84V263.706C376.45 263.958 376.438 264.161 376.426 264.281C376.414 264.413 376.366 264.556 376.282 264.724C376.126 265.011 375.743 265.155 375.132 265.155C374.521 265.155 374.114 265.083 373.91 264.928C373.706 264.772 373.586 264.556 373.551 264.269C373.131 264.856 372.448 265.155 371.478 265.155C370.508 265.155 369.609 264.712 368.783 263.826C367.956 262.94 367.537 261.923 367.537 260.749C367.537 259.576 367.956 258.558 368.783 257.684C369.621 256.811 370.532 256.368 371.526 256.368C371.909 256.368 372.257 256.439 372.568 256.571C372.88 256.703 373.095 256.834 373.227 256.954C373.347 257.086 373.443 257.194 373.527 257.313ZM370.472 260.797C370.472 261.168 370.616 261.504 370.903 261.791C371.191 262.09 371.55 262.234 371.957 262.234C372.377 262.234 372.712 262.078 372.987 261.779C373.263 261.48 373.395 261.144 373.395 260.785C373.395 260.426 373.263 260.079 372.999 259.768C372.736 259.456 372.389 259.301 371.945 259.301C371.502 259.301 371.143 259.456 370.867 259.768C370.604 260.091 370.472 260.426 370.472 260.797Z" fill="#2ED1A2"/>
<path d="M377.779 267.597V257.804C377.779 257.553 377.791 257.361 377.803 257.23C377.815 257.11 377.863 256.966 377.947 256.811C378.103 256.511 378.474 256.356 379.073 256.356C379.66 256.356 380.068 256.428 380.271 256.583C380.475 256.739 380.595 256.954 380.631 257.242C381.05 256.655 381.721 256.368 382.631 256.368C383.542 256.368 384.404 256.799 385.219 257.661C386.033 258.523 386.441 259.516 386.441 260.666C386.441 261.803 386.033 262.809 385.219 263.671C384.404 264.533 383.542 264.964 382.631 264.964C381.709 264.964 381.05 264.712 380.631 264.197V267.585C380.631 267.837 380.619 268.028 380.607 268.16C380.595 268.28 380.535 268.423 380.451 268.591C380.367 268.759 380.223 268.866 380.02 268.938C379.816 269.01 379.54 269.034 379.193 269.034C378.846 269.034 378.57 268.998 378.366 268.938C378.163 268.866 378.019 268.759 377.935 268.603C377.851 268.447 377.803 268.304 377.779 268.184C377.791 268.052 377.779 267.861 377.779 267.597ZM381.11 259.708C380.858 260.007 380.726 260.342 380.726 260.702C380.726 261.061 380.858 261.384 381.122 261.683C381.385 261.983 381.721 262.126 382.128 262.126C382.535 262.126 382.883 261.982 383.17 261.695C383.458 261.408 383.602 261.073 383.602 260.702C383.602 260.33 383.47 259.995 383.194 259.708C382.931 259.409 382.571 259.265 382.14 259.265C381.709 259.253 381.361 259.409 381.11 259.708Z" fill="#2ED1A2"/>
<path d="M393.281 257.313C393.353 256.691 393.784 256.38 394.611 256.38C395.042 256.38 395.366 256.415 395.581 256.475C395.797 256.547 395.941 256.655 396.025 256.822C396.108 256.99 396.156 257.134 396.18 257.265C396.192 257.397 396.204 257.589 396.204 257.84V263.706C396.204 263.958 396.192 264.161 396.18 264.281C396.168 264.413 396.12 264.556 396.036 264.724C395.881 265.011 395.497 265.155 394.886 265.155C394.275 265.155 393.868 265.083 393.665 264.928C393.461 264.772 393.341 264.556 393.305 264.269C392.886 264.856 392.203 265.155 391.233 265.155C390.262 265.155 389.364 264.712 388.537 263.826C387.711 262.94 387.291 261.923 387.291 260.749C387.291 259.576 387.711 258.558 388.537 257.684C389.376 256.811 390.286 256.368 391.281 256.368C391.664 256.368 392.011 256.439 392.323 256.571C392.634 256.703 392.85 256.834 392.982 256.954C393.101 257.086 393.209 257.194 393.281 257.313ZM390.226 260.797C390.226 261.168 390.37 261.504 390.658 261.791C390.945 262.09 391.304 262.234 391.712 262.234C392.131 262.234 392.467 262.078 392.742 261.779C393.018 261.48 393.149 261.144 393.149 260.785C393.149 260.426 393.018 260.079 392.754 259.768C392.49 259.456 392.143 259.301 391.7 259.301C391.257 259.301 390.897 259.456 390.622 259.768C390.37 260.091 390.226 260.426 390.226 260.797Z" fill="#2ED1A2"/>
<path d="M406.914 259.337L405.824 259.265V261.575C405.824 261.875 405.872 262.09 405.968 262.234C406.064 262.366 406.243 262.437 406.507 262.437C406.77 262.437 406.974 262.449 407.106 262.461C407.25 262.473 407.393 262.533 407.549 262.617C407.801 262.761 407.932 263.132 407.932 263.742C407.932 264.449 407.777 264.88 407.465 265.035C407.297 265.119 407.154 265.167 407.022 265.179C406.89 265.191 406.71 265.203 406.459 265.203C405.297 265.203 404.41 264.94 403.811 264.413C403.212 263.886 402.901 263 402.901 261.743V259.265C402.685 259.301 402.458 259.313 402.218 259.313C401.966 259.313 401.763 259.217 401.607 259.025C401.439 258.834 401.367 258.511 401.367 258.056C401.367 257.601 401.391 257.266 401.451 257.062C401.511 256.858 401.583 256.703 401.691 256.619C401.871 256.475 402.098 256.404 402.362 256.404L402.913 256.475V254.751C402.913 254.5 402.925 254.308 402.937 254.177C402.949 254.057 403.009 253.925 403.093 253.77C403.236 253.494 403.668 253.351 404.386 253.351C405.141 253.351 405.596 253.554 405.74 253.973C405.8 254.153 405.824 254.44 405.824 254.823V256.463C406.315 256.416 406.686 256.392 406.938 256.392C407.19 256.392 407.381 256.404 407.513 256.416C407.645 256.428 407.789 256.487 407.956 256.571C408.244 256.715 408.388 257.146 408.388 257.864C408.388 258.57 408.232 259.001 407.932 259.157C407.765 259.241 407.621 259.289 407.489 259.301C407.369 259.325 407.178 259.337 406.914 259.337Z" fill="#2ED1A2"/>
<path d="M415.048 257.313C415.12 256.691 415.551 256.38 416.378 256.38C416.809 256.38 417.133 256.415 417.348 256.475C417.564 256.547 417.708 256.655 417.792 256.822C417.875 256.99 417.923 257.134 417.947 257.265C417.959 257.397 417.971 257.589 417.971 257.84V263.706C417.971 263.958 417.959 264.161 417.947 264.281C417.935 264.413 417.887 264.556 417.804 264.724C417.648 265.011 417.264 265.155 416.654 265.155C416.043 265.155 415.635 265.083 415.432 264.928C415.228 264.772 415.108 264.556 415.072 264.269C414.653 264.856 413.97 265.155 413 265.155C412.029 265.155 411.131 264.712 410.304 263.826C409.478 262.94 409.058 261.923 409.058 260.749C409.058 259.576 409.478 258.558 410.304 257.684C411.143 256.811 412.053 256.368 413.048 256.368C413.431 256.368 413.778 256.439 414.09 256.571C414.401 256.703 414.617 256.834 414.749 256.954C414.869 257.086 414.976 257.194 415.048 257.313ZM411.993 260.797C411.993 261.168 412.137 261.504 412.425 261.791C412.712 262.09 413.072 262.234 413.479 262.234C413.898 262.234 414.234 262.078 414.509 261.779C414.785 261.48 414.916 261.144 414.916 260.785C414.916 260.426 414.785 260.079 414.521 259.768C414.258 259.456 413.91 259.301 413.467 259.301C413.024 259.301 412.664 259.456 412.389 259.768C412.137 260.091 411.993 260.426 411.993 260.797Z" fill="#2ED1A2"/>
<path d="M424.512 260.785L426.74 262.629C427.016 262.868 427.196 263.048 427.268 263.168C427.339 263.287 427.375 263.407 427.375 263.515C427.375 263.778 427.208 264.149 426.86 264.604C426.477 265.071 426.141 265.311 425.854 265.311C425.602 265.311 425.267 265.143 424.836 264.82L424.668 264.7C424.416 264.485 424.009 264.114 423.482 263.587C422.943 263.06 422.536 262.677 422.26 262.449V263.742C422.26 263.994 422.248 264.197 422.236 264.317C422.224 264.449 422.164 264.592 422.08 264.76C421.937 265.047 421.505 265.191 420.786 265.191C420.08 265.191 419.648 265.035 419.493 264.736C419.409 264.568 419.373 264.425 419.349 264.293C419.337 264.161 419.325 263.97 419.325 263.718V253.686C419.325 253.435 419.337 253.231 419.349 253.111C419.361 252.98 419.409 252.836 419.493 252.668C419.648 252.369 420.08 252.213 420.798 252.213C421.338 252.213 421.721 252.309 421.937 252.501C422.128 252.656 422.224 252.908 422.236 253.243C422.248 253.339 422.248 253.494 422.248 253.71V259.025C422.452 258.858 422.751 258.57 423.158 258.175C423.566 257.768 423.865 257.493 424.069 257.325L424.273 257.194C424.668 256.894 425.003 256.739 425.279 256.739C425.554 256.739 425.878 256.966 426.237 257.421C426.597 257.876 426.776 258.223 426.776 258.487C426.776 258.738 426.573 259.049 426.153 259.397L424.512 260.785Z" fill="#2ED1A2"/>
<path d="M431.724 265.167C430.598 265.167 429.663 264.736 428.909 263.886C428.166 263.036 427.795 261.994 427.795 260.761V257.828C427.795 257.565 427.807 257.361 427.819 257.242C427.831 257.122 427.878 256.978 427.962 256.811C428.118 256.511 428.549 256.356 429.268 256.356C430.047 256.356 430.514 256.571 430.646 256.99C430.718 257.17 430.742 257.457 430.742 257.84V260.773C430.742 261.228 430.873 261.587 431.137 261.851C431.4 262.102 431.748 262.234 432.191 262.234C432.634 262.234 432.994 262.102 433.269 261.827C433.545 261.563 433.677 261.204 433.677 260.773V257.804C433.677 257.553 433.689 257.349 433.701 257.23C433.713 257.098 433.773 256.954 433.856 256.787C434 256.499 434.431 256.356 435.15 256.356C435.857 256.356 436.288 256.511 436.444 256.811C436.528 256.978 436.564 257.122 436.588 257.254C436.6 257.385 436.612 257.577 436.612 257.828V263.766C436.612 264.018 436.6 264.197 436.588 264.329C436.576 264.461 436.516 264.604 436.432 264.76C436.264 265.047 435.833 265.191 435.138 265.191C434.455 265.191 434.036 265.059 433.88 264.784C433.772 264.592 433.713 264.365 433.713 264.101C433.665 264.185 433.569 264.293 433.413 264.437C433.257 264.58 433.102 264.7 432.958 264.808C432.587 265.047 432.167 265.167 431.724 265.167Z" fill="#2ED1A2"/>
<path d="M443.093 259.337L442.003 259.265V261.575C442.003 261.875 442.05 262.09 442.146 262.234C442.242 262.366 442.422 262.437 442.685 262.437C442.949 262.437 443.153 262.449 443.284 262.461C443.428 262.473 443.572 262.533 443.728 262.617C443.979 262.761 444.111 263.132 444.111 263.742C444.111 264.449 443.955 264.88 443.644 265.035C443.476 265.119 443.332 265.167 443.201 265.179C443.069 265.191 442.889 265.203 442.637 265.203C441.475 265.203 440.589 264.94 439.99 264.413C439.391 263.886 439.079 263 439.079 261.743V259.265C438.864 259.301 438.636 259.313 438.397 259.313C438.145 259.313 437.941 259.217 437.786 259.025C437.618 258.834 437.546 258.511 437.546 258.056C437.546 257.601 437.57 257.266 437.63 257.062C437.69 256.858 437.762 256.703 437.87 256.619C438.049 256.475 438.277 256.404 438.54 256.404L439.091 256.475V254.751C439.091 254.5 439.103 254.308 439.115 254.177C439.127 254.057 439.187 253.925 439.271 253.77C439.415 253.494 439.846 253.351 440.565 253.351C441.32 253.351 441.775 253.554 441.919 253.973C441.979 254.153 442.003 254.44 442.003 254.823V256.463C442.494 256.416 442.865 256.392 443.117 256.392C443.368 256.392 443.56 256.404 443.692 256.416C443.823 256.428 443.967 256.487 444.135 256.571C444.422 256.715 444.566 257.146 444.566 257.864C444.566 258.57 444.411 259.001 444.111 259.157C443.943 259.241 443.8 259.289 443.668 259.301C443.548 259.325 443.344 259.337 443.093 259.337Z" fill="#2ED1A2"/>
<path d="M445.656 262.653C445.764 262.437 445.944 262.282 446.171 262.21C446.399 262.126 446.758 262.09 447.25 262.09C447.741 262.09 448.088 262.198 448.304 262.413C448.519 262.629 448.627 262.964 448.627 263.419V263.682C448.627 263.946 448.615 264.149 448.603 264.281C448.591 264.413 448.531 264.568 448.448 264.736C448.268 265.059 447.837 265.227 447.166 265.227C446.495 265.227 446.04 265.119 445.824 264.904C445.608 264.688 445.5 264.269 445.5 263.635C445.488 263.192 445.548 262.868 445.656 262.653ZM447.908 260.701C447.693 260.761 447.405 260.785 447.058 260.785C446.698 260.785 446.411 260.761 446.207 260.701C445.992 260.642 445.848 260.546 445.764 260.402C445.68 260.259 445.632 260.127 445.608 260.019C445.596 259.911 445.584 259.732 445.584 259.504V254.189C445.584 253.949 445.596 253.782 445.608 253.662C445.62 253.542 445.68 253.411 445.764 253.267C445.848 253.123 446.004 253.015 446.219 252.956C446.435 252.896 446.722 252.86 447.07 252.86C447.429 252.86 447.717 252.896 447.92 252.956C448.136 253.015 448.28 253.123 448.364 253.279C448.448 253.435 448.496 253.566 448.519 253.686C448.531 253.806 448.543 253.973 448.543 254.213V259.528C448.543 259.768 448.531 259.935 448.519 260.043C448.507 260.151 448.448 260.282 448.364 260.414C448.268 260.546 448.112 260.642 447.908 260.701Z" fill="#2ED1A2"/>
<path d="M450.137 262.653C450.245 262.437 450.424 262.282 450.652 262.21C450.879 262.126 451.239 262.09 451.73 262.09C452.221 262.09 452.569 262.198 452.784 262.413C453 262.629 453.108 262.964 453.108 263.419V263.682C453.108 263.946 453.096 264.149 453.084 264.281C453.072 264.413 453.012 264.568 452.928 264.736C452.748 265.059 452.317 265.227 451.646 265.227C450.975 265.227 450.52 265.119 450.304 264.904C450.089 264.688 449.981 264.269 449.981 263.635C449.969 263.192 450.029 262.868 450.137 262.653ZM452.389 260.701C452.173 260.761 451.886 260.785 451.538 260.785C451.179 260.785 450.891 260.761 450.688 260.701C450.472 260.642 450.328 260.546 450.245 260.402C450.161 260.259 450.113 260.127 450.089 260.019C450.077 259.911 450.065 259.732 450.065 259.504V254.189C450.065 253.949 450.077 253.782 450.089 253.662C450.101 253.542 450.161 253.411 450.245 253.267C450.328 253.123 450.484 253.015 450.7 252.956C450.915 252.896 451.203 252.86 451.55 252.86C451.91 252.86 452.197 252.896 452.401 252.956C452.616 253.015 452.76 253.123 452.844 253.279C452.928 253.435 452.976 253.566 453 253.686C453.012 253.806 453.024 253.973 453.024 254.213V259.528C453.024 259.768 453.012 259.935 453 260.043C452.988 260.151 452.928 260.282 452.844 260.414C452.748 260.546 452.593 260.642 452.389 260.701Z" fill="#2ED1A2"/>
</svg>
