<svg width="181" height="181" viewBox="0 0 181 181" fill="none" xmlns="http://www.w3.org/2000/svg">
<path d="M90.15 180.3C139.938 180.3 180.3 139.939 180.3 90.15C180.3 40.3615 139.938 0 90.15 0C40.3615 0 0 40.3615 0 90.15C0 139.939 40.3615 180.3 90.15 180.3Z" fill="#2ED1A2"/>
<path d="M58.1108 27.4622C57.1693 27.4622 55.6774 28.3747 53.6496 30.2142C52.7371 31.0398 52.1867 32.0826 52.0129 33.3428C51.7956 34.4581 51.7522 36.7031 51.9115 40.0779C51.9549 40.1793 51.9984 40.2228 52.0419 40.2228C52.1143 40.2228 52.2012 40.0924 52.3026 39.8462C52.4039 40.947 52.6212 41.7871 52.9688 42.3665C54.2 44.8722 55.0546 46.1324 55.5181 46.1324C55.5615 46.1324 55.5905 46.1179 55.6339 46.1034L56.054 47.8994L52.9978 49.8693C52.6792 50.1155 52.4329 50.5645 52.2591 51.2163C51.926 53.5773 52.0853 56.17 52.7226 58.9654L52.3026 63.1079C50.8686 62.0651 49.5795 60.7035 48.4353 59.0378L48.6236 58.2267C48.4932 58.0239 48.2035 57.8212 47.7545 57.6039C47.7255 56.3438 47.5517 55.4457 47.2186 54.9098C46.9579 54.4463 46.3061 54.1711 45.2487 54.1132L43.3948 51.2888L40.382 51.535C40.3675 51.535 40.3531 51.535 40.3386 51.535C40.1793 51.535 40.1068 51.6219 40.1213 51.8102L41.1931 53.8235C40.5269 54.4898 40.2806 54.9098 40.4255 55.0836C40.4545 55.4023 40.831 55.8658 41.5552 56.4741L41.2076 57.7053C41.3525 58.0095 41.5697 58.1833 41.8739 58.2267C41.8305 58.7771 41.8884 59.1537 42.0477 59.3565L43.4817 60.9787L46.2192 61.5002L49.8113 67.8298C50.4631 68.7713 51.3321 69.6983 52.4329 70.5963C53.5917 71.5233 54.4752 71.9723 55.098 71.9723C55.2718 71.9723 55.4167 71.9433 55.5471 71.8709C57.2272 70.886 58.0528 69.2927 58.0238 67.0766L59.4433 67.5111C59.733 67.8732 60.0372 68.5685 60.3848 69.5824C61.4856 72.7979 62.0215 74.8836 61.978 75.8251C62.1663 76.332 62.3691 76.6072 62.6009 76.6652L65.266 84.9357C64.4693 87.6732 63.8465 93.0903 63.4265 101.187C63.2671 105.185 63.2382 107.647 63.3396 108.617L64.4114 113.759L63.8755 118.336C64.0638 123.029 64.0783 126.042 63.9334 127.375C63.8465 129.098 63.5568 131.068 63.0644 133.27C62.9775 133.4 63.0789 133.574 63.3396 133.777L62.4705 135.631C62.2678 135.602 62.1084 135.573 61.978 135.573C61.7608 135.573 61.6594 135.631 61.6884 135.732C60.0806 137.832 58.8495 139.252 58.0094 139.99C57.1838 140.845 56.0105 141.265 54.4897 141.265C54.3159 141.265 54.1421 141.265 53.9538 141.25C53.5917 141.439 53.3744 141.917 53.2875 142.67C53.2296 143.727 53.4468 144.495 53.9393 144.973C56.6623 145.306 58.5453 145.48 59.5592 145.48C59.5737 145.48 59.5882 145.48 59.6026 145.48C59.6751 145.48 59.733 145.48 59.7909 145.48C60.8338 145.48 61.6304 145.364 62.1664 145.147L65.1501 143.336L65.295 145.364L65.4977 145.465L70.9293 145.364C70.9583 145.379 71.0017 145.378 71.0307 145.378C71.1611 145.378 71.2335 145.306 71.2625 145.147C71.0597 143.611 71.1031 141.453 71.3639 138.672C71.4508 138.296 71.0162 137.514 70.0603 136.326C69.9009 136.007 69.8285 135.486 69.8575 134.733C70.0313 130.373 71.0597 125.274 72.9426 119.423L72.4502 109.863C73.6813 111.804 76.0133 114.252 79.4316 117.207L81.6911 120.205L87.1952 126.491L90.8597 131.633L91.4246 131.821L93.1916 134.718C92.844 135.254 92.7716 135.529 93.0033 135.529C95.2484 137.76 96.494 139.252 96.7403 140.005C97.0734 140.425 96.8561 141.526 96.0885 143.293C96.074 143.713 96.3058 144.191 96.7982 144.698C97.3486 145.002 97.8845 145.147 98.3915 145.147C100.072 145.147 101.477 143.525 102.606 140.295C103.36 139.324 102.896 137.311 101.216 134.269L103.664 134.313L104.345 128.823L98.6377 127.317L96.0595 127.432L95.2194 126.665C94.5097 126.143 92.4385 122.464 88.9622 115.628C83.8493 110.703 81.4159 107.879 81.6622 107.155L79.7358 90.208C81.9808 87.1808 82.705 84.2404 81.9084 81.4015L83.0671 84.0956C82.8354 85.3123 82.8644 86.2248 83.1251 86.8187L84.7618 89.223C84.9501 89.701 84.9066 90.4542 84.6025 91.4681L84.7473 91.4102L84.7183 91.5695C84.7473 91.5695 84.7618 91.5695 84.7908 91.5695C85.1818 91.5695 85.6308 91.7288 86.1668 92.033L89.614 95.5816C95.625 102.679 101.578 109.327 107.444 115.497L107.995 116.207C107.574 117.12 107.517 117.931 107.821 118.641C108.038 119.278 108.473 119.973 109.139 120.726L124.782 135.804L130.098 142.482C130.112 142.583 130.17 142.626 130.271 142.626C130.358 142.626 130.489 142.583 130.633 142.511C130.691 143.148 130.981 143.669 131.474 144.075C131.85 144.423 132.357 144.596 133.038 144.596C133.139 144.596 133.241 144.596 133.342 144.582C133.965 144.538 134.501 144.176 134.935 143.467C135.877 143.582 136.558 143.655 136.992 143.655C137.34 143.655 137.513 143.611 137.528 143.539C137.991 144.958 138.788 145.668 139.903 145.668C140.236 145.668 140.599 145.61 140.975 145.48L148.449 138.151L149.043 138.165L151.418 135.471C151.447 135.283 151.36 135.196 151.187 135.196C151.172 135.196 151.158 135.196 151.158 135.196L148.855 134.762L148.536 133.907C149.506 133.038 149.782 132.357 149.347 131.865C148.246 130.098 147.102 128.62 145.929 127.432C144.437 125.767 138.18 119.886 127.128 109.776C125.694 108.878 124.159 108.429 122.508 108.429C120.494 108.429 118.336 109.095 116.019 110.428C114.252 109.095 113.122 108.429 112.629 108.429C112.499 108.429 112.412 108.473 112.369 108.56C111.674 108.748 111.123 109.313 110.703 110.283C110.486 110.79 110.689 111.5 111.34 112.383C111.384 112.441 111.253 112.601 110.964 112.861L90.7003 91.2508L90.7438 90.6715L89.223 89.0347C89.5416 87.7891 89.4837 86.9056 89.0781 86.3552C86.92 84.4432 85.8191 83.241 85.7757 82.7631C85.4136 82.0244 84.9501 80.4601 84.4142 78.0991C88.0787 75.1733 89.9617 72.7255 90.063 70.7701C90.1934 69.9879 90.0051 68.9306 89.5271 67.6125L86.1523 60.7035C83.4437 57.2852 80.8945 54.9098 78.4756 53.6062C79.6054 52.8241 79.8227 52.1144 79.1419 51.4626C78.8522 51.3177 78.6205 51.2453 78.4322 51.2453C78.3018 51.2453 78.1859 51.2743 78.099 51.3467L75.4774 53.3745C72.7688 50.0286 71.0018 48.1022 70.1762 47.5808L63.1802 44.6115C62.9485 44.4812 62.8906 43.4093 62.9919 41.396C64.8604 41.0918 65.7439 38.224 65.6281 32.7489C65.3818 31.735 64.7735 30.7935 63.8031 29.9245C63.441 29.5913 62.934 29.4175 62.2677 29.4175C62.1663 29.4175 62.065 29.4175 61.9491 29.432C60.9207 28.1719 59.733 27.5056 58.4149 27.4622H58.328C58.2556 27.4622 58.1832 27.4622 58.1108 27.4622ZM140.135 145.407C140.135 145.407 140.15 145.407 140.135 145.407C140.15 145.407 140.135 145.407 140.135 145.407ZM139.845 145.407C139.831 145.407 139.831 145.407 139.845 145.407C139.831 145.407 139.831 145.407 139.845 145.407ZM136.876 143.38C136.876 143.38 136.862 143.38 136.876 143.38C136.862 143.38 136.862 143.38 136.876 143.38ZM91.1928 131.401C91.2218 131.401 91.2507 131.401 91.2797 131.401C91.2507 131.401 91.2218 131.401 91.1928 131.401C91.1638 131.401 91.1349 131.401 91.1059 131.401C91.1349 131.401 91.1638 131.401 91.1928 131.401ZM88.6436 91.4246L109.53 114.165L109.168 114.599L108.299 113.716L88.2091 91.9026L88.6291 91.4536L88.6436 91.4246ZM112.644 108.907C112.731 108.907 112.832 108.936 112.963 108.98C112.832 108.936 112.731 108.907 112.644 108.907C112.557 108.907 112.499 108.936 112.456 108.98C112.499 108.936 112.557 108.907 112.644 108.907ZM122.522 108.864C122.855 108.864 123.174 108.878 123.493 108.907C123.174 108.878 122.841 108.864 122.522 108.864C122.189 108.864 121.856 108.878 121.523 108.907C121.856 108.878 122.189 108.864 122.522 108.864ZM71.8418 107.792H71.9432L71.9867 108.415L71.9432 107.792H71.8418ZM86.3406 88.3395L86.7461 88.6726L86.413 88.8899L86.3406 88.3395Z" fill="white"/>
</svg>
