<svg width="577" height="182" viewBox="0 0 577 182" fill="none" xmlns="http://www.w3.org/2000/svg">
<path d="M201.095 60.2421C201.433 59.5906 202.021 59.1395 202.873 58.8639C203.724 58.6008 204.851 58.463 206.254 58.463C207.656 58.463 208.783 58.6008 209.635 58.8639C210.486 59.127 211.075 59.6031 211.413 60.2672C211.751 60.9437 211.952 61.5326 212.014 62.0463C212.077 62.56 212.114 63.3368 212.114 64.3642V104.383C212.114 105.41 212.077 106.187 212.014 106.701C211.952 107.214 211.739 107.791 211.376 108.405C210.712 109.607 208.821 110.209 205.716 110.209C202.61 110.209 200.882 109.119 200.519 106.926C198.64 109.069 196.036 110.146 192.68 110.146C188.66 110.146 185.004 108.392 181.698 104.884C178.392 101.376 176.739 97.2911 176.739 92.6177C176.739 87.9443 178.404 83.8472 181.735 80.314C185.066 76.7807 188.71 75.0141 192.692 75.0141C195.998 75.0141 198.565 76.1292 200.394 78.3719V64.3016C200.394 63.2742 200.431 62.4974 200.494 61.9837C200.556 61.47 200.757 60.8936 201.095 60.2421ZM190.213 96.6772C191.378 97.88 192.78 98.4814 194.433 98.4814C196.086 98.4814 197.463 97.88 198.553 96.6772C199.642 95.4744 200.193 94.1463 200.193 92.6929C200.193 91.2395 199.667 89.8863 198.615 88.6334C197.564 87.3805 196.149 86.754 194.358 86.754C192.567 86.754 191.14 87.3679 190.075 88.5958C188.998 89.8237 188.472 91.1768 188.472 92.6553C188.472 94.1337 189.048 95.4744 190.213 96.6772Z" fill="#2ED1A2"/>
<path d="M219.991 75.163C220.817 74.8998 221.919 74.762 223.309 74.762C224.699 74.762 225.789 74.8998 226.59 75.163C227.392 75.4261 227.968 75.8897 228.293 76.5412C228.631 77.1927 228.832 77.769 228.894 78.2827C228.957 78.7964 228.994 79.5733 228.994 80.6007V108.215C228.994 113.44 227.191 117.625 223.572 120.744C219.953 123.877 215.984 125.443 211.651 125.443C210.624 125.443 209.86 125.405 209.372 125.343C208.884 125.28 208.32 125.08 207.694 124.779C206.53 124.152 205.953 122.524 205.953 119.88C205.953 117.249 206.429 115.595 207.394 114.918C208.358 114.254 209.648 113.916 211.275 113.916C212.903 113.916 214.343 113.465 215.596 112.575C216.848 111.686 217.474 110.069 217.474 107.752V80.112C217.474 78.5459 217.687 77.3932 218.113 76.6539C218.538 75.9272 219.164 75.4261 219.991 75.163ZM226.49 69.7002C225.663 69.9508 224.562 70.0636 223.172 70.0636C221.782 70.0636 220.692 69.9257 219.891 69.6626C219.089 69.3995 218.513 68.9359 218.188 68.2844C217.85 67.6329 217.649 67.0565 217.587 66.5428C217.524 66.0291 217.486 65.2648 217.486 64.2249C217.486 63.1975 217.524 62.4332 217.587 61.9446C217.649 61.456 217.837 60.8921 218.15 60.2657C218.776 59.1005 220.492 58.5241 223.309 58.5241C225.989 58.5241 227.667 59.1005 228.331 60.2657C228.644 60.842 228.832 61.3808 228.894 61.8694C228.957 62.3581 228.994 63.0973 228.994 64.0871V64.488C228.994 65.4653 228.957 66.2045 228.894 66.7057C228.832 67.1944 228.619 67.7582 228.256 68.3846C227.905 69.0111 227.316 69.4496 226.49 69.7002Z" fill="#2ED1A2"/>
<path d="M257.27 78.7087C257.533 76.2029 259.298 74.95 262.566 74.95C264.307 74.95 265.609 75.0878 266.448 75.3509C267.3 75.614 267.888 76.0901 268.227 76.7542C268.565 77.4182 268.765 78.0196 268.828 78.5333C268.89 79.047 268.928 79.8238 268.928 80.8512V104.319C268.928 105.346 268.89 106.123 268.828 106.636C268.765 107.15 268.565 107.739 268.264 108.416C267.638 109.581 266.11 110.157 263.681 110.157C261.252 110.157 259.611 109.856 258.785 109.255C257.958 108.654 257.482 107.764 257.345 106.611C255.692 108.979 252.937 110.17 249.068 110.17C245.198 110.17 241.617 108.403 238.311 104.87C235.005 101.337 233.352 97.2395 233.352 92.5661C233.352 87.8927 235.018 83.8081 238.349 80.2999C241.679 76.7918 245.323 75.0377 249.305 75.0377C250.821 75.0377 252.211 75.3008 253.463 75.8395C254.715 76.3783 255.579 76.8795 256.08 77.343C256.556 77.8066 256.957 78.2702 257.27 78.7087ZM245.073 92.6538C245.073 94.1322 245.649 95.4603 246.814 96.6381C247.978 97.8284 249.381 98.4172 251.034 98.4172C252.686 98.4172 254.064 97.8158 255.153 96.613C256.243 95.4102 256.794 94.0821 256.794 92.6287C256.794 91.1753 256.268 89.8222 255.216 88.5693C254.164 87.3163 252.762 86.6899 250.996 86.6899C249.23 86.6899 247.803 87.3163 246.713 88.5693C245.624 89.8096 245.073 91.1753 245.073 92.6538Z" fill="#2ED1A2"/>
<path d="M274.287 64.2375C274.287 63.2101 274.325 62.4332 274.388 61.9195C274.45 61.4059 274.638 60.817 274.951 60.1404C275.577 58.9376 277.318 58.3362 280.173 58.3362C282.903 58.3362 284.593 58.9376 285.269 60.1404C285.632 60.8044 285.833 61.4184 285.908 61.9446C285.971 62.4834 286.008 63.2602 286.008 64.2876V95.3225C286.008 96.9263 286.146 97.9537 286.409 98.3671C286.672 98.7931 287.273 99.0061 288.187 99.0061C289.101 99.0061 289.715 99.0437 290.028 99.1064C290.341 99.169 290.716 99.3695 291.167 99.6702C292.056 100.247 292.507 101.838 292.507 104.431C292.507 107.25 292.056 108.967 291.167 109.593C290.003 110.395 287.235 110.533 282.865 109.994C279.421 109.543 277.193 108.403 276.166 106.574C274.913 104.381 274.287 100.898 274.287 96.1119V64.2375V64.2375Z" fill="#2ED1A2"/>
<path d="M319.104 78.7087C319.367 76.2029 321.133 74.95 324.401 74.95C326.142 74.95 327.444 75.0878 328.283 75.3509C329.135 75.614 329.723 76.0901 330.061 76.7542C330.4 77.4182 330.6 78.0196 330.662 78.5333C330.725 79.047 330.763 79.8238 330.763 80.8512V104.319C330.763 105.346 330.725 106.123 330.662 106.636C330.6 107.15 330.4 107.739 330.099 108.416C329.473 109.581 327.945 110.157 325.516 110.157C323.087 110.157 321.446 109.856 320.62 109.255C319.793 108.654 319.317 107.764 319.18 106.611C317.527 108.979 314.772 110.17 310.902 110.17C307.033 110.17 303.452 108.403 300.146 104.87C296.84 101.337 295.187 97.2395 295.187 92.5661C295.187 87.8927 296.852 83.8081 300.183 80.2999C303.514 76.7918 307.158 75.0377 311.14 75.0377C312.656 75.0377 314.045 75.3008 315.298 75.8395C316.55 76.3783 317.414 76.8795 317.915 77.343C318.391 77.8066 318.791 78.2702 319.104 78.7087ZM306.908 92.6538C306.908 94.1322 307.484 95.4603 308.648 96.6381C309.813 97.8284 311.215 98.4172 312.868 98.4172C314.521 98.4172 315.899 97.8158 316.988 96.613C318.078 95.4102 318.629 94.0821 318.629 92.6287C318.629 91.1753 318.103 89.8222 317.051 88.5693C315.999 87.3163 314.596 86.6899 312.831 86.6899C311.065 86.6899 309.638 87.3163 308.548 88.5693C307.459 89.8096 306.908 91.1753 306.908 92.6538Z" fill="#2ED1A2"/>
<path d="M355.745 74.9625C360.215 74.9625 363.934 76.6665 366.902 80.087C369.87 83.5075 371.36 87.6672 371.36 92.5912V104.394C371.36 105.421 371.322 106.198 371.26 106.712C371.197 107.225 370.997 107.802 370.696 108.416C370.07 109.618 368.329 110.22 365.474 110.22C362.306 110.22 360.465 109.393 359.977 107.739C359.714 106.975 359.576 105.835 359.576 104.319V92.516C359.576 90.6867 359.05 89.2584 357.999 88.231C356.947 87.2036 355.544 86.6899 353.779 86.6899C352.013 86.6899 350.585 87.2287 349.496 88.2936C348.407 89.3712 347.856 90.7744 347.856 92.516V104.381C347.856 105.409 347.818 106.185 347.755 106.699C347.693 107.213 347.48 107.789 347.117 108.403C346.541 109.606 344.813 110.207 341.958 110.207C339.14 110.207 337.425 109.606 336.798 108.403C336.485 107.739 336.297 107.138 336.235 106.624C336.172 106.11 336.135 105.346 336.135 104.306V80.5882C336.135 79.6109 336.172 78.8591 336.235 78.3454C336.297 77.8317 336.51 77.2679 336.874 76.6414C337.5 75.5263 339.215 74.9625 342.033 74.9625C344.763 74.9625 346.428 75.4762 347.054 76.5036C347.505 77.2679 347.718 78.1825 347.718 79.2475C347.893 78.9343 348.294 78.4832 348.92 77.9069C349.546 77.3306 350.147 76.8544 350.723 76.5036C352.238 75.4762 353.916 74.9625 355.745 74.9625Z" fill="#2ED1A2"/>
<path d="M400.399 60.2406C400.737 59.5891 401.325 59.1381 402.177 58.8624C403.028 58.5993 404.155 58.4615 405.558 58.4615C406.96 58.4615 408.087 58.5993 408.939 58.8624C409.791 59.1255 410.379 59.6016 410.717 60.2657C411.055 60.9423 411.256 61.5312 411.318 62.0449C411.381 62.5586 411.418 63.3354 411.418 64.3628V104.381C411.418 105.409 411.381 106.185 411.318 106.699C411.256 107.213 411.043 107.789 410.68 108.403C410.016 109.606 408.125 110.207 405.02 110.207C401.914 110.207 400.186 109.117 399.823 106.925C397.944 109.067 395.34 110.145 391.984 110.145C387.964 110.145 384.308 108.391 381.002 104.882C377.696 101.374 376.043 97.2896 376.043 92.6162C376.043 87.9428 377.709 83.8457 381.039 80.3125C384.37 76.7792 388.014 75.0126 391.996 75.0126C395.302 75.0126 397.869 76.1277 399.698 78.3705V64.3001C399.698 63.2727 399.735 62.4959 399.798 61.9822C399.86 61.4685 400.061 60.8922 400.399 60.2406ZM389.517 96.6757C390.682 97.8785 392.084 98.4799 393.737 98.4799C395.39 98.4799 396.767 97.8785 397.857 96.6757C398.946 95.4729 399.497 94.1448 399.497 92.6914C399.497 91.238 398.971 89.8848 397.919 88.6319C396.868 87.379 395.453 86.7525 393.662 86.7525C391.871 86.7525 390.444 87.3665 389.379 88.5943C388.302 89.8222 387.776 91.1754 387.776 92.6538C387.776 94.1323 388.352 95.4729 389.517 96.6757Z" fill="#2ED1A2"/>
<path d="M419.295 75.163C420.121 74.8998 421.223 74.762 422.613 74.762C424.003 74.762 425.093 74.8998 425.894 75.163C426.696 75.4261 427.272 75.8897 427.597 76.5412C427.935 77.1927 428.136 77.769 428.198 78.2827C428.261 78.7964 428.298 79.5733 428.298 80.6007V108.215C428.298 113.44 426.495 117.625 422.876 120.744C419.257 123.877 415.288 125.443 410.955 125.443C409.928 125.443 409.164 125.405 408.676 125.343C408.188 125.28 407.624 125.08 406.998 124.779C405.833 124.152 405.257 122.524 405.257 119.88C405.257 117.249 405.733 115.595 406.698 114.918C407.662 114.254 408.952 113.916 410.579 113.916C412.207 113.916 413.647 113.465 414.9 112.575C416.152 111.686 416.778 110.069 416.778 107.752V80.112C416.778 78.5459 416.991 77.3932 417.417 76.6539C417.842 75.9272 418.468 75.4261 419.295 75.163ZM425.794 69.7002C424.967 69.9508 423.866 70.0636 422.476 70.0636C421.086 70.0636 419.996 69.9257 419.195 69.6626C418.393 69.3995 417.817 68.9359 417.492 68.2844C417.154 67.6329 416.953 67.0565 416.891 66.5428C416.828 66.0291 416.79 65.2648 416.79 64.2249C416.79 63.1975 416.828 62.4332 416.891 61.9446C416.953 61.456 417.141 60.8921 417.454 60.2657C418.08 59.1005 419.796 58.5241 422.613 58.5241C425.293 58.5241 426.971 59.1005 427.635 60.2657C427.948 60.842 428.136 61.3808 428.198 61.8694C428.261 62.3581 428.298 63.0973 428.298 64.0871V64.488C428.298 65.4653 428.261 66.2045 428.198 66.7057C428.136 67.1944 427.923 67.7582 427.56 68.3846C427.209 69.0111 426.62 69.4496 425.794 69.7002Z" fill="#2ED1A2"/>
<path d="M456.574 78.7087C456.837 76.2029 458.602 74.95 461.871 74.95C463.611 74.95 464.913 75.0878 465.752 75.3509C466.604 75.614 467.193 76.0901 467.531 76.7542C467.869 77.4182 468.069 78.0196 468.132 78.5333C468.194 79.047 468.232 79.8238 468.232 80.8512V104.319C468.232 105.346 468.194 106.123 468.132 106.636C468.069 107.15 467.869 107.739 467.568 108.416C466.942 109.581 465.414 110.157 462.985 110.157C460.556 110.157 458.915 109.856 458.089 109.255C457.262 108.654 456.786 107.764 456.649 106.611C454.996 108.979 452.241 110.17 448.372 110.17C444.502 110.17 440.921 108.403 437.615 104.87C434.309 101.337 432.656 97.2395 432.656 92.5661C432.656 87.8927 434.322 83.8081 437.652 80.2999C440.983 76.7918 444.627 75.0377 448.609 75.0377C450.125 75.0377 451.515 75.3008 452.767 75.8395C454.019 76.3783 454.883 76.8795 455.384 77.343C455.86 77.8066 456.261 78.2702 456.574 78.7087ZM444.377 92.6538C444.377 94.1322 444.953 95.4603 446.118 96.6381C447.282 97.8284 448.685 98.4172 450.338 98.4172C451.99 98.4172 453.368 97.8158 454.457 96.613C455.547 95.4102 456.098 94.0821 456.098 92.6287C456.098 91.1753 455.572 89.8222 454.52 88.5693C453.468 87.3163 452.066 86.6899 450.3 86.6899C448.534 86.6899 447.107 87.3163 446.017 88.5693C444.928 89.8096 444.377 91.1753 444.377 92.6538Z" fill="#2ED1A2"/>
<path d="M473.591 64.2375C473.591 63.2101 473.629 62.4332 473.692 61.9195C473.754 61.4059 473.942 60.817 474.255 60.1404C474.881 58.9376 476.622 58.3362 479.477 58.3362C482.207 58.3362 483.897 58.9376 484.573 60.1404C484.936 60.8044 485.137 61.4184 485.212 61.9446C485.275 62.4834 485.312 63.2602 485.312 64.2876V95.3225C485.312 96.9263 485.45 97.9537 485.713 98.3671C485.976 98.7931 486.577 99.0061 487.491 99.0061C488.405 99.0061 489.019 99.0437 489.332 99.1064C489.645 99.169 490.02 99.3695 490.471 99.6702C491.36 100.247 491.811 101.838 491.811 104.431C491.811 107.25 491.36 108.967 490.471 109.593C489.307 110.395 486.539 110.533 482.169 109.994C478.725 109.543 476.497 108.403 475.47 106.574C474.217 104.381 473.591 100.898 473.591 96.1119V64.2375V64.2375Z" fill="#2ED1A2"/>
<path d="M518.408 78.7087C518.671 76.2029 520.437 74.95 523.705 74.95C525.446 74.95 526.748 75.0878 527.587 75.3509C528.439 75.614 529.027 76.0901 529.366 76.7542C529.704 77.4182 529.904 78.0196 529.967 78.5333C530.029 79.047 530.067 79.8238 530.067 80.8512V104.319C530.067 105.346 530.029 106.123 529.967 106.636C529.904 107.15 529.704 107.739 529.403 108.416C528.777 109.581 527.249 110.157 524.82 110.157C522.391 110.157 520.75 109.856 519.924 109.255C519.097 108.654 518.621 107.764 518.484 106.611C516.831 108.979 514.076 110.17 510.206 110.17C506.337 110.17 502.756 108.403 499.45 104.87C496.144 101.337 494.491 97.2395 494.491 92.5661C494.491 87.8927 496.156 83.8081 499.487 80.2999C502.818 76.7918 506.462 75.0377 510.444 75.0377C511.96 75.0377 513.349 75.3008 514.602 75.8395C515.854 76.3783 516.718 76.8795 517.219 77.343C517.695 77.8066 518.095 78.2702 518.408 78.7087ZM506.212 92.6538C506.212 94.1322 506.788 95.4603 507.952 96.6381C509.117 97.8284 510.519 98.4172 512.172 98.4172C513.825 98.4172 515.203 97.8158 516.292 96.613C517.382 95.4102 517.933 94.0821 517.933 92.6287C517.933 91.1753 517.407 89.8222 516.355 88.5693C515.303 87.3163 513.9 86.6899 512.135 86.6899C510.369 86.6899 508.942 87.3163 507.852 88.5693C506.763 89.8096 506.212 91.1753 506.212 92.6538Z" fill="#2ED1A2"/>
<path d="M555.049 74.9625C559.519 74.9625 563.238 76.6665 566.206 80.087C569.174 83.5075 570.664 87.6672 570.664 92.5912V104.394C570.664 105.421 570.626 106.198 570.564 106.712C570.501 107.225 570.301 107.802 570 108.416C569.374 109.618 567.634 110.22 564.778 110.22C561.61 110.22 559.77 109.393 559.281 107.739C559.018 106.975 558.88 105.835 558.88 104.319V92.516C558.88 90.6867 558.355 89.2584 557.303 88.231C556.251 87.2036 554.848 86.6899 553.083 86.6899C551.317 86.6899 549.889 87.2287 548.8 88.2936C547.711 89.3712 547.16 90.7744 547.16 92.516V104.381C547.16 105.409 547.122 106.185 547.059 106.699C546.997 107.213 546.784 107.789 546.421 108.403C545.845 109.606 544.117 110.207 541.262 110.207C538.444 110.207 536.729 109.606 536.102 108.403C535.789 107.739 535.602 107.138 535.539 106.624C535.476 106.11 535.439 105.346 535.439 104.306V80.5882C535.439 79.6109 535.476 78.8591 535.539 78.3454C535.602 77.8317 535.814 77.2679 536.178 76.6414C536.804 75.5263 538.519 74.9625 541.337 74.9625C544.067 74.9625 545.732 75.4762 546.358 76.5036C546.809 77.2679 547.022 78.1825 547.022 79.2475C547.197 78.9343 547.598 78.4832 548.224 77.9069C548.85 77.3306 549.451 76.8544 550.027 76.5036C551.542 75.4762 553.22 74.9625 555.049 74.9625Z" fill="#2ED1A2"/>
<path d="M88.7326 168.832C131.777 168.832 166.671 133.918 166.671 90.8496C166.671 47.7813 131.777 12.8675 88.7326 12.8675C45.6884 12.8675 10.7942 47.7813 10.7942 90.8496C10.7942 133.918 45.6884 168.832 88.7326 168.832Z" fill="#2ED1A2"/>
<path d="M61.0334 36.623C60.2195 36.623 58.9297 37.4123 57.1766 39.0035C56.3877 39.7177 55.9118 40.6198 55.7616 41.7099C55.5737 42.6746 55.5362 44.6167 55.6739 47.536C55.7115 47.6237 55.7491 47.6613 55.7866 47.6613C55.8492 47.6613 55.9244 47.5485 56.012 47.3355C56.0997 48.2877 56.2875 49.0144 56.588 49.5156C57.6524 51.6832 58.3913 52.7732 58.792 52.7732C58.8295 52.7732 58.8546 52.7607 58.8921 52.7481L59.2553 54.3018L56.6131 56.0058C56.3376 56.2187 56.1247 56.6072 55.9745 57.171C55.6864 59.2132 55.8242 61.456 56.3752 63.8741L56.012 67.4575C54.7723 66.5554 53.6578 65.3776 52.6686 63.9368L52.8314 63.2351C52.7187 63.0597 52.4682 62.8843 52.08 62.6964C52.055 61.6063 51.9047 60.8295 51.6167 60.3659C51.3913 59.965 50.8278 59.7269 49.9137 59.6768L48.3108 57.2336L45.7062 57.4466C45.6937 57.4466 45.6812 57.4466 45.6686 57.4466C45.5309 57.4466 45.4683 57.5218 45.4808 57.6847L46.4075 59.4262C45.8314 60.0026 45.6186 60.3659 45.7438 60.5163C45.7688 60.7919 46.0944 61.1929 46.7205 61.7191L46.42 62.7841C46.5452 63.0472 46.733 63.1975 46.996 63.2351C46.9584 63.7112 47.0085 64.037 47.1463 64.2124L48.386 65.6157L50.7527 66.0667L53.8582 71.542C54.4217 72.3564 55.173 73.1583 56.1247 73.9351C57.1265 74.737 57.8904 75.1254 58.4288 75.1254C58.5791 75.1254 58.7043 75.1003 58.817 75.0377C60.2696 74.1857 60.9834 72.8075 60.9583 70.8905L62.1855 71.2664C62.4359 71.5796 62.6989 72.181 62.9994 73.0581C63.9511 75.8396 64.4145 77.6438 64.3769 78.4582C64.5397 78.8967 64.715 79.1348 64.9153 79.1849L67.2194 86.3391C66.5307 88.7071 65.9923 93.3931 65.6291 100.397C65.4914 103.855 65.4663 105.985 65.554 106.824L66.4806 111.272L66.0173 115.232C66.1801 119.291 66.1926 121.897 66.0674 123.05C65.9923 124.541 65.7418 126.245 65.3161 128.149C65.2409 128.262 65.3286 128.412 65.554 128.588L64.8026 130.191C64.6273 130.166 64.4896 130.141 64.3769 130.141C64.1891 130.141 64.1014 130.191 64.1264 130.279C62.7365 132.096 61.6721 133.324 60.9458 133.963C60.232 134.702 59.2177 135.065 57.9029 135.065C57.7526 135.065 57.6024 135.065 57.4396 135.053C57.1265 135.216 56.9387 135.629 56.8635 136.281C56.8134 137.195 57.0013 137.859 57.427 138.273C59.7812 138.561 61.4091 138.711 62.2857 138.711C62.2982 138.711 62.3107 138.711 62.3232 138.711C62.3859 138.711 62.4359 138.711 62.486 138.711C63.3876 138.711 64.0764 138.611 64.5397 138.423L67.1193 136.857L67.2445 138.611L67.4198 138.699L72.1156 138.611C72.1407 138.624 72.1782 138.624 72.2033 138.624C72.316 138.624 72.3786 138.561 72.4037 138.423C72.2283 137.095 72.2659 135.228 72.4913 132.823C72.5664 132.497 72.1908 131.82 71.3643 130.793C71.2266 130.517 71.1639 130.066 71.189 129.415C71.3393 125.643 72.2283 121.233 73.8562 116.171L73.4305 107.902C74.4949 109.581 76.5109 111.698 79.4662 114.254L81.4197 116.848L86.1781 122.286L89.3463 126.733L89.8346 126.896L91.3623 129.402C91.0618 129.866 90.9992 130.104 91.1995 130.104C93.1405 132.033 94.2174 133.324 94.4303 133.975C94.7183 134.339 94.5305 135.291 93.8668 136.819C93.8543 137.183 94.0546 137.596 94.4804 138.035C94.9562 138.298 95.4195 138.423 95.8578 138.423C97.3104 138.423 98.5251 137.02 99.5018 134.226C100.153 133.386 99.7522 131.645 98.2997 129.014L100.416 129.051L101.004 124.303L96.0707 123L93.8417 123.1L93.1155 122.436C92.5019 121.985 90.7112 118.802 87.7058 112.889C83.2855 108.629 81.1817 106.185 81.3946 105.559L79.7292 90.8997C81.6701 88.2811 82.2962 85.7377 81.6075 83.2819L82.6093 85.6124C82.4089 86.6648 82.434 87.4542 82.6594 87.9679L84.0744 90.0477C84.2372 90.4612 84.1996 91.1127 83.9366 91.9898L84.0619 91.9397L84.0368 92.0775C84.0619 92.0775 84.0744 92.0775 84.0994 92.0775C84.4375 92.0775 84.8257 92.2153 85.289 92.4784L88.2693 95.5481C93.4661 101.687 98.6127 107.438 103.684 112.776L104.16 113.39C103.797 114.179 103.747 114.881 104.01 115.495C104.198 116.046 104.573 116.647 105.149 117.299L118.673 130.342L123.269 136.118C123.282 136.206 123.332 136.243 123.419 136.243C123.494 136.243 123.607 136.206 123.732 136.143C123.782 136.694 124.033 137.145 124.459 137.496C124.784 137.797 125.223 137.947 125.811 137.947C125.899 137.947 125.986 137.947 126.074 137.935C126.612 137.897 127.076 137.584 127.451 136.97C128.265 137.07 128.854 137.133 129.23 137.133C129.53 137.133 129.68 137.095 129.693 137.032C130.094 138.26 130.782 138.874 131.747 138.874C132.035 138.874 132.348 138.824 132.673 138.711L139.135 132.372L139.648 132.384L141.702 130.054C141.727 129.891 141.652 129.816 141.501 129.816C141.489 129.816 141.476 129.816 141.476 129.816L139.485 129.44L139.21 128.701C140.049 127.949 140.287 127.36 139.911 126.934C138.959 125.405 137.97 124.127 136.956 123.1C135.666 121.659 130.256 116.572 120.702 107.827C119.462 107.05 118.135 106.662 116.707 106.662C114.967 106.662 113.101 107.238 111.097 108.391C109.57 107.238 108.593 106.662 108.167 106.662C108.054 106.662 107.979 106.699 107.942 106.774C107.341 106.937 106.865 107.426 106.502 108.265C106.314 108.704 106.489 109.318 107.053 110.082C107.09 110.132 106.978 110.27 106.727 110.495L89.221 91.8018L89.2586 91.3007L87.9438 89.8849C88.2193 88.8074 88.1692 88.0431 87.8185 87.567C85.9527 85.9131 85.001 84.8732 84.9635 84.4597C84.6504 83.8207 84.2497 82.4675 83.7864 80.4253C86.9545 77.8944 88.5824 75.7769 88.6701 74.0855C88.7828 73.4089 88.62 72.4943 88.2067 71.3541L85.289 65.3776C82.9474 62.4207 80.7435 60.3659 78.6523 59.2383C79.629 58.5617 79.8168 57.9478 79.2283 57.384C78.9778 57.2587 78.7775 57.196 78.6147 57.196C78.502 57.196 78.4018 57.2211 78.3267 57.2837L76.0601 59.0378C73.7185 56.1436 72.1908 54.4772 71.477 54.0261L65.4288 51.4576C65.2284 51.3449 65.1783 50.4177 65.266 48.6761C66.8813 48.413 67.6452 45.9322 67.545 41.1962C67.3321 40.3191 66.8062 39.5047 65.9672 38.753C65.6542 38.4648 65.2159 38.3144 64.6399 38.3144C64.5522 38.3144 64.4645 38.3144 64.3644 38.327C63.4753 37.2369 62.4485 36.6606 61.3089 36.623H61.2338C61.1712 36.623 61.0961 36.623 61.0334 36.623ZM131.947 138.649C131.959 138.649 131.959 138.649 131.947 138.649C131.959 138.649 131.959 138.649 131.947 138.649ZM131.697 138.649C131.697 138.649 131.684 138.649 131.697 138.649C131.684 138.649 131.684 138.649 131.697 138.649ZM129.129 136.895C129.117 136.895 129.117 136.895 129.129 136.895V136.895ZM89.6468 126.533C89.6718 126.533 89.6969 126.533 89.7219 126.533C89.6969 126.533 89.6718 126.533 89.6468 126.533C89.6217 126.533 89.5967 126.533 89.5717 126.533C89.5967 126.533 89.6217 126.533 89.6468 126.533ZM87.4304 91.9522L105.487 111.623L105.174 111.999L104.423 111.235L87.0422 92.3531L87.4053 91.9647L87.4304 91.9522ZM108.18 107.075C108.255 107.075 108.343 107.1 108.455 107.138C108.355 107.1 108.255 107.075 108.18 107.075C108.105 107.075 108.054 107.1 108.017 107.138C108.067 107.1 108.117 107.075 108.18 107.075ZM116.72 107.037C117.008 107.037 117.283 107.05 117.559 107.075C117.283 107.05 117.008 107.037 116.72 107.037C116.432 107.037 116.144 107.05 115.856 107.075C116.144 107.05 116.432 107.037 116.72 107.037ZM72.9045 106.11H72.9922L73.0298 106.649L72.9922 106.11H72.9045ZM85.4393 89.2835L85.7899 89.5716L85.5019 89.7596L85.4393 89.2835Z" fill="white"/>
<path d="M178.279 133.549H188.022C188.397 133.549 188.673 133.587 188.848 133.675C189.023 133.762 189.136 133.9 189.199 134.088C189.261 134.276 189.286 134.527 189.286 134.827C189.286 135.128 189.261 135.379 189.199 135.554C189.136 135.729 189.036 135.867 188.898 135.93C188.685 136.03 188.385 136.093 188.009 136.093H184.666V144.913C184.666 145.177 184.653 145.377 184.641 145.515C184.628 145.64 184.565 145.79 184.478 145.966C184.39 146.141 184.24 146.254 184.014 146.329C183.789 146.404 183.501 146.429 183.138 146.429C182.775 146.429 182.487 146.392 182.274 146.329C182.061 146.254 181.911 146.141 181.823 145.966C181.735 145.79 181.685 145.64 181.66 145.515C181.648 145.377 181.635 145.177 181.635 144.913V136.105H178.267C177.891 136.105 177.616 136.068 177.44 135.98C177.265 135.892 177.152 135.755 177.09 135.567C177.027 135.379 177.002 135.128 177.002 134.827C177.002 134.527 177.027 134.276 177.09 134.101C177.152 133.925 177.252 133.787 177.39 133.725C177.603 133.599 177.904 133.549 178.279 133.549Z" fill="#2ED1A2"/>
<path d="M194.433 137.283C194.658 137.358 194.834 137.471 194.984 137.646C195.134 137.822 195.209 138.085 195.209 138.461C195.209 138.837 195.097 139.25 194.871 139.689C194.646 140.127 194.333 140.353 193.907 140.353C193.694 140.353 193.494 140.303 193.306 140.215C193.118 140.127 192.855 140.077 192.542 140.077C192.229 140.077 191.929 140.19 191.653 140.415C191.378 140.641 191.24 140.904 191.24 141.217V144.901C191.24 145.164 191.227 145.377 191.215 145.502C191.202 145.64 191.14 145.79 191.052 145.966C190.877 146.267 190.426 146.417 189.687 146.417C189.124 146.417 188.723 146.317 188.472 146.116C188.285 145.953 188.184 145.703 188.159 145.364C188.159 145.252 188.159 145.076 188.159 144.851V138.699C188.159 138.436 188.172 138.223 188.184 138.097C188.197 137.96 188.247 137.809 188.335 137.646C188.497 137.333 188.948 137.17 189.7 137.17C190.401 137.17 190.839 137.308 191.014 137.571C191.14 137.759 191.202 137.947 191.202 138.148C191.265 138.06 191.34 137.972 191.453 137.847C191.565 137.734 191.803 137.571 192.166 137.371C192.53 137.17 192.843 137.07 193.118 137.07C193.394 137.07 193.619 137.083 193.807 137.12C194.007 137.17 194.208 137.22 194.433 137.283Z" fill="#2ED1A2"/>
<path d="M201.633 138.16C201.708 137.509 202.159 137.183 203.023 137.183C203.474 137.183 203.812 137.22 204.037 137.283C204.263 137.358 204.413 137.471 204.501 137.646C204.588 137.822 204.639 137.972 204.664 138.11C204.676 138.248 204.689 138.448 204.689 138.711V144.851C204.689 145.114 204.676 145.327 204.664 145.452C204.651 145.59 204.601 145.74 204.513 145.916C204.351 146.216 203.95 146.367 203.311 146.367C202.673 146.367 202.247 146.292 202.034 146.129C201.821 145.966 201.696 145.74 201.658 145.44C201.22 146.054 200.506 146.367 199.492 146.367C198.478 146.367 197.538 145.903 196.674 144.976C195.81 144.049 195.372 142.984 195.372 141.756C195.372 140.528 195.81 139.463 196.674 138.549C197.551 137.634 198.503 137.17 199.542 137.17C199.943 137.17 200.306 137.245 200.631 137.383C200.957 137.521 201.182 137.659 201.32 137.784C201.445 137.922 201.558 138.047 201.633 138.16ZM198.44 141.806C198.44 142.195 198.59 142.545 198.891 142.846C199.191 143.159 199.567 143.31 199.993 143.31C200.431 143.31 200.782 143.147 201.07 142.834C201.358 142.52 201.495 142.169 201.495 141.794C201.495 141.418 201.358 141.054 201.082 140.729C200.807 140.403 200.444 140.24 199.98 140.24C199.517 140.24 199.141 140.403 198.853 140.729C198.59 141.067 198.44 141.43 198.44 141.806Z" fill="#2ED1A2"/>
<path d="M215.132 137.396C215.746 137.759 216.046 138.148 216.046 138.549C216.046 138.787 215.934 139.1 215.696 139.513L212.064 145.74C211.952 145.941 211.764 146.116 211.501 146.279C211.238 146.442 210.987 146.517 210.737 146.517C210.486 146.517 210.248 146.454 210.023 146.329C209.798 146.204 209.635 146.079 209.547 145.953L209.384 145.765L205.741 139.526C205.503 139.137 205.39 138.824 205.39 138.574C205.39 138.148 205.69 137.759 206.304 137.396C206.742 137.133 207.093 137.007 207.356 137.007C207.619 137.007 207.819 137.083 207.957 137.246C208.107 137.408 208.257 137.646 208.42 137.96L210.712 142.382L213.003 137.96C213.129 137.734 213.229 137.571 213.291 137.484C213.354 137.383 213.454 137.283 213.604 137.183C213.742 137.083 213.93 137.032 214.168 137.032C214.406 137.02 214.731 137.145 215.132 137.396Z" fill="#2ED1A2"/>
<path d="M225.388 140.704C225.388 141.418 225.213 141.956 224.849 142.295C224.499 142.646 224.098 142.808 223.66 142.808H219.515C219.515 143.134 219.703 143.41 220.091 143.635C220.479 143.861 220.867 143.974 221.243 143.974C221.919 143.974 222.458 143.899 222.833 143.761L223.021 143.686C223.297 143.56 223.535 143.498 223.722 143.498C224.098 143.498 224.424 143.761 224.687 144.287C224.837 144.6 224.912 144.876 224.912 145.089C224.912 146.129 223.672 146.655 221.18 146.655C220.316 146.655 219.553 146.505 218.876 146.204C218.2 145.903 217.687 145.515 217.311 145.014C216.572 144.061 216.209 143.009 216.209 141.844C216.209 140.365 216.685 139.188 217.637 138.31C218.588 137.433 219.778 136.982 221.205 136.982C222.833 136.982 224.023 137.559 224.787 138.699C225.188 139.313 225.388 139.977 225.388 140.704ZM221.694 141.217C222.132 141.217 222.358 141.029 222.358 140.653C222.358 140.39 222.257 140.165 222.044 140.002C221.844 139.839 221.544 139.751 221.168 139.751C220.792 139.751 220.417 139.902 220.041 140.215C219.665 140.528 219.477 140.854 219.477 141.205H221.694V141.217Z" fill="#2ED1A2"/>
<path d="M229.758 143.322C230.146 143.322 230.434 143.422 230.622 143.623C230.81 143.823 230.898 144.237 230.898 144.851C230.898 145.465 230.798 145.878 230.597 146.091C230.397 146.292 230.109 146.404 229.733 146.404C228.556 146.404 227.717 146.116 227.241 145.552C226.765 144.989 226.527 144.036 226.527 142.721V134.351C226.527 134.088 226.54 133.875 226.553 133.75C226.565 133.612 226.615 133.462 226.703 133.286C226.866 132.986 227.316 132.835 228.068 132.835C228.781 132.835 229.22 132.998 229.395 133.324C229.483 133.487 229.545 133.637 229.558 133.775C229.57 133.913 229.583 134.113 229.583 134.376V142.796C229.595 143.134 229.646 143.322 229.758 143.322ZM234.467 143.209C234.554 143.285 234.805 143.31 235.18 143.31C235.556 143.31 235.882 143.41 236.145 143.61C236.408 143.811 236.533 144.224 236.533 144.838C236.533 145.452 236.395 145.866 236.12 146.079C235.844 146.279 235.456 146.392 234.967 146.392C232.488 146.392 231.248 145.164 231.248 142.708L231.236 134.339C231.236 134.076 231.248 133.863 231.261 133.737C231.273 133.599 231.336 133.449 231.424 133.274C231.599 132.973 232.05 132.823 232.789 132.823C233.502 132.823 233.941 132.986 234.116 133.311C234.241 133.574 234.304 133.925 234.304 134.364V142.783C234.329 142.996 234.379 143.147 234.467 143.209Z" fill="#2ED1A2"/>
<path d="M240.39 135.466C240.302 135.642 240.152 135.754 239.926 135.83C239.701 135.905 239.413 135.93 239.037 135.93C238.674 135.93 238.374 135.892 238.148 135.83C237.923 135.754 237.772 135.642 237.685 135.466C237.597 135.291 237.547 135.141 237.522 135.003C237.509 134.865 237.497 134.664 237.497 134.401C237.497 134.138 237.509 133.925 237.522 133.8C237.535 133.662 237.585 133.512 237.672 133.349C237.835 133.036 238.286 132.873 239.037 132.873C239.776 132.873 240.214 133.036 240.365 133.349C240.452 133.524 240.515 133.675 240.527 133.812C240.54 133.95 240.552 134.151 240.552 134.414C240.552 134.677 240.54 134.89 240.527 135.015C240.527 135.153 240.477 135.303 240.39 135.466ZM237.509 138.724C237.509 138.461 237.522 138.248 237.535 138.123C237.547 137.985 237.597 137.834 237.685 137.659C237.848 137.358 238.298 137.208 239.05 137.208C239.613 137.208 240.014 137.308 240.239 137.509C240.44 137.671 240.54 137.922 240.552 138.26C240.565 138.373 240.565 138.548 240.565 138.774V144.913C240.565 145.176 240.552 145.389 240.54 145.515C240.527 145.653 240.465 145.803 240.377 145.978C240.227 146.279 239.776 146.429 239.025 146.429C238.286 146.429 237.835 146.267 237.672 145.953C237.585 145.778 237.547 145.628 237.522 145.502C237.509 145.377 237.497 145.164 237.497 144.888V138.724H237.509Z" fill="#2ED1A2"/>
<path d="M247.114 137.183C248.279 137.183 249.255 137.634 250.032 138.523C250.808 139.413 251.196 140.503 251.196 141.794V144.876C251.196 145.139 251.184 145.352 251.171 145.477C251.159 145.615 251.109 145.765 251.021 145.928C250.858 146.241 250.407 146.404 249.656 146.404C248.83 146.404 248.341 146.191 248.216 145.753C248.141 145.552 248.116 145.252 248.116 144.863V141.781C248.116 141.305 247.978 140.929 247.703 140.653C247.427 140.39 247.064 140.253 246.601 140.253C246.137 140.253 245.762 140.39 245.474 140.679C245.186 140.954 245.048 141.33 245.048 141.781V144.888C245.048 145.151 245.035 145.364 245.023 145.49C245.01 145.628 244.948 145.778 244.86 145.941C244.71 146.254 244.259 146.417 243.508 146.417C242.769 146.417 242.318 146.254 242.155 145.941C242.068 145.765 242.03 145.615 242.005 145.477C241.992 145.339 241.98 145.139 241.98 144.876V138.661C241.98 138.398 241.992 138.21 242.005 138.072C242.017 137.935 242.08 137.784 242.168 137.621C242.33 137.333 242.781 137.183 243.52 137.183C244.234 137.183 244.672 137.321 244.835 137.584C244.948 137.784 245.01 138.022 245.01 138.298C245.06 138.21 245.161 138.097 245.323 137.947C245.486 137.797 245.649 137.671 245.799 137.584C246.187 137.321 246.626 137.183 247.114 137.183Z" fill="#2ED1A2"/>
<path d="M258.459 145.264C258.021 145.853 257.307 146.141 256.343 146.141C255.379 146.141 254.465 145.69 253.613 144.801C252.762 143.911 252.336 142.859 252.336 141.668C252.336 140.478 252.762 139.426 253.613 138.523C254.465 137.621 255.404 137.17 256.418 137.17C256.819 137.17 257.182 137.245 257.507 137.396C257.833 137.546 258.058 137.671 258.184 137.797C258.309 137.922 258.409 138.035 258.472 138.135C258.509 137.809 258.622 137.559 258.835 137.383C259.035 137.208 259.373 137.133 259.824 137.133C260.275 137.133 260.613 137.17 260.826 137.233C261.039 137.308 261.189 137.421 261.277 137.596C261.364 137.772 261.414 137.91 261.439 138.047C261.452 138.173 261.465 138.373 261.465 138.649V145.916C261.465 147.256 261.001 148.346 260.062 149.173C259.123 150 258.071 150.414 256.906 150.414C256.017 150.414 255.166 150.201 254.364 149.762C253.563 149.324 253.15 148.935 253.15 148.584C253.15 148.133 253.325 147.72 253.676 147.369C253.901 147.119 254.076 146.956 254.189 146.855C254.314 146.768 254.452 146.718 254.615 146.718C254.778 146.718 254.953 146.793 255.128 146.931C255.692 147.369 256.293 147.582 256.957 147.582C257.395 147.582 257.758 147.407 258.046 147.056C258.334 146.705 258.472 146.279 258.472 145.79V145.264H258.459ZM255.329 141.681C255.329 142.057 255.479 142.408 255.779 142.708C256.08 143.009 256.443 143.159 256.869 143.159C257.295 143.159 257.645 143.009 257.933 142.696C258.209 142.382 258.359 142.044 258.359 141.681C258.359 141.317 258.221 140.967 257.958 140.641C257.695 140.315 257.332 140.152 256.869 140.152C256.406 140.152 256.042 140.315 255.767 140.628C255.479 140.954 255.329 141.305 255.329 141.681Z" fill="#2ED1A2"/>
<path d="M273.486 133.336C273.573 133.161 273.724 133.048 273.949 132.973C274.175 132.898 274.463 132.873 274.838 132.873C275.201 132.873 275.502 132.91 275.727 132.973C275.953 133.048 276.103 133.161 276.191 133.336C276.278 133.512 276.328 133.662 276.353 133.8C276.366 133.938 276.378 134.138 276.378 134.401V144.876C276.378 145.139 276.366 145.352 276.353 145.477C276.341 145.615 276.278 145.765 276.191 145.928C276.015 146.241 275.527 146.404 274.713 146.404C273.899 146.404 273.448 146.116 273.361 145.54C272.872 146.104 272.184 146.379 271.307 146.379C270.255 146.379 269.291 145.916 268.427 145.001C267.563 144.086 267.125 143.009 267.125 141.794C267.125 140.566 267.563 139.501 268.427 138.574C269.303 137.646 270.255 137.183 271.294 137.183C272.158 137.183 272.835 137.471 273.311 138.06V134.376C273.311 134.113 273.323 133.9 273.336 133.775C273.348 133.65 273.398 133.499 273.486 133.336ZM270.643 142.859C270.944 143.172 271.319 143.335 271.745 143.335C272.184 143.335 272.534 143.172 272.822 142.859C273.11 142.545 273.248 142.195 273.248 141.819C273.248 141.443 273.11 141.079 272.835 140.754C272.559 140.428 272.183 140.265 271.72 140.265C271.257 140.265 270.881 140.428 270.593 140.741C270.318 141.067 270.167 141.418 270.167 141.806C270.167 142.195 270.33 142.545 270.643 142.859Z" fill="#2ED1A2"/>
<path d="M286.684 140.704C286.684 141.418 286.509 141.956 286.146 142.295C285.795 142.646 285.395 142.808 284.956 142.808H280.799C280.799 143.134 280.987 143.41 281.375 143.635C281.763 143.861 282.151 143.974 282.527 143.974C283.203 143.974 283.742 143.899 284.117 143.761L284.305 143.686C284.581 143.56 284.818 143.498 285.006 143.498C285.382 143.498 285.708 143.761 285.971 144.287C286.121 144.6 286.196 144.876 286.196 145.089C286.196 146.129 284.956 146.655 282.464 146.655C281.6 146.655 280.836 146.505 280.16 146.204C279.484 145.903 278.971 145.515 278.595 145.014C277.856 144.061 277.493 143.009 277.493 141.844C277.493 140.365 277.969 139.188 278.92 138.31C279.872 137.433 281.062 136.982 282.489 136.982C284.117 136.982 285.307 137.559 286.071 138.699C286.484 139.313 286.684 139.977 286.684 140.704ZM282.978 141.217C283.416 141.217 283.641 141.029 283.641 140.653C283.641 140.39 283.541 140.165 283.328 140.002C283.128 139.839 282.827 139.751 282.452 139.751C282.076 139.751 281.7 139.902 281.325 140.215C280.949 140.528 280.761 140.854 280.761 141.205H282.978V141.217Z" fill="#2ED1A2"/>
<path d="M292.958 137.183C294.122 137.183 295.099 137.634 295.876 138.523C296.652 139.413 297.04 140.503 297.04 141.794V144.876C297.04 145.139 297.028 145.352 297.015 145.477C297.003 145.615 296.952 145.765 296.865 145.928C296.702 146.241 296.251 146.404 295.5 146.404C294.673 146.404 294.185 146.191 294.06 145.753C293.985 145.552 293.96 145.252 293.96 144.863V141.781C293.96 141.305 293.822 140.929 293.546 140.653C293.271 140.39 292.908 140.253 292.444 140.253C291.981 140.253 291.605 140.39 291.317 140.679C291.029 140.954 290.892 141.33 290.892 141.781V144.888C290.892 145.151 290.879 145.364 290.867 145.49C290.854 145.628 290.792 145.778 290.704 145.941C290.554 146.254 290.103 146.417 289.351 146.417C288.613 146.417 288.162 146.254 287.999 145.941C287.911 145.765 287.874 145.615 287.849 145.477C287.836 145.339 287.824 145.139 287.824 144.876V138.661C287.824 138.398 287.836 138.21 287.849 138.072C287.861 137.935 287.924 137.784 288.012 137.621C288.174 137.333 288.625 137.183 289.364 137.183C290.078 137.183 290.516 137.321 290.679 137.584C290.792 137.784 290.854 138.022 290.854 138.298C290.904 138.21 291.004 138.097 291.167 137.947C291.33 137.797 291.493 137.671 291.643 137.584C292.031 137.321 292.47 137.183 292.958 137.183Z" fill="#2ED1A2"/>
<path d="M304.291 145.264C303.852 145.853 303.138 146.141 302.174 146.141C301.21 146.141 300.296 145.69 299.444 144.801C298.593 143.911 298.167 142.859 298.167 141.668C298.167 140.478 298.593 139.426 299.444 138.523C300.296 137.621 301.235 137.17 302.249 137.17C302.65 137.17 303.013 137.245 303.339 137.396C303.664 137.546 303.89 137.671 304.015 137.797C304.14 137.922 304.24 138.035 304.303 138.135C304.341 137.809 304.453 137.559 304.666 137.383C304.867 137.208 305.205 137.133 305.655 137.133C306.106 137.133 306.444 137.17 306.657 137.233C306.87 137.308 307.02 137.421 307.108 137.596C307.196 137.772 307.246 137.91 307.271 138.047C307.283 138.173 307.296 138.373 307.296 138.649V145.916C307.296 147.256 306.833 148.346 305.893 149.173C304.954 150 303.902 150.414 302.738 150.414C301.849 150.414 300.997 150.201 300.196 149.762C299.394 149.324 298.981 148.935 298.981 148.584C298.981 148.133 299.156 147.72 299.507 147.369C299.732 147.119 299.908 146.956 300.02 146.855C300.146 146.768 300.283 146.718 300.446 146.718C300.609 146.718 300.784 146.793 300.96 146.931C301.523 147.369 302.124 147.582 302.788 147.582C303.226 147.582 303.589 147.407 303.877 147.056C304.165 146.705 304.303 146.279 304.303 145.79V145.264H304.291ZM301.172 141.681C301.172 142.057 301.323 142.408 301.623 142.708C301.924 143.009 302.287 143.159 302.713 143.159C303.138 143.159 303.489 143.009 303.777 142.696C304.053 142.382 304.203 142.044 304.203 141.681C304.203 141.317 304.065 140.967 303.802 140.641C303.539 140.315 303.176 140.152 302.713 140.152C302.249 140.152 301.886 140.315 301.611 140.628C301.31 140.954 301.172 141.305 301.172 141.681Z" fill="#2ED1A2"/>
<path d="M314.697 138.16C314.772 137.509 315.222 137.183 316.087 137.183C316.537 137.183 316.875 137.22 317.101 137.283C317.326 137.358 317.476 137.471 317.564 137.646C317.652 137.822 317.702 137.972 317.727 138.11C317.739 138.248 317.752 138.448 317.752 138.711V144.851C317.752 145.114 317.739 145.327 317.727 145.452C317.714 145.59 317.664 145.74 317.577 145.916C317.414 146.216 317.013 146.367 316.375 146.367C315.736 146.367 315.31 146.292 315.097 146.129C314.884 145.966 314.759 145.74 314.722 145.44C314.283 146.054 313.57 146.367 312.555 146.367C311.541 146.367 310.602 145.903 309.738 144.976C308.874 144.049 308.435 142.984 308.435 141.756C308.435 140.528 308.874 139.463 309.738 138.549C310.614 137.634 311.566 137.17 312.605 137.17C313.006 137.17 313.369 137.245 313.695 137.383C314.02 137.521 314.246 137.659 314.384 137.784C314.509 137.922 314.609 138.047 314.697 138.16ZM311.503 141.806C311.503 142.195 311.654 142.545 311.954 142.846C312.255 143.159 312.63 143.31 313.056 143.31C313.494 143.31 313.845 143.147 314.133 142.834C314.421 142.52 314.559 142.169 314.559 141.794C314.559 141.418 314.421 141.054 314.146 140.729C313.87 140.403 313.507 140.24 313.044 140.24C312.58 140.24 312.205 140.403 311.917 140.729C311.641 141.067 311.503 141.43 311.503 141.806Z" fill="#2ED1A2"/>
<path d="M324.276 137.183C325.441 137.183 326.417 137.634 327.194 138.523C327.97 139.413 328.358 140.503 328.358 141.794V144.876C328.358 145.139 328.346 145.352 328.333 145.477C328.321 145.615 328.271 145.765 328.183 145.928C328.02 146.241 327.569 146.404 326.818 146.404C325.992 146.404 325.503 146.191 325.378 145.753C325.303 145.552 325.278 145.252 325.278 144.863V141.781C325.278 141.305 325.14 140.929 324.865 140.653C324.589 140.39 324.226 140.253 323.763 140.253C323.299 140.253 322.924 140.39 322.636 140.679C322.348 140.954 322.21 141.33 322.21 141.781V144.888C322.21 145.151 322.197 145.364 322.185 145.49C322.172 145.628 322.11 145.778 322.022 145.941C321.872 146.254 321.421 146.417 320.67 146.417C319.931 146.417 319.48 146.254 319.317 145.941C319.23 145.765 319.192 145.615 319.167 145.477C319.154 145.339 319.142 145.139 319.142 144.876V138.661C319.142 138.398 319.154 138.21 319.167 138.072C319.18 137.935 319.242 137.784 319.33 137.621C319.493 137.333 319.943 137.183 320.682 137.183C321.396 137.183 321.834 137.321 321.997 137.584C322.11 137.784 322.172 138.022 322.172 138.298C322.222 138.21 322.323 138.097 322.485 137.947C322.648 137.797 322.811 137.671 322.961 137.584C323.362 137.321 323.8 137.183 324.276 137.183Z" fill="#2ED1A2"/>
<path d="M335.408 138.336C336.385 137.421 337.512 136.97 338.777 136.97C340.041 136.97 341.156 137.421 342.12 138.323C343.084 139.225 343.573 140.39 343.573 141.794C343.573 142.758 343.322 143.623 342.821 144.387C342.321 145.139 341.707 145.703 340.993 146.054C340.279 146.404 339.528 146.592 338.764 146.592C338 146.592 337.249 146.404 336.523 146.029C335.796 145.653 335.183 145.089 334.694 144.35C334.194 143.61 333.943 142.771 333.943 141.831C333.943 140.403 334.431 139.25 335.408 138.336ZM337.6 143.072C337.975 143.36 338.351 143.498 338.739 143.498C339.127 143.498 339.516 143.347 339.891 143.059C340.279 142.771 340.467 142.332 340.467 141.756C340.467 141.18 340.292 140.754 339.929 140.478C339.566 140.202 339.177 140.052 338.752 140.052C338.326 140.052 337.938 140.202 337.575 140.491C337.211 140.779 337.036 141.217 337.036 141.781C337.049 142.357 337.236 142.783 337.6 143.072Z" fill="#2ED1A2"/>
<path d="M350.999 137.283C351.224 137.358 351.399 137.471 351.55 137.646C351.7 137.822 351.775 138.085 351.775 138.461C351.775 138.837 351.662 139.25 351.437 139.689C351.211 140.127 350.898 140.353 350.473 140.353C350.26 140.353 350.059 140.303 349.872 140.215C349.684 140.127 349.421 140.077 349.108 140.077C348.795 140.077 348.494 140.19 348.219 140.415C347.943 140.641 347.805 140.904 347.805 141.217V144.901C347.805 145.164 347.793 145.377 347.78 145.502C347.768 145.64 347.705 145.79 347.618 145.966C347.442 146.267 346.991 146.417 346.253 146.417C345.689 146.417 345.288 146.317 345.038 146.116C344.85 145.953 344.75 145.703 344.725 145.364C344.725 145.252 344.725 145.076 344.725 144.851V138.699C344.725 138.436 344.737 138.223 344.75 138.097C344.763 137.96 344.813 137.809 344.9 137.646C345.063 137.333 345.514 137.17 346.265 137.17C346.966 137.17 347.405 137.308 347.58 137.571C347.705 137.759 347.768 137.947 347.768 138.148C347.83 138.06 347.906 137.972 348.018 137.847C348.131 137.734 348.369 137.571 348.732 137.371C349.095 137.17 349.408 137.07 349.684 137.07C349.959 137.07 350.185 137.083 350.372 137.12C350.573 137.17 350.773 137.22 350.999 137.283Z" fill="#2ED1A2"/>
<path d="M358.199 138.16C358.274 137.509 358.725 137.183 359.589 137.183C360.04 137.183 360.378 137.22 360.603 137.283C360.829 137.358 360.979 137.471 361.066 137.646C361.154 137.822 361.204 137.972 361.229 138.11C361.242 138.248 361.254 138.448 361.254 138.711V144.851C361.254 145.114 361.242 145.327 361.229 145.452C361.217 145.59 361.167 145.74 361.079 145.916C360.916 146.216 360.515 146.367 359.877 146.367C359.238 146.367 358.812 146.292 358.6 146.129C358.387 145.966 358.261 145.74 358.224 145.44C357.786 146.054 357.072 146.367 356.058 146.367C355.043 146.367 354.104 145.903 353.24 144.976C352.376 144.049 351.938 142.984 351.938 141.756C351.938 140.528 352.376 139.463 353.24 138.549C354.117 137.634 355.068 137.17 356.108 137.17C356.508 137.17 356.872 137.245 357.197 137.383C357.523 137.521 357.748 137.659 357.886 137.784C358.011 137.922 358.124 138.047 358.199 138.16ZM355.018 141.806C355.018 142.195 355.168 142.545 355.469 142.846C355.77 143.159 356.145 143.31 356.571 143.31C357.009 143.31 357.36 143.147 357.648 142.834C357.936 142.52 358.074 142.169 358.074 141.794C358.074 141.418 357.936 141.054 357.66 140.729C357.385 140.403 357.022 140.24 356.558 140.24C356.095 140.24 355.719 140.403 355.431 140.729C355.156 141.067 355.018 141.43 355.018 141.806Z" fill="#2ED1A2"/>
<path d="M367.791 137.183C368.955 137.183 369.932 137.634 370.709 138.523C371.485 139.413 371.873 140.503 371.873 141.794V144.876C371.873 145.139 371.861 145.352 371.848 145.477C371.836 145.615 371.785 145.765 371.698 145.928C371.535 146.241 371.084 146.404 370.333 146.404C369.506 146.404 369.018 146.191 368.893 145.753C368.818 145.552 368.793 145.252 368.793 144.863V141.781C368.793 141.305 368.655 140.929 368.379 140.653C368.104 140.39 367.741 140.253 367.277 140.253C366.814 140.253 366.438 140.39 366.15 140.679C365.862 140.954 365.725 141.33 365.725 141.781V144.888C365.725 145.151 365.712 145.364 365.7 145.49C365.687 145.628 365.625 145.778 365.537 145.941C365.387 146.254 364.936 146.417 364.184 146.417C363.446 146.417 362.995 146.254 362.832 145.941C362.744 145.765 362.707 145.615 362.682 145.477C362.669 145.339 362.657 145.139 362.657 144.876V138.661C362.657 138.398 362.669 138.21 362.682 138.072C362.694 137.935 362.757 137.784 362.845 137.621C363.007 137.333 363.458 137.183 364.197 137.183C364.911 137.183 365.349 137.321 365.512 137.584C365.624 137.784 365.687 138.022 365.687 138.298C365.737 138.21 365.837 138.097 366 137.947C366.163 137.797 366.326 137.671 366.476 137.584C366.877 137.321 367.315 137.183 367.791 137.183Z" fill="#2ED1A2"/>
<path d="M379.136 145.264C378.698 145.853 377.984 146.141 377.02 146.141C376.056 146.141 375.141 145.69 374.29 144.801C373.438 143.911 373.013 142.859 373.013 141.668C373.013 140.478 373.438 139.426 374.29 138.523C375.141 137.621 376.081 137.17 377.095 137.17C377.496 137.17 377.859 137.245 378.184 137.396C378.51 137.546 378.735 137.671 378.861 137.797C378.986 137.922 379.086 138.035 379.149 138.135C379.186 137.809 379.299 137.559 379.512 137.383C379.712 137.208 380.05 137.133 380.501 137.133C380.952 137.133 381.29 137.17 381.503 137.233C381.716 137.308 381.866 137.421 381.954 137.596C382.041 137.772 382.091 137.91 382.116 138.047C382.129 138.173 382.141 138.373 382.141 138.649V145.916C382.141 147.256 381.678 148.346 380.739 149.173C379.8 150 378.748 150.414 377.583 150.414C376.694 150.414 375.843 150.201 375.041 149.762C374.24 149.324 373.827 148.935 373.827 148.584C373.827 148.133 374.002 147.72 374.353 147.369C374.578 147.119 374.753 146.956 374.866 146.855C374.991 146.768 375.129 146.718 375.292 146.718C375.454 146.718 375.63 146.793 375.805 146.931C376.369 147.369 376.97 147.582 377.633 147.582C378.072 147.582 378.435 147.407 378.723 147.056C379.011 146.705 379.149 146.279 379.149 145.79V145.264H379.136ZM376.018 141.681C376.018 142.057 376.168 142.408 376.469 142.708C376.769 143.009 377.132 143.159 377.558 143.159C377.984 143.159 378.335 143.009 378.623 142.696C378.898 142.382 379.048 142.044 379.048 141.681C379.048 141.317 378.911 140.967 378.648 140.641C378.385 140.315 378.022 140.152 377.558 140.152C377.095 140.152 376.732 140.315 376.456 140.628C376.156 140.954 376.018 141.305 376.018 141.681Z" fill="#2ED1A2"/>
<path d="M393.036 137.195C394.075 137.195 395.027 137.659 395.903 138.586C396.78 139.513 397.206 140.578 397.206 141.806C397.206 143.034 396.767 144.099 395.903 145.014C395.039 145.928 394.113 146.392 393.111 146.392C392.122 146.392 391.408 146.116 390.995 145.552C390.907 146.129 390.394 146.417 389.492 146.417C388.753 146.417 388.302 146.254 388.14 145.941C388.052 145.765 388.014 145.615 387.989 145.477C387.977 145.339 387.964 145.139 387.964 144.876V134.401C387.964 134.138 387.977 133.925 387.989 133.8C388.002 133.662 388.052 133.512 388.14 133.349C388.302 133.036 388.753 132.873 389.504 132.873C390.243 132.873 390.682 133.036 390.832 133.349C390.92 133.524 390.982 133.675 390.995 133.812C391.007 133.95 391.02 134.151 391.02 134.414V138.06C391.508 137.484 392.172 137.195 393.036 137.195ZM391.508 142.859C391.796 143.172 392.159 143.335 392.585 143.335C393.023 143.335 393.386 143.172 393.687 142.859C393.987 142.545 394.138 142.195 394.138 141.806C394.138 141.418 394 141.067 393.712 140.741C393.436 140.415 393.061 140.265 392.585 140.265C392.122 140.265 391.746 140.428 391.47 140.754C391.195 141.079 391.057 141.43 391.057 141.819C391.07 142.207 391.22 142.545 391.508 142.859Z" fill="#2ED1A2"/>
<path d="M404.343 138.16C404.418 137.509 404.869 137.183 405.733 137.183C406.184 137.183 406.522 137.22 406.748 137.283C406.973 137.358 407.123 137.471 407.211 137.646C407.298 137.822 407.349 137.972 407.374 138.11C407.386 138.248 407.399 138.448 407.399 138.711V144.851C407.399 145.114 407.386 145.327 407.374 145.452C407.361 145.59 407.311 145.74 407.223 145.916C407.061 146.216 406.66 146.367 406.021 146.367C405.383 146.367 404.957 146.292 404.744 146.129C404.531 145.966 404.406 145.74 404.368 145.44C403.93 146.054 403.216 146.367 402.202 146.367C401.188 146.367 400.249 145.903 399.385 144.976C398.52 144.049 398.082 142.984 398.082 141.756C398.082 140.528 398.52 139.463 399.385 138.549C400.261 137.634 401.213 137.17 402.252 137.17C402.653 137.17 403.016 137.245 403.342 137.383C403.667 137.521 403.892 137.659 404.03 137.784C404.155 137.922 404.268 138.047 404.343 138.16ZM401.15 141.806C401.15 142.195 401.3 142.545 401.601 142.846C401.901 143.159 402.277 143.31 402.703 143.31C403.141 143.31 403.492 143.147 403.78 142.834C404.068 142.52 404.206 142.169 404.206 141.794C404.206 141.418 404.068 141.054 403.792 140.729C403.517 140.403 403.154 140.24 402.69 140.24C402.227 140.24 401.851 140.403 401.563 140.729C401.3 141.067 401.15 141.43 401.15 141.806Z" fill="#2ED1A2"/>
<path d="M415.075 137.283C415.3 137.358 415.476 137.471 415.626 137.646C415.776 137.822 415.851 138.085 415.851 138.461C415.851 138.837 415.739 139.25 415.513 139.689C415.288 140.127 414.975 140.353 414.549 140.353C414.336 140.353 414.136 140.303 413.948 140.215C413.76 140.127 413.497 140.077 413.184 140.077C412.871 140.077 412.57 140.19 412.295 140.415C412.019 140.641 411.882 140.904 411.882 141.217V144.901C411.882 145.164 411.869 145.377 411.857 145.502C411.844 145.64 411.782 145.79 411.694 145.966C411.519 146.267 411.068 146.417 410.329 146.417C409.765 146.417 409.365 146.317 409.114 146.116C408.926 145.953 408.826 145.703 408.801 145.364C408.801 145.252 408.801 145.076 408.801 144.851V138.699C408.801 138.436 408.814 138.223 408.826 138.097C408.839 137.96 408.889 137.809 408.977 137.646C409.139 137.333 409.59 137.17 410.341 137.17C411.043 137.17 411.481 137.308 411.656 137.571C411.782 137.759 411.844 137.947 411.844 138.148C411.907 138.06 411.982 137.972 412.095 137.847C412.207 137.734 412.445 137.571 412.808 137.371C413.172 137.17 413.485 137.07 413.76 137.07C414.036 137.07 414.261 137.083 414.449 137.12C414.649 137.17 414.85 137.22 415.075 137.283Z" fill="#2ED1A2"/>
<path d="M420.91 146.392C419.733 146.392 418.756 145.941 417.968 145.051C417.191 144.162 416.803 143.072 416.803 141.781V138.711C416.803 138.436 416.815 138.223 416.828 138.097C416.84 137.972 416.891 137.822 416.978 137.646C417.141 137.333 417.592 137.17 418.343 137.17C419.157 137.17 419.645 137.396 419.783 137.834C419.858 138.022 419.883 138.323 419.883 138.724V141.794C419.883 142.27 420.021 142.646 420.297 142.921C420.572 143.184 420.935 143.322 421.399 143.322C421.862 143.322 422.238 143.184 422.526 142.896C422.814 142.621 422.951 142.245 422.951 141.794V138.686C422.951 138.423 422.964 138.21 422.976 138.085C422.989 137.947 423.052 137.797 423.139 137.621C423.29 137.321 423.74 137.17 424.492 137.17C425.23 137.17 425.681 137.333 425.844 137.646C425.932 137.822 425.969 137.972 425.994 138.11C426.007 138.248 426.019 138.448 426.019 138.711V144.926C426.019 145.189 426.007 145.377 425.994 145.515C425.982 145.653 425.919 145.803 425.832 145.966C425.656 146.267 425.205 146.417 424.479 146.417C423.765 146.417 423.327 146.279 423.164 145.991C423.052 145.79 422.989 145.552 422.989 145.277C422.939 145.364 422.839 145.477 422.676 145.628C422.513 145.778 422.35 145.903 422.2 146.016C421.812 146.267 421.374 146.392 420.91 146.392Z" fill="#2ED1A2"/>
<path d="M429.763 140.553L429.776 140.415C429.776 139.914 429.914 139.513 430.202 139.225C430.49 138.937 430.803 138.736 431.141 138.649C431.479 138.561 431.792 138.398 432.08 138.173C432.368 137.947 432.506 137.646 432.506 137.27C432.506 136.895 432.393 136.594 432.18 136.381C431.967 136.168 431.642 136.068 431.203 136.068C430.765 136.068 430.452 136.13 430.252 136.268C430.051 136.406 429.926 136.544 429.876 136.682L429.826 136.895C429.726 137.195 429.601 137.433 429.463 137.584C429.325 137.734 429.137 137.822 428.924 137.822C428.699 137.822 428.411 137.747 428.048 137.609C427.347 137.346 426.996 137.007 426.996 136.606C426.996 136.431 427.034 136.256 427.096 136.068C427.171 135.892 427.221 135.729 427.271 135.617C427.322 135.491 427.447 135.278 427.647 134.978C427.848 134.677 428.085 134.414 428.348 134.176C428.611 133.95 428.987 133.737 429.463 133.549C429.939 133.361 430.477 133.261 431.053 133.261C432.293 133.261 433.307 133.662 434.084 134.451C434.872 135.241 435.261 136.168 435.261 137.22C435.261 137.722 435.173 138.185 434.985 138.611C434.81 139.037 434.584 139.375 434.321 139.613C433.808 140.102 433.332 140.428 432.881 140.591L432.606 140.678C432.606 140.879 432.593 141.029 432.581 141.129C432.568 141.23 432.506 141.355 432.418 141.468C432.33 141.593 432.18 141.681 431.98 141.731C431.779 141.781 431.504 141.806 431.166 141.806C430.828 141.806 430.552 141.781 430.352 141.718C430.152 141.656 430.001 141.555 429.926 141.418C429.839 141.28 429.801 141.155 429.776 141.042C429.776 140.954 429.763 140.779 429.763 140.553ZM429.701 143.685C429.788 143.51 429.964 143.372 430.202 143.297C430.44 143.209 430.815 143.172 431.329 143.172C431.842 143.172 432.218 143.285 432.443 143.51C432.669 143.736 432.781 144.174 432.781 144.838C432.781 145.302 432.719 145.653 432.606 145.878C432.493 146.104 432.305 146.254 432.067 146.329C431.83 146.404 431.454 146.442 430.953 146.442C430.452 146.442 430.064 146.317 429.801 146.079C429.601 145.878 429.5 145.54 429.5 145.064V144.788C429.5 144.525 429.513 144.312 429.525 144.174C429.551 144.024 429.601 143.861 429.701 143.685Z" fill="#2ED1A2"/>
<path d="M445.466 144.613C445.166 144.237 445.016 143.898 445.016 143.61C445.016 143.322 445.266 142.921 445.767 142.42C446.055 142.144 446.368 141.994 446.693 141.994C447.019 141.994 447.482 142.282 448.058 142.871C448.221 143.072 448.459 143.26 448.76 143.435C449.06 143.61 449.348 143.711 449.599 143.711C450.688 143.711 451.227 143.272 451.227 142.382C451.227 142.119 451.076 141.894 450.776 141.706C450.475 141.53 450.112 141.393 449.661 141.305C449.223 141.217 448.735 141.092 448.221 140.917C447.708 140.741 447.232 140.516 446.781 140.278C446.343 140.027 445.967 139.639 445.667 139.112C445.366 138.586 445.216 137.935 445.216 137.195C445.216 136.168 445.604 135.266 446.368 134.502C447.132 133.737 448.171 133.349 449.498 133.349C450.2 133.349 450.838 133.437 451.414 133.625C451.99 133.8 452.391 133.988 452.617 134.176L453.055 134.514C453.418 134.852 453.593 135.141 453.593 135.379C453.593 135.617 453.456 135.93 453.168 136.343C452.767 136.932 452.366 137.22 451.94 137.22C451.69 137.22 451.389 137.108 451.026 136.87C450.989 136.845 450.926 136.782 450.826 136.694C450.726 136.606 450.638 136.519 450.55 136.469C450.3 136.318 449.987 136.243 449.611 136.243C449.236 136.243 448.91 136.331 448.659 136.519C448.409 136.694 448.284 136.957 448.284 137.271C448.284 137.596 448.434 137.847 448.735 138.047C449.035 138.248 449.398 138.386 449.849 138.448C450.287 138.523 450.776 138.624 451.302 138.774C451.828 138.924 452.316 139.1 452.754 139.313C453.193 139.526 453.568 139.889 453.869 140.415C454.169 140.942 454.32 141.581 454.32 142.332C454.32 143.097 454.169 143.761 453.869 144.337C453.568 144.913 453.168 145.364 452.679 145.678C451.727 146.292 450.726 146.605 449.649 146.605C449.098 146.605 448.584 146.542 448.083 146.404C447.583 146.267 447.194 146.104 446.894 145.903C446.28 145.527 445.842 145.164 445.592 144.813L445.466 144.613Z" fill="#2ED1A2"/>
<path d="M458.389 135.466C458.302 135.642 458.151 135.754 457.926 135.83C457.701 135.905 457.413 135.93 457.037 135.93C456.674 135.93 456.373 135.892 456.148 135.83C455.922 135.754 455.772 135.642 455.684 135.466C455.597 135.291 455.547 135.141 455.522 135.003C455.509 134.865 455.497 134.664 455.497 134.401C455.497 134.138 455.509 133.925 455.522 133.8C455.534 133.662 455.584 133.512 455.672 133.349C455.835 133.036 456.286 132.873 457.037 132.873C457.776 132.873 458.214 133.036 458.364 133.349C458.452 133.524 458.515 133.675 458.527 133.812C458.54 133.95 458.552 134.151 458.552 134.414C458.552 134.677 458.54 134.89 458.527 135.015C458.527 135.153 458.477 135.303 458.389 135.466ZM455.497 138.724C455.497 138.461 455.509 138.248 455.522 138.123C455.534 137.985 455.584 137.834 455.672 137.659C455.835 137.358 456.286 137.208 457.037 137.208C457.6 137.208 458.001 137.308 458.226 137.509C458.427 137.671 458.527 137.922 458.54 138.26C458.552 138.373 458.552 138.548 458.552 138.774V144.913C458.552 145.176 458.54 145.389 458.527 145.515C458.515 145.653 458.452 145.803 458.364 145.978C458.214 146.279 457.763 146.429 457.012 146.429C456.273 146.429 455.822 146.267 455.659 145.953C455.572 145.778 455.534 145.628 455.509 145.502C455.497 145.377 455.484 145.164 455.484 144.888V138.724H455.497Z" fill="#2ED1A2"/>
<path d="M465.965 138.16C466.04 137.509 466.491 137.183 467.355 137.183C467.806 137.183 468.144 137.22 468.37 137.283C468.595 137.358 468.745 137.471 468.833 137.646C468.921 137.822 468.971 137.972 468.996 138.11C469.008 138.248 469.021 138.448 469.021 138.711V144.851C469.021 145.114 469.008 145.327 468.996 145.452C468.983 145.59 468.933 145.74 468.845 145.916C468.683 146.216 468.282 146.367 467.643 146.367C467.005 146.367 466.579 146.292 466.366 146.129C466.153 145.966 466.028 145.74 465.99 145.44C465.552 146.054 464.838 146.367 463.824 146.367C462.81 146.367 461.87 145.903 461.006 144.976C460.142 144.049 459.704 142.984 459.704 141.756C459.704 140.528 460.142 139.463 461.006 138.549C461.883 137.634 462.835 137.17 463.874 137.17C464.275 137.17 464.638 137.245 464.964 137.383C465.289 137.521 465.515 137.659 465.652 137.784C465.777 137.922 465.89 138.047 465.965 138.16ZM462.772 141.806C462.772 142.195 462.922 142.545 463.223 142.846C463.523 143.159 463.899 143.31 464.325 143.31C464.763 143.31 465.114 143.147 465.402 142.834C465.69 142.52 465.828 142.169 465.828 141.794C465.828 141.418 465.69 141.054 465.414 140.729C465.139 140.403 464.776 140.24 464.312 140.24C463.849 140.24 463.473 140.403 463.185 140.729C462.922 141.067 462.772 141.43 462.772 141.806Z" fill="#2ED1A2"/>
<path d="M470.423 148.935V138.686C470.423 138.423 470.436 138.223 470.448 138.085C470.461 137.96 470.511 137.809 470.598 137.646C470.761 137.333 471.149 137.17 471.776 137.17C472.389 137.17 472.815 137.245 473.028 137.408C473.241 137.571 473.366 137.797 473.403 138.097C473.842 137.484 474.543 137.183 475.495 137.183C476.446 137.183 477.348 137.634 478.2 138.536C479.051 139.438 479.477 140.478 479.477 141.681C479.477 142.871 479.051 143.924 478.2 144.826C477.348 145.728 476.446 146.179 475.495 146.179C474.53 146.179 473.842 145.916 473.403 145.377V148.923C473.403 149.186 473.391 149.386 473.378 149.524C473.366 149.649 473.303 149.8 473.216 149.975C473.128 150.151 472.978 150.263 472.765 150.339C472.552 150.414 472.264 150.439 471.901 150.439C471.538 150.439 471.25 150.401 471.037 150.339C470.824 150.263 470.674 150.151 470.586 149.988C470.498 149.825 470.448 149.674 470.423 149.549C470.423 149.399 470.423 149.198 470.423 148.935ZM473.892 140.666C473.629 140.979 473.491 141.33 473.491 141.706C473.491 142.082 473.629 142.42 473.904 142.733C474.18 143.047 474.53 143.197 474.956 143.197C475.382 143.197 475.745 143.047 476.046 142.746C476.346 142.445 476.496 142.094 476.496 141.706C476.496 141.317 476.359 140.967 476.071 140.666C475.795 140.353 475.42 140.202 474.969 140.202C474.518 140.202 474.155 140.353 473.892 140.666Z" fill="#2ED1A2"/>
<path d="M486.614 138.16C486.69 137.509 487.14 137.183 488.004 137.183C488.455 137.183 488.793 137.22 489.019 137.283C489.244 137.358 489.394 137.471 489.482 137.646C489.57 137.822 489.62 137.972 489.645 138.11C489.657 138.248 489.67 138.448 489.67 138.711V144.851C489.67 145.114 489.657 145.327 489.645 145.452C489.632 145.59 489.582 145.74 489.495 145.916C489.332 146.216 488.931 146.367 488.292 146.367C487.654 146.367 487.228 146.292 487.015 146.129C486.802 145.966 486.677 145.74 486.639 145.44C486.201 146.054 485.487 146.367 484.473 146.367C483.459 146.367 482.52 145.903 481.656 144.976C480.792 144.049 480.353 142.984 480.353 141.756C480.353 140.528 480.792 139.463 481.656 138.549C482.532 137.634 483.484 137.17 484.523 137.17C484.924 137.17 485.287 137.245 485.613 137.383C485.938 137.521 486.164 137.659 486.301 137.784C486.427 137.922 486.539 138.047 486.614 138.16ZM483.421 141.806C483.421 142.195 483.572 142.545 483.872 142.846C484.173 143.159 484.548 143.31 484.974 143.31C485.412 143.31 485.763 143.147 486.051 142.834C486.339 142.52 486.477 142.169 486.477 141.794C486.477 141.418 486.339 141.054 486.063 140.729C485.788 140.403 485.425 140.24 484.962 140.24C484.498 140.24 484.123 140.403 483.834 140.729C483.572 141.067 483.421 141.43 483.421 141.806Z" fill="#2ED1A2"/>
<path d="M500.865 140.29L499.725 140.215V142.633C499.725 142.946 499.775 143.172 499.875 143.322C499.976 143.46 500.163 143.535 500.439 143.535C500.714 143.535 500.927 143.548 501.065 143.56C501.215 143.573 501.366 143.635 501.528 143.723C501.791 143.873 501.929 144.262 501.929 144.901C501.929 145.64 501.766 146.091 501.441 146.254C501.265 146.342 501.115 146.392 500.977 146.404C500.84 146.417 500.652 146.429 500.389 146.429C499.174 146.429 498.248 146.154 497.621 145.602C496.995 145.051 496.67 144.124 496.67 142.808V140.215C496.444 140.252 496.206 140.265 495.956 140.265C495.693 140.265 495.48 140.165 495.317 139.964C495.142 139.764 495.067 139.426 495.067 138.949C495.067 138.473 495.092 138.123 495.155 137.91C495.217 137.697 495.292 137.534 495.405 137.446C495.593 137.296 495.831 137.22 496.106 137.22L496.682 137.296V135.491C496.682 135.228 496.695 135.028 496.707 134.89C496.72 134.765 496.782 134.627 496.87 134.464C497.02 134.176 497.471 134.025 498.223 134.025C499.011 134.025 499.487 134.238 499.638 134.677C499.7 134.865 499.725 135.166 499.725 135.567V137.283C500.239 137.233 500.627 137.208 500.89 137.208C501.153 137.208 501.353 137.22 501.491 137.233C501.629 137.245 501.779 137.308 501.954 137.396C502.255 137.546 502.405 137.997 502.405 138.749C502.405 139.488 502.242 139.939 501.929 140.102C501.754 140.19 501.604 140.24 501.466 140.253C501.341 140.278 501.14 140.29 500.865 140.29Z" fill="#2ED1A2"/>
<path d="M509.367 138.16C509.442 137.509 509.893 137.183 510.757 137.183C511.208 137.183 511.546 137.22 511.772 137.283C511.997 137.358 512.147 137.471 512.235 137.646C512.323 137.822 512.373 137.972 512.398 138.11C512.41 138.248 512.423 138.448 512.423 138.711V144.851C512.423 145.114 512.41 145.327 512.398 145.452C512.385 145.59 512.335 145.74 512.247 145.916C512.085 146.216 511.684 146.367 511.045 146.367C510.407 146.367 509.981 146.292 509.768 146.129C509.555 145.966 509.43 145.74 509.392 145.44C508.954 146.054 508.24 146.367 507.226 146.367C506.212 146.367 505.273 145.903 504.409 144.976C503.544 144.049 503.106 142.984 503.106 141.756C503.106 140.528 503.544 139.463 504.409 138.549C505.285 137.634 506.237 137.17 507.276 137.17C507.677 137.17 508.04 137.245 508.366 137.383C508.691 137.521 508.916 137.659 509.054 137.784C509.179 137.922 509.292 138.047 509.367 138.16ZM506.187 141.806C506.187 142.195 506.337 142.545 506.637 142.846C506.938 143.159 507.314 143.31 507.739 143.31C508.178 143.31 508.528 143.147 508.816 142.834C509.104 142.52 509.242 142.169 509.242 141.794C509.242 141.418 509.104 141.054 508.829 140.729C508.553 140.403 508.19 140.24 507.727 140.24C507.264 140.24 506.888 140.403 506.6 140.729C506.324 141.067 506.187 141.43 506.187 141.806Z" fill="#2ED1A2"/>
<path d="M519.26 141.794L521.589 143.723C521.877 143.974 522.065 144.162 522.14 144.287C522.215 144.412 522.253 144.537 522.253 144.65C522.253 144.926 522.077 145.314 521.714 145.79C521.313 146.279 520.963 146.53 520.662 146.53C520.399 146.53 520.049 146.354 519.598 146.016L519.423 145.891C519.16 145.665 518.734 145.277 518.183 144.725C517.619 144.174 517.194 143.773 516.906 143.535V144.888C516.906 145.151 516.893 145.364 516.881 145.49C516.868 145.628 516.806 145.778 516.718 145.953C516.568 146.254 516.117 146.404 515.365 146.404C514.627 146.404 514.176 146.241 514.013 145.928C513.925 145.753 513.888 145.602 513.863 145.465C513.85 145.327 513.838 145.126 513.838 144.863V134.351C513.838 134.088 513.85 133.875 513.863 133.75C513.875 133.612 513.925 133.462 514.013 133.286C514.176 132.973 514.627 132.81 515.378 132.81C515.942 132.81 516.342 132.91 516.568 133.111C516.768 133.274 516.868 133.537 516.881 133.888C516.893 133.988 516.893 134.151 516.893 134.376V139.939C517.106 139.764 517.419 139.463 517.845 139.05C518.271 138.624 518.584 138.336 518.797 138.16L519.009 138.022C519.423 137.709 519.773 137.546 520.061 137.546C520.349 137.546 520.687 137.784 521.063 138.26C521.439 138.736 521.627 139.1 521.627 139.375C521.627 139.639 521.414 139.964 520.975 140.328L519.26 141.794Z" fill="#2ED1A2"/>
<path d="M526.798 146.392C525.621 146.392 524.644 145.941 523.856 145.051C523.079 144.162 522.691 143.072 522.691 141.781V138.711C522.691 138.436 522.704 138.223 522.716 138.097C522.729 137.972 522.779 137.822 522.866 137.646C523.029 137.333 523.48 137.17 524.231 137.17C525.045 137.17 525.534 137.396 525.671 137.834C525.746 138.022 525.772 138.323 525.772 138.724V141.794C525.772 142.27 525.909 142.646 526.185 142.921C526.46 143.184 526.823 143.322 527.287 143.322C527.75 143.322 528.126 143.184 528.414 142.896C528.702 142.621 528.839 142.245 528.839 141.794V138.686C528.839 138.423 528.852 138.21 528.864 138.085C528.877 137.947 528.94 137.797 529.027 137.621C529.178 137.321 529.628 137.17 530.38 137.17C531.118 137.17 531.569 137.333 531.732 137.646C531.82 137.822 531.857 137.972 531.882 138.11C531.895 138.248 531.907 138.448 531.907 138.711V144.926C531.907 145.189 531.895 145.377 531.882 145.515C531.87 145.653 531.807 145.803 531.72 145.966C531.544 146.267 531.093 146.417 530.367 146.417C529.653 146.417 529.215 146.279 529.052 145.991C528.94 145.79 528.877 145.552 528.877 145.277C528.827 145.364 528.727 145.477 528.564 145.628C528.401 145.778 528.238 145.903 528.088 146.016C527.7 146.267 527.262 146.392 526.798 146.392Z" fill="#2ED1A2"/>
<path d="M538.682 140.29L537.542 140.215V142.633C537.542 142.946 537.592 143.172 537.693 143.322C537.793 143.46 537.981 143.535 538.256 143.535C538.532 143.535 538.744 143.548 538.882 143.56C539.032 143.573 539.183 143.635 539.346 143.723C539.609 143.873 539.746 144.262 539.746 144.901C539.746 145.64 539.583 146.091 539.258 146.254C539.083 146.342 538.932 146.392 538.795 146.404C538.657 146.417 538.469 146.429 538.206 146.429C536.991 146.429 536.065 146.154 535.439 145.602C534.812 145.051 534.487 144.124 534.487 142.808V140.215C534.261 140.252 534.024 140.265 533.773 140.265C533.51 140.265 533.297 140.165 533.134 139.964C532.959 139.764 532.884 139.426 532.884 138.949C532.884 138.473 532.909 138.123 532.972 137.91C533.034 137.697 533.109 137.534 533.222 137.446C533.41 137.296 533.648 137.22 533.923 137.22L534.499 137.296V135.491C534.499 135.228 534.512 135.028 534.524 134.89C534.537 134.765 534.6 134.627 534.687 134.464C534.837 134.176 535.288 134.025 536.04 134.025C536.829 134.025 537.304 134.238 537.455 134.677C537.517 134.865 537.542 135.166 537.542 135.567V137.283C538.056 137.233 538.444 137.208 538.707 137.208C538.97 137.208 539.17 137.22 539.308 137.233C539.446 137.245 539.596 137.308 539.771 137.396C540.072 137.546 540.222 137.997 540.222 138.749C540.222 139.488 540.059 139.939 539.746 140.102C539.571 140.19 539.421 140.24 539.283 140.253C539.158 140.278 538.957 140.29 538.682 140.29Z" fill="#2ED1A2"/>
<path d="M541.362 143.748C541.474 143.523 541.662 143.36 541.9 143.285C542.138 143.197 542.514 143.159 543.027 143.159C543.54 143.159 543.904 143.272 544.129 143.498C544.354 143.723 544.467 144.074 544.467 144.55V144.826C544.467 145.101 544.455 145.314 544.442 145.452C544.43 145.59 544.367 145.753 544.279 145.928C544.091 146.267 543.641 146.442 542.939 146.442C542.238 146.442 541.762 146.329 541.537 146.104C541.312 145.878 541.199 145.44 541.199 144.776C541.186 144.324 541.249 143.974 541.362 143.748ZM543.716 141.706C543.49 141.769 543.19 141.794 542.827 141.794C542.451 141.794 542.151 141.769 541.938 141.706C541.712 141.643 541.562 141.543 541.474 141.393C541.387 141.242 541.337 141.104 541.312 140.992C541.299 140.879 541.287 140.691 541.287 140.453V134.89C541.287 134.639 541.299 134.464 541.312 134.339C541.324 134.213 541.387 134.076 541.474 133.925C541.562 133.775 541.725 133.662 541.95 133.599C542.176 133.537 542.476 133.499 542.839 133.499C543.215 133.499 543.515 133.537 543.728 133.599C543.954 133.662 544.104 133.775 544.192 133.938C544.279 134.101 544.329 134.238 544.354 134.364C544.367 134.489 544.379 134.664 544.379 134.915V140.478C544.379 140.729 544.367 140.904 544.354 141.017C544.342 141.13 544.279 141.267 544.192 141.405C544.091 141.543 543.941 141.643 543.716 141.706Z" fill="#2ED1A2"/>
<path d="M546.045 143.748C546.158 143.523 546.346 143.36 546.583 143.285C546.821 143.197 547.197 143.159 547.71 143.159C548.224 143.159 548.587 143.272 548.812 143.498C549.038 143.723 549.151 144.074 549.151 144.55V144.826C549.151 145.101 549.138 145.314 549.126 145.452C549.113 145.59 549.05 145.753 548.963 145.928C548.775 146.267 548.324 146.442 547.623 146.442C546.922 146.442 546.446 146.329 546.22 146.104C545.995 145.878 545.882 145.44 545.882 144.776C545.87 144.324 545.932 143.974 546.045 143.748ZM548.399 141.706C548.174 141.769 547.873 141.794 547.51 141.794C547.134 141.794 546.834 141.769 546.621 141.706C546.396 141.643 546.245 141.543 546.158 141.393C546.07 141.242 546.02 141.104 545.995 140.992C545.982 140.879 545.97 140.691 545.97 140.453V134.89C545.97 134.639 545.982 134.464 545.995 134.339C546.007 134.213 546.07 134.076 546.158 133.925C546.245 133.775 546.408 133.662 546.634 133.599C546.859 133.537 547.159 133.499 547.523 133.499C547.898 133.499 548.199 133.537 548.412 133.599C548.637 133.662 548.787 133.775 548.875 133.938C548.963 134.101 549.013 134.238 549.038 134.364C549.05 134.489 549.063 134.664 549.063 134.915V140.478C549.063 140.729 549.05 140.904 549.038 141.017C549.025 141.13 548.963 141.267 548.875 141.405C548.775 141.543 548.612 141.643 548.399 141.706Z" fill="#2ED1A2"/>
</svg>
